<?xml version="1.0" standalone="no"?>
<!DOCTYPE svg PUBLIC "-//W3C//DTD SVG 1.1//EN" "http://www.w3.org/Graphics/SVG/1.1/DTD/svg11.dtd" >
<svg>
<metadata>
Created by FontForge 20090622 at Tue Aug 30 16:04:14 2016
 By deploy user
&#194;&#169; 2008 Microsoft Corporation. All Rights Reserved.
</metadata>
<defs>
<font id="Corbel-BoldItalic" horiz-adv-x="800" >
  <font-face 
    font-family="Corbel"
    font-weight="700"
    font-style="italic"
    font-stretch="normal"
    units-per-em="2048"
    panose-1="2 11 7 3 2 2 4 9 2 4"
    ascent="1523"
    descent="-525"
    x-height="969"
    cap-height="1338"
    bbox="-821 -490 2446 1950"
    underline-thickness="120"
    underline-position="-130"
    slope="-12"
    unicode-range="U+000D-U+FB04"
  />
<missing-glyph horiz-adv-x="948" 
d="M948 1338v-1338h-948v1338h948zM855 91v1156h-762v-1156h762zM363 224v125h122v-125h-122zM715 896q0 -35 -9.5 -62t-25 -49.5t-35.5 -41t-42 -35.5l-48 -38.5t-43 -42t-31 -51t-12 -65.5v-11h-88q-1 7 -1.5 15t-0.5 13q0 50 15 85.5t37.5 62t50.5 47.5l53 41
q32 25 54 54t22 73q0 57 -44.5 88.5t-117.5 31.5q-50 0 -96 -12t-82 -28v84q35 19 84 30.5t98 11.5q61 0 109.5 -14.5t82.5 -41t52 -63.5t18 -82z" />
    <glyph glyph-name="f_b.liga" unicode="fb" horiz-adv-x="1721" 
d="M980 1266q-57 13 -117 13q-41 0 -86 -9t-86 -35.5t-74 -73.5t-49 -122l-15 -70h227l-41 -195h-226l-183 -882q-15 -74 -35 -127t-48 -92q-63 -90 -158 -126.5t-210 -36.5q-54 0 -103.5 9t-80.5 21l40 189q34 -13 69 -19t64 -6q56 0 95 15t66.5 46t45.5 78t31 112l171 819
h-174l41 195h173l17 81q18 86 50 151t74.5 112t92.5 77.5t103.5 49t109 26t107.5 7.5q101 0 204 -17t172 -42l-82 -386q-16 -70 -37 -146h4q19 21 43.5 40.5t55.5 35.5t68 25.5t79 9.5q62 0 117.5 -22t96.5 -65.5t65 -108.5t24 -151q0 -74 -14.5 -152.5t-44 -153.5
t-75.5 -141t-108.5 -116t-143 -79t-179.5 -29q-78 0 -139 24t-103.5 65t-65 97.5t-22.5 120.5q0 26 3 53.5t12 72.5zM1032 379q-6 -30 -7.5 -46.5t-1.5 -29.5q0 -61 29.5 -97.5t87.5 -36.5q49 0 90 21t74.5 56.5t59.5 82t43.5 98t26.5 104t9 99.5q0 34 -7.5 64.5t-23 54
t-41 37t-61.5 13.5q-33 0 -70.5 -14t-71 -45t-61 -78.5t-41.5 -115.5z" />
    <glyph glyph-name="f_f_b.liga" unicode="ffb" horiz-adv-x="2322" 
d="M1848 1414l-82 -386l-7.5 -32.5t-10 -40.5l-11 -40.5t-8.5 -32.5h4q18 21 43 40.5t56 35.5t68 25.5t79 9.5q62 0 117.5 -22t96.5 -65.5t65 -108.5t24 -151q0 -74 -14.5 -152.5t-44 -153.5t-75.5 -141t-108.5 -116t-143 -79t-179.5 -29q-78 0 -139 24t-103.5 65t-65 97.5
t-22.5 120.5q0 26 3 53.5t12 72.5l179 858q-57 13 -117 13q-41 0 -86 -9t-86 -35.5t-74 -73.5t-49 -122l-15 -70h227l-41 -195h-226l-192 -922q-18 -85 -46.5 -149t-74.5 -107t-111.5 -64.5t-156.5 -21.5q-43 0 -85.5 6.5t-71.5 17.5l40 189q25 -10 53 -14.5t51 -4.5
q42 0 71 12.5t49 38t33.5 64.5t24.5 93l180 862h-365l-183 -882q-15 -74 -35 -127t-48 -92q-63 -90 -158 -126.5t-210 -36.5q-54 0 -103.5 9t-80.5 21l40 189q34 -13 69 -19t64 -6q56 0 95 15t66.5 46t45.5 78t31 112l171 819h-174l41 195h173l33 156q37 175 138.5 261.5
t251.5 86.5q36 0 79 -6t78 -18l-38 -184q-25 7 -50.5 10.5t-44.5 3.5q-76 0 -120 -46t-62 -129l-29 -135h365l17 81q18 86 50 151t74.5 112t92.5 77.5t103.5 49t109 26t107.5 7.5q101 0 204 -17t172 -42zM1633 379q-6 -30 -7.5 -46.5t-1.5 -29.5q0 -61 29.5 -97.5
t87.5 -36.5q49 0 90 21t74.5 56.5t59.5 82t43.5 98t26.5 104t9 99.5q0 34 -7.5 64.5t-23 54t-41 37t-61.5 13.5q-33 0 -70.5 -14t-71 -45t-61 -78.5t-41.5 -115.5z" />
    <glyph glyph-name="uniFB00" unicode="ff" horiz-adv-x="1168" 
d="M553 969h365l25 121q14 70 33.5 120.5t46.5 89.5q30 45 68.5 77.5t82 53.5t91.5 31.5t97 10.5q59 0 114.5 -10.5t91.5 -22.5l-38 -184q-46 12 -83 17.5t-66 5.5q-51 0 -89 -18t-65 -56q-16 -23 -28.5 -54t-20.5 -70l-24 -112h260l-41 -195h-259l-192 -922
q-18 -85 -46.5 -149t-74.5 -107t-111.5 -64.5t-156.5 -21.5q-43 0 -85.5 6.5t-71.5 17.5l40 189q25 -10 53 -14.5t51 -4.5q42 0 71 12.5t49 38t33.5 64.5t24.5 93l180 862h-365l-183 -882q-15 -74 -35 -127t-48 -92q-63 -90 -158 -126.5t-210 -36.5q-54 0 -103.5 9t-80.5 21
l40 189q34 -13 69 -19t64 -6q56 0 95 15t66.5 46t45.5 78t31 112l171 819h-174l41 195h173l33 156q37 175 138.5 261.5t251.5 86.5q80 0 157 -24l-38 -184q-53 14 -95 14q-78 0 -121 -46t-61 -129z" />
    <glyph glyph-name="f_h.liga" unicode="fh" horiz-adv-x="1771" 
d="M1247 1414l-87 -419q-10 -53 -40 -148h4q24 29 56.5 55.5t71.5 46.5t84.5 32t95.5 12q57 0 107.5 -16.5t89 -48.5t60.5 -78t22 -106q0 -37 -7 -82t-16 -90l-119 -572h-236l122 590q6 31 9.5 55.5t3.5 41.5q0 51 -28 79t-88 28q-74 0 -136.5 -40t-104.5 -108
q-8 -13 -15.5 -28t-14.5 -34t-13.5 -43.5t-13.5 -57.5l-100 -483h-236l262 1266q-57 13 -117 13q-41 0 -86 -9t-86 -35.5t-74 -73.5t-49 -122l-15 -70h227l-41 -195h-226l-183 -882q-15 -74 -35 -127t-48 -92q-63 -90 -158 -126.5t-210 -36.5q-54 0 -103.5 9t-80.5 21
l40 189q34 -13 69 -19t64 -6q56 0 95 15t66.5 46t45.5 78t31 112l171 819h-174l41 195h173l17 81q18 86 50 151t74.5 112t92.5 77.5t103.5 49t109 26t107.5 7.5q101 0 204 -17t172 -42z" />
    <glyph glyph-name="f_f_h.liga" unicode="ffh" horiz-adv-x="2372" 
d="M1848 1414l-87 -419q-12 -59 -40 -148h4q24 29 56.5 55.5t71.5 46.5t84.5 32t95.5 12q57 0 107.5 -16.5t89 -48.5t60.5 -78t22 -106q0 -37 -7 -82t-16 -90l-119 -572h-236l122 590q6 31 9.5 55.5t3.5 41.5q0 51 -28 79t-88 28q-74 0 -136.5 -40t-104.5 -108
q-8 -13 -15.5 -28t-14.5 -34t-13.5 -43.5t-13.5 -57.5l-100 -483h-236l262 1266q-57 13 -117 13q-41 0 -86 -9t-86 -35.5t-74 -73.5t-49 -122l-15 -70h227l-41 -195h-226l-192 -922q-18 -85 -46.5 -149t-74.5 -107t-111.5 -64.5t-156.5 -21.5q-43 0 -85.5 6.5t-71.5 17.5
l40 189q25 -10 53 -14.5t51 -4.5q42 0 71 12.5t49 38t33.5 64.5t24.5 93l180 862h-365l-183 -882q-15 -74 -35 -127t-48 -92q-63 -90 -158 -126.5t-210 -36.5q-54 0 -103.5 9t-80.5 21l40 189q34 -13 69 -19t64 -6q56 0 95 15t66.5 46t45.5 78t31 112l171 819h-174l41 195
h173l33 156q37 175 138.5 261.5t251.5 86.5q78 0 157 -24l-38 -184q-54 14 -95 14q-74 0 -119 -45t-63 -130l-29 -135h365l17 81q18 86 50 151t74.5 112t92.5 77.5t103.5 49t109 26t107.5 7.5q101 0 204 -17t172 -42z" />
    <glyph glyph-name="uniFB01" unicode="fi" horiz-adv-x="1168" 
d="M335 1054q24 114 71.5 193.5t113.5 130t147 73t172 22.5q129 0 245 -35l-38 -186q-46 12 -95 19.5t-91 7.5q-52 0 -98.5 -11.5t-84.5 -40t-66.5 -75t-43.5 -117.5l-14 -66h601l-202 -969h-236l162 774h-365l-183 -882q-15 -74 -35 -127t-48 -92q-63 -90 -158 -126.5
t-210 -36.5q-54 0 -103.5 9t-80.5 21l40 189q34 -13 69 -19t64 -6q56 0 95 15t66.5 46t45.5 78t31 112l171 819h-174l41 195h173z" />
    <glyph glyph-name="uniFB03" unicode="ffi" horiz-adv-x="1769" 
d="M1154 969h601l-202 -969h-236l162 774h-365l-192 -922q-18 -85 -46.5 -149t-74.5 -107t-111.5 -64.5t-156.5 -21.5q-43 0 -85.5 6.5t-71.5 17.5l40 189q25 -10 53 -14.5t51 -4.5q42 0 71 12.5t49 38t33.5 64.5t24.5 93l180 862h-365l-183 -882q-15 -74 -35 -127t-48 -92
q-63 -90 -158 -126.5t-210 -36.5q-54 0 -103.5 9t-80.5 21l40 189q34 -13 69 -19t64 -6q56 0 95 15t66.5 46t45.5 78t31 112l171 819h-174l41 195h173l33 156q37 175 138.5 261.5t251.5 86.5q78 0 157 -24l-38 -184q-51 14 -95 14q-75 0 -119 -44.5t-63 -130.5l-29 -135h365
l18 85q24 114 71.5 193.5t113.5 130t147 73t172 22.5q61 0 123.5 -8.5t121.5 -26.5l-38 -186q-46 12 -94 19.5t-92 7.5q-52 0 -98.5 -11.5t-84.5 -40t-66.5 -75t-43.5 -117.5z" />
    <glyph glyph-name="f_j.liga" unicode="fj" horiz-adv-x="1168" 
d="M317 969l18 85q24 114 71.5 193.5t113.5 130t147 73t172 22.5q60 0 123 -8.5t122 -26.5l-38 -186q-46 12 -95 19.5t-91 7.5q-52 0 -98.5 -11.5t-84.5 -40t-66.5 -75t-43.5 -117.5l-14 -66h601l-232 -1117q-18 -85 -46.5 -149t-74.5 -107t-111.5 -64.5t-156.5 -21.5
q-43 0 -85.5 6.5t-71.5 17.5l40 189q25 -10 53 -14.5t51 -4.5q42 0 71 12.5t49 38t33.5 64.5t24.5 93l180 862h-365l-183 -882q-15 -74 -35 -127t-48 -92q-63 -90 -158 -126.5t-210 -36.5q-54 0 -103.5 9t-80.5 21l40 189q34 -13 69 -19t64 -6q56 0 95 15t66.5 46t45.5 78
t31 112l171 819h-174l41 195h173z" />
    <glyph glyph-name="f_f_j.liga" unicode="ffj" horiz-adv-x="1769" 
d="M918 969l18 85q24 114 71.5 193.5t113.5 130t147 73t172 22.5q61 0 123.5 -8.5t121.5 -26.5l-38 -186q-46 12 -94.5 19.5t-91.5 7.5q-52 0 -98.5 -11.5t-84.5 -40t-66.5 -75t-43.5 -117.5l-14 -66h601l-232 -1117q-18 -85 -46.5 -149t-74.5 -107t-111.5 -64.5
t-156.5 -21.5q-43 0 -85.5 6.5t-71.5 17.5l40 189q25 -10 53 -14.5t51 -4.5q42 0 71 12.5t49 38t33.5 64.5t24.5 93l180 862h-365l-192 -922q-18 -85 -46.5 -149t-74.5 -107t-111.5 -64.5t-156.5 -21.5q-43 0 -85.5 6.5t-71.5 17.5l40 189q25 -10 53 -14.5t51 -4.5
q42 0 71 12.5t49 38t33.5 64.5t24.5 93l180 862h-365l-183 -882q-15 -74 -35 -127t-48 -92q-63 -90 -158 -126.5t-210 -36.5q-54 0 -103.5 9t-80.5 21l40 189q34 -13 69 -19t64 -6q56 0 95 15t66.5 46t45.5 78t31 112l171 819h-174l41 195h173l33 156q37 175 138.5 261.5
t251.5 86.5q81 0 157 -24l-38 -184q-52 14 -95 14q-74 0 -118 -43.5t-64 -131.5l-29 -135h365z" />
    <glyph glyph-name="f_k.liga" unicode="fk" horiz-adv-x="1652" 
d="M980 1266q-22 5 -52.5 9t-64.5 4q-41 0 -86 -9t-86 -35.5t-74 -73.5t-49 -122l-15 -70h227l-41 -195h-226l-183 -882q-15 -74 -35 -127t-48 -92q-63 -90 -158 -126.5t-210 -36.5q-54 0 -103.5 9t-80.5 21l40 189q34 -13 69 -19t64 -6q56 0 95 15t66.5 46t45.5 78t31 112
l171 819h-174l41 195h173l17 81q18 86 50 151t74.5 112t92.5 77.5t103.5 49t109 26t107.5 7.5q55 0 109 -5t103 -13.5t91 -19t73 -21.5l-140 -677q-8 -38 -17.5 -78.5l-18.5 -75.5h7l365 386h289l-448 -463v-4q15 -20 24 -53l18.5 -70t21.5 -74.5t32 -67.5t50 -49t76 -19
q25 0 60 8l-40 -195q-40 -6 -76 -6q-87 0 -143.5 29.5t-93 76t-56.5 103t-35.5 110t-30 97.5t-38.5 66h-4l-95 -458h-236z" />
    <glyph glyph-name="f_f_k.liga" unicode="ffk" horiz-adv-x="2253" 
d="M922 -148q-18 -85 -46.5 -149t-74.5 -107t-111.5 -64.5t-156.5 -21.5q-43 0 -85.5 6.5t-71.5 17.5l40 189q25 -10 53 -14.5t51 -4.5q42 0 71 12.5t49 38t33.5 64.5t24.5 93l180 862h-365l-183 -882q-15 -74 -35 -127t-48 -92q-63 -90 -158 -126.5t-210 -36.5
q-54 0 -103.5 9t-80.5 21l40 189q34 -13 69 -19t64 -6q56 0 95 15t66.5 46t45.5 78t31 112l171 819h-174l41 195h173l33 156q37 175 138.5 261.5t251.5 86.5q20 0 41.5 -2t42.5 -5t39.5 -7.5t33.5 -9.5l-38 -184q-26 8 -52 11t-43 3q-78 0 -121 -46t-61 -129l-29 -135h365
l17 81q18 86 50 151t74.5 112t92.5 77.5t103.5 49t109 26t107.5 7.5q55 0 109 -5t103 -13.5t91 -19t73 -21.5l-140 -677q-8 -38 -17.5 -78.5l-18.5 -75.5h7l365 386h289l-448 -463v-4q15 -20 24 -53l18.5 -70t21.5 -74.5t32 -67.5t50 -49t76 -19q25 0 60 8l-40 -195
q-40 -6 -76 -6q-87 0 -143.5 29.5t-93 76t-56.5 103t-35.5 110t-30 97.5t-38.5 66h-4l-95 -458h-236l262 1266q-22 5 -52.5 9t-64.5 4q-41 0 -86 -9t-86 -35.5t-74 -73.5t-49 -122l-15 -70h227l-41 -195h-226z" />
    <glyph glyph-name="uniFB02" unicode="fl" horiz-adv-x="1239" 
d="M1247 1414l-232 -1115q-8 -40 -8 -58q0 -29 17.5 -41t50.5 -12q14 0 34.5 2t36.5 6l-43 -198q-64 -13 -128 -13q-107 0 -160 47.5t-53 139.5q0 48 13 109l205 985q-57 13 -117 13q-41 0 -86 -9t-86 -35.5t-74 -73.5t-49 -122l-15 -70h227l-41 -195h-226l-183 -882
q-15 -74 -35 -127t-48 -92q-63 -90 -158 -126.5t-210 -36.5q-54 0 -103.5 9t-80.5 21l40 189q34 -13 69 -19t64 -6q56 0 95 15t66.5 46t45.5 78t31 112l171 819h-174l41 195h173l17 81q18 86 50 151t74.5 112t92.5 77.5t103.5 49t109 26t107.5 7.5q100 0 203.5 -17
t172.5 -42z" />
    <glyph glyph-name="uniFB04" unicode="ffl" horiz-adv-x="1840" 
d="M1464 1279q-41 0 -86 -9t-86 -35.5t-74 -73.5t-49 -122l-15 -70h227l-41 -195h-226l-192 -922q-18 -85 -46.5 -149t-74.5 -107t-111.5 -64.5t-156.5 -21.5q-42 0 -84.5 6.5t-72.5 17.5l40 189q25 -10 53 -14.5t51 -4.5q42 0 71 12.5t49 38t33.5 64.5t24.5 93l180 862
h-365l-183 -882q-15 -74 -35 -127t-48 -92q-63 -90 -158 -126.5t-210 -36.5q-54 0 -103.5 9t-80.5 21l40 189q34 -13 69 -19t64 -6q56 0 95 15t66.5 46t45.5 78t31 112l171 819h-174l41 195h173l33 156q37 175 138.5 261.5t251.5 86.5q33 0 75 -5.5t82 -18.5l-38 -184
q-25 7 -50.5 10.5t-41.5 3.5q-78 0 -122.5 -45t-62.5 -130l-29 -135h365l17 81q18 86 50 151t74.5 112t92.5 77.5t103.5 49t109 26t107.5 7.5q100 0 203.5 -17t172.5 -42l-232 -1115q-8 -40 -8 -58q0 -29 17.5 -41t50.5 -12q14 0 34.5 2t36.5 6l-43 -198q-64 -13 -128 -13
q-107 0 -160 47.5t-53 139.5q0 48 13 109l205 985q-57 13 -117 13z" />
    <glyph glyph-name=".notdef" horiz-adv-x="948" 
d="M948 1338v-1338h-948v1338h948zM855 91v1156h-762v-1156h762zM363 224v125h122v-125h-122zM715 896q0 -35 -9.5 -62t-25 -49.5t-35.5 -41t-42 -35.5l-48 -38.5t-43 -42t-31 -51t-12 -65.5v-11h-88q-1 7 -1.5 15t-0.5 13q0 50 15 85.5t37.5 62t50.5 47.5l53 41
q32 25 54 54t22 73q0 57 -44.5 88.5t-117.5 31.5q-50 0 -96 -12t-82 -28v84q35 19 84 30.5t98 11.5q61 0 109.5 -14.5t82.5 -41t52 -63.5t18 -82z" />
    <glyph glyph-name="glyph1" horiz-adv-x="0" 
 />
    <glyph glyph-name="glyph1" horiz-adv-x="0" 
 />
    <glyph glyph-name="uni000D" unicode="&#xd;" horiz-adv-x="422" 
 />
    <glyph glyph-name="space" unicode=" " horiz-adv-x="422" 
 />
    <glyph glyph-name="space" unicode="&#xa0;" horiz-adv-x="422" 
 />
    <glyph glyph-name="A" unicode="A" horiz-adv-x="1326" 
d="M872 341h-475l-185 -341h-272l746 1338h228l272 -1338h-250zM509 546h325l-27 144q-33 173 -53 321h-6q-71 -158 -154 -309z" />
    <glyph glyph-name="B" unicode="B" horiz-adv-x="1246" 
d="M644 787q60 0 100 5.5t69 17.5q62 25 95 72t33 113q0 38 -20 70t-68 50q-24 9 -60 14t-84 5h-170l-72 -347h177zM425 582l-79 -377h127q169 0 256 34q86 33 124 89.5t38 120.5q0 42 -22 72.5t-72 46.5q-23 8 -54.5 11t-79.5 3h-238zM1186 1014q0 -119 -61.5 -198.5
t-175.5 -127.5v-4q45 -12 80 -35.5t59 -55t36 -70.5t12 -81q0 -134 -81.5 -237.5t-243.5 -157.5q-72 -23 -163.5 -35t-207.5 -12h-380l277 1338h373q80 0 142.5 -9t111.5 -26q108 -38 165 -114t57 -175z" />
    <glyph glyph-name="C" unicode="C" horiz-adv-x="1185" 
d="M904 1156q-86 0 -161 -25t-134.5 -69t-104 -104t-74.5 -130.5t-45 -148t-15 -156.5q0 -101 27.5 -167t75.5 -104.5t112.5 -54t137.5 -15.5q80 -1 164.5 14.5t169.5 44.5l-44 -216q-81 -28 -174 -39t-168 -11q-121 0 -221.5 30.5t-172.5 94.5t-112 164t-40 238
q0 98 19.5 200t60 197.5t102 180t146.5 147.5t197 99.5t242 36.5q71 0 162.5 -13t170.5 -39l-41 -200q-75 22 -141 33.5t-139 11.5z" />
    <glyph glyph-name="D" unicode="D" horiz-adv-x="1381" 
d="M346 205h151q94 0 165 16.5t129 46.5q76 39 132 98t94 131t57.5 154t21.5 166q2 110 -35 180t-118 104q-39 17 -91 24.5t-127 7.5h-186zM736 1338q103 0 180 -12.5t139 -37.5q74 -30 128 -75t89 -103t52 -127.5t17 -147.5q0 -49 -8.5 -114t-29.5 -137t-56.5 -146.5
t-90 -143.5t-130 -128t-176.5 -99q-79 -31 -177 -49t-231 -18h-382l277 1338h399z" />
    <glyph glyph-name="E" unicode="E" horiz-adv-x="1116" 
d="M346 205h631l-42 -205h-875l277 1338h839l-43 -205h-594l-72 -346h510l-42 -205h-510z" />
    <glyph glyph-name="F" unicode="F" horiz-adv-x="1026" 
d="M60 0l277 1338h819l-43 -205h-574l-72 -346h500l-42 -205h-500l-121 -582h-244z" />
    <glyph glyph-name="G" unicode="G" horiz-adv-x="1389" 
d="M931 1363q105 0 200 -18.5t169 -46.5l-42 -202q-84 31 -159.5 45.5t-150.5 14.5q-96 0 -179 -25t-147 -69.5t-111.5 -105t-78.5 -131.5t-46.5 -149t-15.5 -157q0 -167 72 -252t216 -85q66 0 123.5 14.5t102 46t75.5 81.5t45 120l13 67h-299l42 205h544l-62 -299
q-27 -129 -85 -214t-138.5 -135.5t-178.5 -71.5t-205 -21q-111 0 -204.5 34t-161.5 100.5t-106 165t-38 227.5q0 119 24.5 229.5t72 206t117 174t159 134.5t198.5 86.5t235 30.5z" />
    <glyph glyph-name="H" unicode="H" horiz-adv-x="1362" 
d="M467 787h571l114 551h244l-277 -1338h-244l121 582h-571l-121 -582h-244l277 1338h244z" />
    <glyph glyph-name="I" unicode="I" horiz-adv-x="551" 
d="M60 0l277 1338h244l-277 -1338h-244z" />
    <glyph glyph-name="J" unicode="J" horiz-adv-x="799" 
d="M585 1338h244l-218 -1049q-13 -63 -32 -107t-47 -77q-53 -64 -137.5 -97t-199.5 -33q-66 0 -118 10.5t-97 27.5l42 202q38 -15 75.5 -24t84.5 -9q35 0 66.5 8.5t57.5 27.5t45 49.5t28 73.5z" />
    <glyph glyph-name="K" unicode="K" horiz-adv-x="1198" 
d="M60 0l277 1338h244l-123 -595h4l554 595h302l-639 -673l425 -665h-281l-387 618h-4l-128 -618h-244z" />
    <glyph glyph-name="L" unicode="L" horiz-adv-x="1102" 
d="M346 205h631l-42 -205h-875l277 1338h244z" />
    <glyph glyph-name="M" unicode="M" horiz-adv-x="1633" 
d="M795 361q71 153 306 571l231 406h331l-277 -1338h-244l143 638q36 160 91 380h-8q-99 -212 -384 -714l-176 -304h-163l-107 723q-22 145 -39 295h-8q-13 -148 -52 -351l-135 -667h-244l277 1338h315l60 -374q37 -234 77 -603h6z" />
    <glyph glyph-name="N" unicode="N" horiz-adv-x="1418" 
d="M934 0l-275 593q-101 216 -161 385h-6q-19 -166 -64 -381l-124 -597h-244l277 1338h237l275 -593q101 -215 161 -385h6q13 131 64 381l124 597h244l-277 -1338h-237z" />
    <glyph glyph-name="O" unicode="O" horiz-adv-x="1444" 
d="M869 1156q-81 0 -149 -28t-123.5 -76.5t-98 -113.5t-71 -139t-43 -153.5t-14.5 -155.5t20 -133.5t57.5 -96.5t91.5 -58.5t121 -19.5q81 0 149 28t123.5 76.5t98 113.5t71 139t43 153.5t14.5 155.5q0 152 -77.5 230t-212.5 78zM886 1363q117 0 212.5 -32.5t163.5 -97
t105 -160t37 -220.5q0 -78 -16.5 -173t-53.5 -192.5t-96 -190t-143.5 -164t-196.5 -115t-255 -43.5q-117 0 -212.5 32.5t-163.5 97t-105 160t-37 220.5q0 78 16.5 173t53.5 192.5t96 190t143.5 164t196.5 115t255 43.5z" />
    <glyph glyph-name="P" unicode="P" horiz-adv-x="1201" 
d="M304 0h-244l277 1338h335q189 0 291 -34q120 -40 174 -121t54 -189q0 -105 -41.5 -192.5t-121 -150.5t-196.5 -98t-269 -35q-77 0 -149 10zM456 732q51 -9 118 -9q94 0 164 19t116 53t69 82.5t23 106.5q0 47 -25 79t-67 49q-26 11 -66 16t-100 5h-149z" />
    <glyph glyph-name="Q" unicode="Q" horiz-adv-x="1454" 
d="M1076 166q205 36 297 36l-44 -214q-157 12 -289 12q-52 0 -109.5 -3.5t-101.5 -7t-97.5 -7t-89.5 -3.5q-115 0 -210.5 32t-163.5 95.5t-105.5 158.5t-37.5 220q0 97 20.5 200t62 201t104 184.5t147 151.5t191.5 103t236 38q118 0 214 -32.5t163.5 -97t104 -160
t36.5 -220.5q0 -104 -23 -204t-66 -189.5t-104 -163.5t-136 -127zM860 1156q-78 0 -145 -28t-121.5 -76.5t-96 -113.5t-70 -139t-43 -153t-14.5 -156q0 -152 78 -230t221 -78q79 0 145.5 28t121 76.5t96 113.5t70 139t43 153.5t14.5 155.5q0 152 -78 230t-221 78z" />
    <glyph glyph-name="R" unicode="R" horiz-adv-x="1223" 
d="M304 0h-244l277 1338h362q87 0 149.5 -6t109.5 -20q132 -38 193.5 -120t61.5 -193q0 -81 -22.5 -152t-71 -128t-124 -99t-181.5 -66v-4l297 -550h-270l-268 518h-162zM454 723h94q67 0 120 4.5t95 16.5q95 26 150 84.5t55 151.5q0 48 -22 84t-72 53q-24 8 -62 12t-95 4
h-178z" />
    <glyph glyph-name="S" unicode="S" horiz-adv-x="1153" 
d="M781 418q0 46 -24.5 75t-64 48t-91 33.5l-105.5 30.5q-63 20 -117.5 47t-94.5 66.5t-63 95.5t-23 130q0 94 34.5 171.5t98 132.5t153.5 85t201 30q118 0 234 -25.5t204 -63.5l-43 -203q-113 45 -201.5 65t-177.5 20q-119 0 -186 -50t-67 -134q0 -45 18 -76.5t48 -53
t70.5 -37t85.5 -29.5q65 -20 130 -43t117 -59.5t84 -93.5t32 -141q0 -109 -41.5 -195t-118 -146t-185.5 -91.5t-243 -31.5q-70 0 -134.5 9t-118 22.5t-94.5 30t-65 31.5l42 202q76 -37 171 -62.5t201 -25.5q76 0 137.5 16t105 45.5t67.5 74t24 100.5z" />
    <glyph glyph-name="T" unicode="T" horiz-adv-x="1161" 
d="M604 0h-244l235 1133h-420l41 205h1085l-42 -205h-420z" />
    <glyph glyph-name="U" unicode="U" horiz-adv-x="1349" 
d="M612 182q104 0 181.5 43.5t128.5 139.5q18 35 32.5 80t28.5 110l162 783h244l-172 -832q-16 -75 -32.5 -128t-38.5 -98q-33 -67 -81 -123.5t-115.5 -96.5t-156.5 -62.5t-204 -22.5q-126 0 -213.5 33t-142 89t-79 130t-24.5 156q0 48 6.5 93.5t16.5 92.5l159 769h244
l-164 -796q-8 -35 -12 -67t-4 -61q0 -48 12 -90t39.5 -73.5t72.5 -50t112 -18.5z" />
    <glyph glyph-name="V" unicode="V" horiz-adv-x="1274" 
d="M1144 1338h270l-738 -1338h-208l-253 1338h242l100 -570q45 -257 68 -410h6l212 410z" />
    <glyph glyph-name="W" unicode="W" horiz-adv-x="1854" 
d="M957 1338h261l18 -538q8 -270 6 -451h7q105 253 231 507l244 482h270l-696 -1338h-253l-13 474q-6 243 -5 499h-6q-65 -206 -180 -494l-193 -479h-249l-184 1338h250l58 -485q36 -312 49 -504h6q54 187 169 475z" />
    <glyph glyph-name="X" unicode="X" horiz-adv-x="1298" 
d="M738 865h4l417 473h299l-607 -679l314 -659h-262l-228 496h-4l-433 -496h-298l621 700l-303 638h261z" />
    <glyph glyph-name="Y" unicode="Y" horiz-adv-x="1162" 
d="M403 0l112 541l-320 797h251l220 -562l378 562h278l-564 -802l-111 -536h-244z" />
    <glyph glyph-name="Z" unicode="Z" horiz-adv-x="1228" 
d="M31 135l874 998h-665l42 205h996l-28 -136l-874 -997h697l-42 -205h-1031z" />
    <glyph glyph-name="Agrave" unicode="&#xc0;" horiz-adv-x="1326" 
d="M872 341h-475l-185 -341h-272l746 1338h228l272 -1338h-250zM509 546h325l-27 144q-33 173 -53 321h-6q-71 -158 -154 -309zM826 1656l87 -247h-182l-139 247h234zM276 1338z" />
    <glyph glyph-name="Aacute" unicode="&#xc1;" horiz-adv-x="1326" 
d="M872 341h-475l-185 -341h-272l746 1338h228l272 -1338h-250zM509 546h325l-27 144q-33 173 -53 321h-6q-71 -158 -154 -309zM1154 1656l-241 -247h-194l189 247h246zM442 1338z" />
    <glyph glyph-name="Acircumflex" unicode="&#xc2;" horiz-adv-x="1326" 
d="M872 341h-475l-185 -341h-272l746 1338h228l272 -1338h-250zM509 546h325l-27 144q-33 173 -53 321h-6q-71 -158 -154 -309zM757 1656h206l165 -247h-200l-84 126h-4l-137 -126h-213zM310 1338z" />
    <glyph glyph-name="Atilde" unicode="&#xc3;" horiz-adv-x="1326" 
d="M872 341h-475l-185 -341h-272l746 1338h228l272 -1338h-250zM509 546h325l-27 144q-33 173 -53 321h-6q-71 -158 -154 -309zM1195 1648q-6 -55 -24.5 -100t-47.5 -77.5t-68 -50t-86 -17.5q-41 0 -78 15t-69 34q-29 17 -54.5 30t-48.5 13q-28 0 -43.5 -19t-24.5 -65h-167
q6 55 24.5 100t47.5 77.5t68 50t86 17.5q40 0 78.5 -15.5t70.5 -34.5q29 -17 54 -29.5t47 -12.5q28 0 43.5 19t24.5 65h167zM310 1338z" />
    <glyph glyph-name="Adieresis" unicode="&#xc4;" horiz-adv-x="1326" 
d="M872 341h-475l-185 -341h-272l746 1338h228l272 -1338h-250zM509 546h325l-27 144q-33 173 -53 321h-6q-71 -158 -154 -309zM547 1673h224l-47 -225h-224zM959 1673h224l-47 -225h-224zM317 1338z" />
    <glyph glyph-name="Amacron" unicode="&#x100;" horiz-adv-x="1326" 
d="M872 341h-475l-185 -341h-272l746 1338h228l272 -1338h-250zM509 546h325l-27 144q-33 173 -53 321h-6q-71 -158 -154 -309zM566 1617h560l-35 -169h-560zM304 1338z" />
    <glyph glyph-name="Abreve" unicode="&#x102;" horiz-adv-x="1326" 
d="M872 341h-475l-185 -341h-272l746 1338h228l272 -1338h-250zM509 546h325l-27 144q-33 173 -53 321h-6q-71 -158 -154 -309zM827 1568q49 0 90 26.5t64 85.5h216q-21 -65 -56.5 -116.5t-85 -87.5t-112 -55t-137.5 -19t-130.5 19t-91 55t-48.5 79.5t-13 83.5q0 20 2 41
h196v-9q0 -53 28.5 -78t77.5 -25zM307 1338z" />
    <glyph glyph-name="Aring" unicode="&#xc5;" horiz-adv-x="1326" 
d="M872 341h-475l-185 -341h-272l746 1338h228l272 -1338h-250zM509 546h325l-27 144q-33 173 -53 321h-6q-71 -158 -154 -309zM860 1759q107 0 164.5 -46t57.5 -124q0 -39 -17.5 -78.5t-52 -71.5t-86 -52t-120.5 -20q-107 0 -164.5 46t-57.5 124q0 39 17.5 78.5t52 71.5
t86 52t120.5 20zM852 1648q-58 0 -90 -31t-32 -74q0 -30 20.5 -47.5t63.5 -17.5q58 0 90 31t32 74q0 30 -20.5 47.5t-63.5 17.5zM312 1338z" />
    <glyph glyph-name="Aringacute" unicode="&#x1fa;" horiz-adv-x="1326" 
d="M1189 1943l-230 -199h-157l177 199h210zM1072 1568q0 -36 -16.5 -73t-50 -66t-83.5 -47.5t-117 -18.5q-108 0 -163 39.5t-55 109.5q0 36 16.5 73t50 66t83.5 47.5t117 18.5q108 0 163 -39.5t55 -109.5zM930 1553q0 30 -22.5 44t-63.5 14q-57 0 -86 -24.5t-29 -59.5
q0 -30 22.5 -44t63.5 -14q57 0 86 24.5t29 59.5zM872 341h-475l-185 -341h-272l746 1338h228l272 -1338h-250zM509 546h325l-27 144q-33 173 -53 321h-6q-71 -158 -154 -309z" />
    <glyph glyph-name="Aogonek" unicode="&#x104;" horiz-adv-x="1326" 
d="M1186 0q-57 -29 -106 -61.5t-84 -66t-55 -70t-20 -69.5q0 -30 17 -44t49 -14q23 0 52 6.5t51 16.5l-33 -162q-26 -11 -64 -18.5t-74 -7.5q-43 0 -79.5 11t-62.5 32.5t-41 53t-15 71.5q0 46 16.5 91t45.5 86.5t68.5 78.5t84.5 66l-64 341h-475l-185 -341h-272l746 1338
h228zM509 546h325l-27 144q-33 173 -53 321h-6q-71 -158 -154 -309z" />
    <glyph glyph-name="AE" unicode="&#xc6;" horiz-adv-x="1879" 
d="M1111 205h644l-42 -205h-857l35 341h-452l-227 -341h-276l899 1338h1027l-43 -205h-612l-36 -346h526l-42 -205h-505zM575 546h337l61 587h-7z" />
    <glyph glyph-name="AEacute" unicode="&#x1fc;" horiz-adv-x="1879" 
d="M1111 205h644l-42 -205h-857l35 341h-452l-227 -341h-276l899 1338h1027l-43 -205h-612l-36 -346h526l-42 -205h-505zM575 546h337l61 587h-7zM1644 1656l-241 -247h-194l189 247h246zM932 1338z" />
    <glyph glyph-name="Cacute" unicode="&#x106;" horiz-adv-x="1185" 
d="M904 1156q-86 0 -161 -25t-134.5 -69t-104 -104t-74.5 -130.5t-45 -148t-15 -156.5q0 -101 27.5 -167t75.5 -104.5t112.5 -54t137.5 -15.5q80 -1 164.5 14.5t169.5 44.5l-44 -216q-81 -28 -174 -39t-168 -11q-121 0 -221.5 30.5t-172.5 94.5t-112 164t-40 238
q0 98 19.5 200t60 197.5t102 180t146.5 147.5t197 99.5t242 36.5q71 0 162.5 -13t170.5 -39l-41 -200q-75 22 -141 33.5t-139 11.5zM1223 1656l-241 -247h-194l189 247h246zM511 1338z" />
    <glyph glyph-name="Ccircumflex" unicode="&#x108;" horiz-adv-x="1185" 
d="M904 1156q-86 0 -161 -25t-134.5 -69t-104 -104t-74.5 -130.5t-45 -148t-15 -156.5q0 -101 27.5 -167t75.5 -104.5t112.5 -54t137.5 -15.5q80 -1 164.5 14.5t169.5 44.5l-44 -216q-81 -28 -174 -39t-168 -11q-121 0 -221.5 30.5t-172.5 94.5t-112 164t-40 238
q0 98 19.5 200t60 197.5t102 180t146.5 147.5t197 99.5t242 36.5q71 0 162.5 -13t170.5 -39l-41 -200q-75 22 -141 33.5t-139 11.5zM818 1656h206l165 -247h-200l-84 126h-4l-137 -126h-213zM371 1338z" />
    <glyph glyph-name="Ccaron" unicode="&#x10c;" horiz-adv-x="1185" 
d="M904 1156q-86 0 -161 -25t-134.5 -69t-104 -104t-74.5 -130.5t-45 -148t-15 -156.5q0 -101 27.5 -167t75.5 -104.5t112.5 -54t137.5 -15.5q80 -1 164.5 14.5t169.5 44.5l-44 -216q-81 -28 -174 -39t-168 -11q-121 0 -221.5 30.5t-172.5 94.5t-112 164t-40 238
q0 98 19.5 200t60 197.5t102 180t146.5 147.5t197 99.5t242 36.5q71 0 162.5 -13t170.5 -39l-41 -200q-75 22 -141 33.5t-139 11.5zM983 1410h-206l-165 247h198l84 -126h4l137 126h215zM381 1338z" />
    <glyph glyph-name="Cdotaccent" unicode="&#x10a;" horiz-adv-x="1185" 
d="M904 1156q-86 0 -161 -25t-134.5 -69t-104 -104t-74.5 -130.5t-45 -148t-15 -156.5q0 -101 27.5 -167t75.5 -104.5t112.5 -54t137.5 -15.5q80 -1 164.5 14.5t169.5 44.5l-44 -216q-81 -28 -174 -39t-168 -11q-121 0 -221.5 30.5t-172.5 94.5t-112 164t-40 238
q0 98 19.5 200t60 197.5t102 180t146.5 147.5t197 99.5t242 36.5q71 0 162.5 -13t170.5 -39l-41 -200q-75 22 -141 33.5t-139 11.5zM764 1448l52 257h248l-52 -257h-248zM392 1338z" />
    <glyph glyph-name="Ccedilla" unicode="&#xc7;" horiz-adv-x="1185" 
d="M904 1156q-88 0 -162 -25t-133.5 -69t-104 -104t-74.5 -131t-45 -148t-15 -156q0 -101 27.5 -167t75.5 -104.5t112.5 -54t137.5 -15.5q84 0 166.5 15.5t167.5 43.5l-44 -216q-131 -45 -325 -50l-35 -93q48 -5 81 -18t53.5 -33.5t30 -46.5t9.5 -56q0 -47 -23.5 -87
t-66.5 -69t-103.5 -45.5t-134.5 -16.5q-39 0 -79.5 6t-61.5 15l29 142q44 -15 108 -15q69 0 106.5 21t37.5 51q1 56 -170 55l74 199q-95 14 -172 52t-132 101.5t-84.5 154t-29.5 210.5q0 98 19.5 200t60 197.5t102 180t146.5 147.5t194.5 99.5t242.5 36.5q42 0 87.5 -4
t89.5 -11t84.5 -16.5t73.5 -20.5l-41 -200q-64 19 -132 32t-148 13z" />
    <glyph glyph-name="Dcaron" unicode="&#x10e;" horiz-adv-x="1381" 
d="M346 205h151q94 0 165 16.5t129 46.5q76 39 132 98t94 131t57.5 154t21.5 166q2 110 -35 180t-118 104q-39 17 -91 24.5t-127 7.5h-186zM736 1338q103 0 180 -12.5t139 -37.5q74 -30 128 -75t89 -103t52 -127.5t17 -147.5q0 -49 -8.5 -114t-29.5 -137t-56.5 -146.5
t-90 -143.5t-130 -128t-176.5 -99q-79 -31 -177 -49t-231 -18h-382l277 1338h399zM891 1410h-206l-165 247h198l84 -126h4l137 126h215zM289 1338z" />
    <glyph glyph-name="Dcroat" unicode="&#x110;" horiz-adv-x="1433" 
d="M113 787h162l114 551h399q103 0 180 -12.5t139 -37.5q74 -30 128 -75t89 -103t52 -127.5t17 -147.5q0 -49 -8.5 -114t-29.5 -137t-56.5 -146.5t-90 -143.5t-130 -128t-176.5 -99q-79 -31 -177 -49t-231 -18h-382l120 582h-162zM519 787h332l-42 -205h-333l-78 -377h151
q94 0 165 16.5t129 46.5q76 39 132 98t94 131t57.5 154t21.5 166q2 110 -35 180t-118 104q-39 17 -91 24.5t-127 7.5h-186z" />
    <glyph glyph-name="Egrave" unicode="&#xc8;" horiz-adv-x="1116" 
d="M346 205h631l-42 -205h-875l277 1338h839l-43 -205h-594l-72 -346h510l-42 -205h-510zM768 1656l87 -247h-182l-139 247h234zM218 1338z" />
    <glyph glyph-name="Eacute" unicode="&#xc9;" horiz-adv-x="1116" 
d="M346 205h631l-42 -205h-875l277 1338h839l-43 -205h-594l-72 -346h510l-42 -205h-510zM1072 1656l-241 -247h-194l189 247h246zM360 1338z" />
    <glyph glyph-name="Ecircumflex" unicode="&#xca;" horiz-adv-x="1116" 
d="M346 205h631l-42 -205h-875l277 1338h839l-43 -205h-594l-72 -346h510l-42 -205h-510zM706 1656h206l165 -247h-200l-84 126h-4l-137 -126h-213zM259 1338z" />
    <glyph glyph-name="Ecaron" unicode="&#x11a;" horiz-adv-x="1116" 
d="M346 205h631l-42 -205h-875l277 1338h839l-43 -205h-594l-72 -346h510l-42 -205h-510zM861 1410h-206l-165 247h198l84 -126h4l137 126h215zM259 1338z" />
    <glyph glyph-name="Edieresis" unicode="&#xcb;" horiz-adv-x="1116" 
d="M346 205h631l-42 -205h-875l277 1338h839l-43 -205h-594l-72 -346h510l-42 -205h-510zM486 1673h224l-47 -225h-224zM898 1673h224l-47 -225h-224zM256 1338z" />
    <glyph glyph-name="Emacron" unicode="&#x112;" horiz-adv-x="1116" 
d="M346 205h631l-42 -205h-875l277 1338h839l-43 -205h-594l-72 -346h510l-42 -205h-510zM517 1617h560l-35 -169h-560zM255 1338z" />
    <glyph glyph-name="Ebreve" unicode="&#x114;" horiz-adv-x="1116" 
d="M346 205h631l-42 -205h-875l277 1338h839l-43 -205h-594l-72 -346h510l-42 -205h-510zM777 1568q49 0 90 26.5t64 85.5h216q-21 -65 -56.5 -116.5t-85 -87.5t-112 -55t-137.5 -19t-130.5 19t-91 55t-48.5 79.5t-13 83.5q0 20 2 41h196v-9q0 -53 28.5 -78t77.5 -25z
M257 1338z" />
    <glyph glyph-name="Edotaccent" unicode="&#x116;" horiz-adv-x="1116" 
d="M346 205h631l-42 -205h-875l277 1338h839l-43 -205h-594l-72 -346h510l-42 -205h-510zM632 1448l52 257h248l-52 -257h-248zM260 1338z" />
    <glyph glyph-name="Eogonek" unicode="&#x118;" horiz-adv-x="1116" 
d="M935 0l-88 -65.5t-73.5 -65t-50.5 -67.5t-19 -69q0 -30 17 -44t49 -14q23 0 52 6.5t51 16.5l-33 -162q-26 -11 -64 -18.5t-74 -7.5q-43 0 -79.5 11t-62.5 32.5t-41 53t-15 71.5q0 46 16.5 90.5t45.5 85t68.5 77t84.5 65.5v4h-659l277 1338h839l-43 -205h-594l-72 -346
h510l-42 -205h-510l-79 -377h631z" />
    <glyph glyph-name="Gcircumflex" unicode="&#x11c;" horiz-adv-x="1389" 
d="M931 1363q105 0 200 -18.5t169 -46.5l-42 -202q-84 31 -159.5 45.5t-150.5 14.5q-96 0 -179 -25t-147 -69.5t-111.5 -105t-78.5 -131.5t-46.5 -149t-15.5 -157q0 -167 72 -252t216 -85q66 0 123.5 14.5t102 46t75.5 81.5t45 120l13 67h-299l42 205h544l-62 -299
q-27 -129 -85 -214t-138.5 -135.5t-178.5 -71.5t-205 -21q-111 0 -204.5 34t-161.5 100.5t-106 165t-38 227.5q0 119 24.5 229.5t72 206t117 174t159 134.5t198.5 86.5t235 30.5zM851 1656h206l165 -247h-200l-84 126h-4l-137 -126h-213zM404 1338z" />
    <glyph glyph-name="Gbreve" unicode="&#x11e;" horiz-adv-x="1389" 
d="M931 1363q105 0 200 -18.5t169 -46.5l-42 -202q-84 31 -159.5 45.5t-150.5 14.5q-96 0 -179 -25t-147 -69.5t-111.5 -105t-78.5 -131.5t-46.5 -149t-15.5 -157q0 -167 72 -252t216 -85q66 0 123.5 14.5t102 46t75.5 81.5t45 120l13 67h-299l42 205h544l-62 -299
q-27 -129 -85 -214t-138.5 -135.5t-178.5 -71.5t-205 -21q-111 0 -204.5 34t-161.5 100.5t-106 165t-38 227.5q0 119 24.5 229.5t72 206t117 174t159 134.5t198.5 86.5t235 30.5zM883 1568q49 0 90 26.5t64 85.5h216q-21 -65 -56.5 -116.5t-85 -87.5t-112 -55t-137.5 -19
t-130.5 19t-91 55t-48.5 79.5t-13 83.5q0 20 2 41h196v-9q0 -53 28.5 -78t77.5 -25zM363 1338z" />
    <glyph glyph-name="Gdotaccent" unicode="&#x120;" horiz-adv-x="1389" 
d="M931 1363q105 0 200 -18.5t169 -46.5l-42 -202q-84 31 -159.5 45.5t-150.5 14.5q-96 0 -179 -25t-147 -69.5t-111.5 -105t-78.5 -131.5t-46.5 -149t-15.5 -157q0 -167 72 -252t216 -85q66 0 123.5 14.5t102 46t75.5 81.5t45 120l13 67h-299l42 205h544l-62 -299
q-27 -129 -85 -214t-138.5 -135.5t-178.5 -71.5t-205 -21q-111 0 -204.5 34t-161.5 100.5t-106 165t-38 227.5q0 119 24.5 229.5t72 206t117 174t159 134.5t198.5 86.5t235 30.5zM760 1448l52 257h248l-52 -257h-248zM388 1338z" />
    <glyph glyph-name="Gcommaaccent" unicode="&#x122;" horiz-adv-x="1389" 
d="M931 1363q105 0 200 -18.5t169 -46.5l-42 -202q-84 31 -159.5 45.5t-150.5 14.5q-96 0 -179 -25t-147 -69.5t-111.5 -105t-78.5 -131.5t-46.5 -149t-15.5 -157q0 -167 72 -252t216 -85q66 0 123.5 14.5t102 46t75.5 81.5t45 120l13 67h-299l42 205h544l-62 -299
q-27 -129 -85 -214t-138.5 -135.5t-178.5 -71.5t-205 -21q-111 0 -204.5 34t-161.5 100.5t-106 165t-38 227.5q0 119 24.5 229.5t72 206t117 174t159 134.5t198.5 86.5t235 30.5zM575 -332q0 54 -67 54l35 169q17 1 32 1q53 0 90.5 -11.5t61.5 -32.5t35 -49.5t11 -62.5
q0 -60 -29.5 -114.5t-80.5 -111.5h-184q19 21 36 42t30.5 41t21.5 39t8 36z" />
    <glyph glyph-name="Hcircumflex" unicode="&#x124;" horiz-adv-x="1362" 
d="M467 787h571l114 551h244l-277 -1338h-244l121 582h-571l-121 -582h-244l277 1338h244zM817 1656h206l165 -247h-200l-84 126h-4l-137 -126h-213zM370 1338z" />
    <glyph glyph-name="Hbar" unicode="&#x126;" horiz-adv-x="1362" 
d="M155 1175h148l34 163h244l-34 -163h571l34 163h244l-34 -163h147l-41 -197h-147l-202 -978h-244l121 582h-571l-121 -582h-244l202 978h-148zM1038 787l39 191h-571l-39 -191h571z" />
    <glyph glyph-name="Igrave" unicode="&#xcc;" horiz-adv-x="551" 
d="M60 0l277 1338h244l-277 -1338h-244zM512 1656l87 -247h-182l-139 247h234zM-38 1338z" />
    <glyph glyph-name="Iacute" unicode="&#xcd;" horiz-adv-x="551" 
d="M60 0l277 1338h244l-277 -1338h-244zM788 1656l-241 -247h-194l189 247h246zM76 1338z" />
    <glyph glyph-name="Icircumflex" unicode="&#xce;" horiz-adv-x="551" 
d="M60 0l277 1338h244l-277 -1338h-244zM417 1656h206l165 -247h-200l-84 126h-4l-137 -126h-213zM-30 1338z" />
    <glyph glyph-name="Itilde" unicode="&#x128;" horiz-adv-x="551" 
d="M60 0l277 1338h244l-277 -1338h-244zM849 1648q-6 -55 -24.5 -100t-47.5 -77.5t-68 -50t-86 -17.5q-41 0 -78 15t-69 34q-29 17 -54.5 30t-48.5 13q-28 0 -43.5 -19t-24.5 -65h-167q6 55 24.5 100t47.5 77.5t68 50t86 17.5q40 0 78.5 -15.5t70.5 -34.5q29 -17 54 -29.5
t47 -12.5q28 0 43.5 19t24.5 65h167zM-36 1338z" />
    <glyph glyph-name="Idieresis" unicode="&#xcf;" horiz-adv-x="551" 
d="M60 0l277 1338h244l-277 -1338h-244zM215 1673h224l-47 -225h-224zM627 1673h224l-47 -225h-224zM-15 1338z" />
    <glyph glyph-name="Imacron" unicode="&#x12a;" horiz-adv-x="551" 
d="M60 0l277 1338h244l-277 -1338h-244zM232 1617h560l-35 -169h-560zM-30 1338z" />
    <glyph glyph-name="Ibreve" unicode="&#x12c;" horiz-adv-x="551" 
d="M60 0l277 1338h244l-277 -1338h-244zM491 1568q49 0 90 26.5t64 85.5h216q-21 -65 -56.5 -116.5t-85 -87.5t-112 -55t-137.5 -19t-130.5 19t-91 55t-48.5 79.5t-13 83.5q0 20 2 41h196v-9q0 -53 28.5 -78t77.5 -25zM-29 1338z" />
    <glyph glyph-name="Idotaccent" unicode="&#x130;" horiz-adv-x="551" 
d="M60 0l277 1338h244l-277 -1338h-244zM360 1448l52 257h248l-52 -257h-248zM-12 1338z" />
    <glyph glyph-name="Iogonek" unicode="&#x12e;" horiz-adv-x="551" 
d="M304 0q-45 -24 -85.5 -55.5t-70.5 -66t-48 -72t-18 -73.5q0 -31 17 -44.5t49 -13.5q23 0 52 6.5t51 16.5l-33 -162q-26 -11 -64 -18.5t-74 -7.5q-49 0 -86 13t-62.5 37t-37.5 57t-12 72q0 52 17.5 99t43.5 86.5t57.5 71.5t59.5 54l277 1338h244z" />
    <glyph glyph-name="IJ" unicode="&#x132;" horiz-adv-x="1321" 
d="M60 0l277 1338h244l-277 -1338h-244zM1106 1338h244l-218 -1049q-13 -63 -32 -107t-47 -77q-53 -64 -137.5 -97t-199.5 -33q-66 0 -118 10.5t-97 27.5l42 202q38 -15 75.5 -24t84.5 -9q35 0 66.5 8.5t57.5 27.5t45 49.5t28 73.5z" />
    <glyph glyph-name="Jcircumflex" unicode="&#x134;" horiz-adv-x="799" 
d="M585 1338h244l-218 -1049q-13 -63 -32 -107t-47 -77q-53 -64 -137.5 -97t-199.5 -33q-66 0 -118 10.5t-97 27.5l42 202q38 -15 75.5 -24t84.5 -9q35 0 66.5 8.5t57.5 27.5t45 49.5t28 73.5zM661 1656h206l165 -247h-200l-84 126h-4l-137 -126h-213zM214 1338z" />
    <glyph glyph-name="Kcommaaccent" unicode="&#x136;" horiz-adv-x="1198" 
d="M60 0l277 1338h244l-123 -595h4l554 595h302l-639 -673l425 -665h-281l-387 618h-4l-128 -618h-244zM476 -332q0 54 -67 54l35 169q17 1 32 1q53 0 90.5 -11.5t61.5 -32.5t35 -49.5t11 -62.5q0 -60 -29.5 -114.5t-80.5 -111.5h-184q19 21 36 42t30.5 41t21.5 39t8 36z
" />
    <glyph glyph-name="Lacute" unicode="&#x139;" horiz-adv-x="1102" 
d="M346 205h631l-42 -205h-875l277 1338h244zM796 1656l-241 -247h-194l189 247h246zM84 1338z" />
    <glyph glyph-name="Lcaron" unicode="&#x13d;" horiz-adv-x="1102" 
d="M346 205h631l-42 -205h-875l277 1338h244zM786 1120q0 54 -67 54l35 169q16 1 20 1h12q52 0 90 -11.5t62 -32.5t35 -49.5t11 -62.5q0 -58 -29.5 -113.5t-80.5 -112.5h-184q19 21 36 42t30.5 41t21.5 39.5t8 35.5z" />
    <glyph glyph-name="Lcommaaccent" unicode="&#x13b;" horiz-adv-x="1102" 
d="M346 205h631l-42 -205h-875l277 1338h244zM416 -332q0 54 -67 54l35 169q17 1 32 1q53 0 90.5 -11.5t61.5 -32.5t35 -49.5t11 -62.5q0 -60 -29.5 -114.5t-80.5 -111.5h-184q19 21 36 42t30.5 41t21.5 39t8 36z" />
    <glyph glyph-name="Lslash" unicode="&#x141;" horiz-adv-x="1102" 
d="M758 703l-332 -112l-80 -386h631l-42 -205h-875l105 508l-148 -49l48 234l148 50l124 595h244l-107 -512l332 111z" />
    <glyph glyph-name="Ldot" unicode="&#x13f;" horiz-adv-x="1102" 
d="M346 205h631l-42 -205h-875l277 1338h244zM661 619l52 257h248l-52 -257h-248zM289 509z" />
    <glyph glyph-name="Nacute" unicode="&#x143;" horiz-adv-x="1418" 
d="M934 0l-275 593q-101 216 -161 385h-6q-19 -166 -64 -381l-124 -597h-244l277 1338h237l275 -593q101 -215 161 -385h6q13 131 64 381l124 597h244l-277 -1338h-237zM1211 1656l-241 -247h-194l189 247h246zM499 1338z" />
    <glyph glyph-name="Ncaron" unicode="&#x147;" horiz-adv-x="1418" 
d="M934 0l-275 593q-101 216 -161 385h-6q-19 -166 -64 -381l-124 -597h-244l277 1338h237l275 -593q101 -215 161 -385h6q13 131 64 381l124 597h244l-277 -1338h-237zM985 1410h-206l-165 247h198l84 -126h4l137 126h215zM383 1338z" />
    <glyph glyph-name="Ntilde" unicode="&#xd1;" horiz-adv-x="1418" 
d="M934 0l-275 593q-101 216 -161 385h-6q-19 -166 -64 -381l-124 -597h-244l277 1338h237l275 -593q101 -215 161 -385h6q13 131 64 381l124 597h244l-277 -1338h-237zM1275 1648q-6 -55 -24.5 -100t-47.5 -77.5t-68 -50t-86 -17.5q-41 0 -78 15t-69 34q-29 17 -54.5 30
t-48.5 13q-28 0 -43.5 -19t-24.5 -65h-167q6 55 24.5 100t47.5 77.5t68 50t86 17.5q40 0 78.5 -15.5t70.5 -34.5q29 -17 54 -29.5t47 -12.5q28 0 43.5 19t24.5 65h167zM390 1338z" />
    <glyph glyph-name="Ncommaaccent" unicode="&#x145;" horiz-adv-x="1418" 
d="M934 0l-275 593q-101 216 -161 385h-6q-19 -166 -64 -381l-124 -597h-244l277 1338h237l275 -593q101 -215 161 -385h6q13 131 64 381l124 597h244l-277 -1338h-237zM555 -332q0 54 -67 54l35 169q17 1 32 1q53 0 90.5 -11.5t61.5 -32.5t35 -49.5t11 -62.5
q0 -60 -29.5 -114.5t-80.5 -111.5h-184q19 21 36 42t30.5 41t21.5 39t8 36z" />
    <glyph glyph-name="Ograve" unicode="&#xd2;" horiz-adv-x="1444" 
d="M869 1156q-81 0 -149 -28t-123.5 -76.5t-98 -113.5t-71 -139t-43 -153.5t-14.5 -155.5t20 -133.5t57.5 -96.5t91.5 -58.5t121 -19.5q81 0 149 28t123.5 76.5t98 113.5t71 139t43 153.5t14.5 155.5q0 152 -77.5 230t-212.5 78zM886 1363q117 0 212.5 -32.5t163.5 -97
t105 -160t37 -220.5q0 -78 -16.5 -173t-53.5 -192.5t-96 -190t-143.5 -164t-196.5 -115t-255 -43.5q-117 0 -212.5 32.5t-163.5 97t-105 160t-37 220.5q0 78 16.5 173t53.5 192.5t96 190t143.5 164t196.5 115t255 43.5zM913 1656l87 -247h-182l-139 247h234zM363 1338z" />
    <glyph glyph-name="Oacute" unicode="&#xd3;" horiz-adv-x="1444" 
d="M869 1156q-81 0 -149 -28t-123.5 -76.5t-98 -113.5t-71 -139t-43 -153.5t-14.5 -155.5t20 -133.5t57.5 -96.5t91.5 -58.5t121 -19.5q81 0 149 28t123.5 76.5t98 113.5t71 139t43 153.5t14.5 155.5q0 152 -77.5 230t-212.5 78zM886 1363q117 0 212.5 -32.5t163.5 -97
t105 -160t37 -220.5q0 -78 -16.5 -173t-53.5 -192.5t-96 -190t-143.5 -164t-196.5 -115t-255 -43.5q-117 0 -212.5 32.5t-163.5 97t-105 160t-37 220.5q0 78 16.5 173t53.5 192.5t96 190t143.5 164t196.5 115t255 43.5zM1251 1656l-241 -247h-194l189 247h246zM539 1338z
" />
    <glyph glyph-name="Ocircumflex" unicode="&#xd4;" horiz-adv-x="1444" 
d="M869 1156q-81 0 -149 -28t-123.5 -76.5t-98 -113.5t-71 -139t-43 -153.5t-14.5 -155.5t20 -133.5t57.5 -96.5t91.5 -58.5t121 -19.5q81 0 149 28t123.5 76.5t98 113.5t71 139t43 153.5t14.5 155.5q0 152 -77.5 230t-212.5 78zM886 1363q117 0 212.5 -32.5t163.5 -97
t105 -160t37 -220.5q0 -78 -16.5 -173t-53.5 -192.5t-96 -190t-143.5 -164t-196.5 -115t-255 -43.5q-117 0 -212.5 32.5t-163.5 97t-105 160t-37 220.5q0 78 16.5 173t53.5 192.5t96 190t143.5 164t196.5 115t255 43.5zM852 1656h206l165 -247h-200l-84 126h-4l-137 -126
h-213zM405 1338z" />
    <glyph glyph-name="Otilde" unicode="&#xd5;" horiz-adv-x="1444" 
d="M869 1156q-81 0 -149 -28t-123.5 -76.5t-98 -113.5t-71 -139t-43 -153.5t-14.5 -155.5t20 -133.5t57.5 -96.5t91.5 -58.5t121 -19.5q81 0 149 28t123.5 76.5t98 113.5t71 139t43 153.5t14.5 155.5q0 152 -77.5 230t-212.5 78zM886 1363q117 0 212.5 -32.5t163.5 -97
t105 -160t37 -220.5q0 -78 -16.5 -173t-53.5 -192.5t-96 -190t-143.5 -164t-196.5 -115t-255 -43.5q-117 0 -212.5 32.5t-163.5 97t-105 160t-37 220.5q0 78 16.5 173t53.5 192.5t96 190t143.5 164t196.5 115t255 43.5zM1295 1648q-6 -55 -24.5 -100t-47.5 -77.5t-68 -50
t-86 -17.5q-41 0 -78 15t-69 34q-29 17 -54.5 30t-48.5 13q-28 0 -43.5 -19t-24.5 -65h-167q6 55 24.5 100t47.5 77.5t68 50t86 17.5q40 0 78.5 -15.5t70.5 -34.5q29 -17 54 -29.5t47 -12.5q28 0 43.5 19t24.5 65h167zM410 1338z" />
    <glyph glyph-name="Odieresis" unicode="&#xd6;" horiz-adv-x="1444" 
d="M869 1156q-81 0 -149 -28t-123.5 -76.5t-98 -113.5t-71 -139t-43 -153.5t-14.5 -155.5t20 -133.5t57.5 -96.5t91.5 -58.5t121 -19.5q81 0 149 28t123.5 76.5t98 113.5t71 139t43 153.5t14.5 155.5q0 152 -77.5 230t-212.5 78zM886 1363q117 0 212.5 -32.5t163.5 -97
t105 -160t37 -220.5q0 -78 -16.5 -173t-53.5 -192.5t-96 -190t-143.5 -164t-196.5 -115t-255 -43.5q-117 0 -212.5 32.5t-163.5 97t-105 160t-37 220.5q0 78 16.5 173t53.5 192.5t96 190t143.5 164t196.5 115t255 43.5zM648 1673h224l-47 -225h-224zM1060 1673h224l-47 -225
h-224zM418 1338z" />
    <glyph glyph-name="Omacron" unicode="&#x14c;" horiz-adv-x="1444" 
d="M869 1156q-81 0 -149 -28t-123.5 -76.5t-98 -113.5t-71 -139t-43 -153.5t-14.5 -155.5t20 -133.5t57.5 -96.5t91.5 -58.5t121 -19.5q81 0 149 28t123.5 76.5t98 113.5t71 139t43 153.5t14.5 155.5q0 152 -77.5 230t-212.5 78zM886 1363q117 0 212.5 -32.5t163.5 -97
t105 -160t37 -220.5q0 -78 -16.5 -173t-53.5 -192.5t-96 -190t-143.5 -164t-196.5 -115t-255 -43.5q-117 0 -212.5 32.5t-163.5 97t-105 160t-37 220.5q0 78 16.5 173t53.5 192.5t96 190t143.5 164t196.5 115t255 43.5zM669 1617h560l-35 -169h-560zM407 1338z" />
    <glyph glyph-name="Obreve" unicode="&#x14e;" horiz-adv-x="1444" 
d="M869 1156q-81 0 -149 -28t-123.5 -76.5t-98 -113.5t-71 -139t-43 -153.5t-14.5 -155.5t20 -133.5t57.5 -96.5t91.5 -58.5t121 -19.5q81 0 149 28t123.5 76.5t98 113.5t71 139t43 153.5t14.5 155.5q0 152 -77.5 230t-212.5 78zM886 1363q117 0 212.5 -32.5t163.5 -97
t105 -160t37 -220.5q0 -78 -16.5 -173t-53.5 -192.5t-96 -190t-143.5 -164t-196.5 -115t-255 -43.5q-117 0 -212.5 32.5t-163.5 97t-105 160t-37 220.5q0 78 16.5 173t53.5 192.5t96 190t143.5 164t196.5 115t255 43.5zM946 1568q49 0 90 26.5t64 85.5h216
q-21 -65 -56.5 -116.5t-85 -87.5t-112 -55t-137.5 -19t-130.5 19t-91 55t-48.5 79.5t-13 83.5q0 20 2 41h196v-9q0 -53 28.5 -78t77.5 -25zM426 1338z" />
    <glyph glyph-name="Ohungarumlaut" unicode="&#x150;" horiz-adv-x="1444" 
d="M869 1156q-81 0 -149 -28t-123.5 -76.5t-98 -113.5t-71 -139t-43 -153.5t-14.5 -155.5t20 -133.5t57.5 -96.5t91.5 -58.5t121 -19.5q81 0 149 28t123.5 76.5t98 113.5t71 139t43 153.5t14.5 155.5q0 152 -77.5 230t-212.5 78zM886 1363q117 0 212.5 -32.5t163.5 -97
t105 -160t37 -220.5q0 -78 -16.5 -173t-53.5 -192.5t-96 -190t-143.5 -164t-196.5 -115t-255 -43.5q-117 0 -212.5 32.5t-163.5 97t-105 160t-37 220.5q0 78 16.5 173t53.5 192.5t96 190t143.5 164t196.5 115t255 43.5zM1084 1656l-241 -247h-182l189 247h234zM1411 1656
l-258 -247h-186l206 247h238zM508 1338z" />
    <glyph glyph-name="Oslash" unicode="&#xd8;" horiz-adv-x="1444" 
d="M191 -25l-137 137l122 119q-25 53 -38 116t-13 138q0 78 16.5 173t53.5 192.5t96 190t143.5 164t196.5 115t255 43.5q105 0 192 -26t153 -78l106 104l137 -137l-122 -119q52 -107 52 -254q0 -78 -16.5 -173t-53.5 -192.5t-96 -190t-143.5 -164t-196.5 -115t-255 -43.5
q-106 0 -193 26t-153 78zM669 182q79 0 146 28t122 76.5t97.5 113.5t71.5 139t44 153.5t15 155.5q0 32 -5 72l-696 -679q76 -59 205 -59zM860 1156q-78 0 -145.5 -28t-122.5 -76.5t-97.5 -113.5t-71.5 -139t-44 -153.5t-15 -155.5q0 -42 5 -71l695 678q-76 59 -204 59z" />
    <glyph glyph-name="Oslashacute" unicode="&#x1fe;" horiz-adv-x="1444" 
d="M191 -25l-137 137l122 119q-25 53 -38 116t-13 138q0 78 16.5 173t53.5 192.5t96 190t143.5 164t196.5 115t255 43.5q105 0 192 -26t153 -78l106 104l137 -137l-122 -119q52 -107 52 -254q0 -78 -16.5 -173t-53.5 -192.5t-96 -190t-143.5 -164t-196.5 -115t-255 -43.5
q-106 0 -193 26t-153 78zM669 182q79 0 146 28t122 76.5t97.5 113.5t71.5 139t44 153.5t15 155.5q0 32 -5 72l-696 -679q76 -59 205 -59zM860 1156q-78 0 -145.5 -28t-122.5 -76.5t-97.5 -113.5t-71.5 -139t-44 -153.5t-15 -155.5q0 -42 5 -71l695 678q-76 59 -204 59z
M1259 1656l-241 -247h-194l189 247h246zM547 1338z" />
    <glyph glyph-name="OE" unicode="&#x152;" horiz-adv-x="2057" 
d="M612 -25q-105 0 -194.5 32.5t-154.5 97t-101.5 160t-36.5 220.5q0 78 17 173t53 192.5t93.5 190t139 164t189 115t239.5 43.5q263 0 384 -188h4l34 163h839l-43 -205h-594l-72 -346h510l-42 -205h-510l-79 -377h631l-42 -205h-875l29 141h-4q-78 -75 -180 -120.5
t-234 -45.5zM863 1156q-79 0 -146.5 -28t-122.5 -76.5t-97 -113.5t-70 -139t-42.5 -153.5t-14.5 -155.5t20 -133.5t56 -96.5t87.5 -58.5t114.5 -19.5q83 0 153 28t127 76.5t100 113.5t72 139t44 153.5t15 155.5t-22 133.5t-61 96.5t-93.5 58.5t-119.5 19.5z" />
    <glyph glyph-name="Racute" unicode="&#x154;" horiz-adv-x="1223" 
d="M304 0h-244l277 1338h362q87 0 149.5 -6t109.5 -20q132 -38 193.5 -120t61.5 -193q0 -81 -22.5 -152t-71 -128t-124 -99t-181.5 -66v-4l297 -550h-270l-268 518h-162zM454 723h94q67 0 120 4.5t95 16.5q95 26 150 84.5t55 151.5q0 48 -22 84t-72 53q-24 8 -62 12t-95 4
h-178zM1077 1656l-241 -247h-194l189 247h246zM365 1338z" />
    <glyph glyph-name="Rcaron" unicode="&#x158;" horiz-adv-x="1223" 
d="M304 0h-244l277 1338h362q87 0 149.5 -6t109.5 -20q132 -38 193.5 -120t61.5 -193q0 -81 -22.5 -152t-71 -128t-124 -99t-181.5 -66v-4l297 -550h-270l-268 518h-162zM454 723h94q67 0 120 4.5t95 16.5q95 26 150 84.5t55 151.5q0 48 -22 84t-72 53q-24 8 -62 12t-95 4
h-178zM855 1410h-206l-165 247h198l84 -126h4l137 126h215zM253 1338z" />
    <glyph glyph-name="Rcommaaccent" unicode="&#x156;" horiz-adv-x="1223" 
d="M304 0h-244l277 1338h362q87 0 149.5 -6t109.5 -20q132 -38 193.5 -120t61.5 -193q0 -81 -22.5 -152t-71 -128t-124 -99t-181.5 -66v-4l297 -550h-270l-268 518h-162zM454 723h94q67 0 120 4.5t95 16.5q95 26 150 84.5t55 151.5q0 48 -22 84t-72 53q-24 8 -62 12t-95 4
h-178zM486 -332q0 54 -67 54l35 169q17 1 32 1q53 0 90.5 -11.5t61.5 -32.5t35 -49.5t11 -62.5q0 -60 -29.5 -114.5t-80.5 -111.5h-184q19 21 36 42t30.5 41t21.5 39t8 36z" />
    <glyph glyph-name="Sacute" unicode="&#x15a;" horiz-adv-x="1153" 
d="M781 418q0 46 -24.5 75t-64 48t-91 33.5l-105.5 30.5q-63 20 -117.5 47t-94.5 66.5t-63 95.5t-23 130q0 94 34.5 171.5t98 132.5t153.5 85t201 30q118 0 234 -25.5t204 -63.5l-43 -203q-113 45 -201.5 65t-177.5 20q-119 0 -186 -50t-67 -134q0 -45 18 -76.5t48 -53
t70.5 -37t85.5 -29.5q65 -20 130 -43t117 -59.5t84 -93.5t32 -141q0 -109 -41.5 -195t-118 -146t-185.5 -91.5t-243 -31.5q-70 0 -134.5 9t-118 22.5t-94.5 30t-65 31.5l42 202q76 -37 171 -62.5t201 -25.5q76 0 137.5 16t105 45.5t67.5 74t24 100.5zM1037 1656l-241 -247
h-194l189 247h246zM325 1338z" />
    <glyph glyph-name="Scircumflex" unicode="&#x15c;" horiz-adv-x="1153" 
d="M781 418q0 46 -24.5 75t-64 48t-91 33.5l-105.5 30.5q-63 20 -117.5 47t-94.5 66.5t-63 95.5t-23 130q0 94 34.5 171.5t98 132.5t153.5 85t201 30q118 0 234 -25.5t204 -63.5l-43 -203q-113 45 -201.5 65t-177.5 20q-119 0 -186 -50t-67 -134q0 -45 18 -76.5t48 -53
t70.5 -37t85.5 -29.5q65 -20 130 -43t117 -59.5t84 -93.5t32 -141q0 -109 -41.5 -195t-118 -146t-185.5 -91.5t-243 -31.5q-70 0 -134.5 9t-118 22.5t-94.5 30t-65 31.5l42 202q76 -37 171 -62.5t201 -25.5q76 0 137.5 16t105 45.5t67.5 74t24 100.5zM681 1656h206l165 -247
h-200l-84 126h-4l-137 -126h-213zM234 1338z" />
    <glyph glyph-name="Scaron" unicode="&#x160;" horiz-adv-x="1153" 
d="M781 418q0 46 -24.5 75t-64 48t-91 33.5l-105.5 30.5q-63 20 -117.5 47t-94.5 66.5t-63 95.5t-23 130q0 94 34.5 171.5t98 132.5t153.5 85t201 30q118 0 234 -25.5t204 -63.5l-43 -203q-113 45 -201.5 65t-177.5 20q-119 0 -186 -50t-67 -134q0 -45 18 -76.5t48 -53
t70.5 -37t85.5 -29.5q65 -20 130 -43t117 -59.5t84 -93.5t32 -141q0 -109 -41.5 -195t-118 -146t-185.5 -91.5t-243 -31.5q-70 0 -134.5 9t-118 22.5t-94.5 30t-65 31.5l42 202q76 -37 171 -62.5t201 -25.5q76 0 137.5 16t105 45.5t67.5 74t24 100.5zM822 1410h-206
l-165 247h198l84 -126h4l137 126h215zM220 1338z" />
    <glyph glyph-name="Scedilla" unicode="&#x15e;" horiz-adv-x="1153" 
d="M1033 439q0 -103 -37 -185t-105.5 -141.5t-165.5 -94t-218 -41.5l-36 -95q48 -5 81 -18t53.5 -33.5t30 -46.5t9.5 -56q0 -47 -23.5 -87t-66.5 -69t-103.5 -45.5t-134.5 -16.5q-39 0 -79.5 6t-61.5 15l29 142q44 -15 108 -15q71 0 107.5 22t36.5 50q0 56 -170 55l72 194
q-56 4 -106.5 14t-92.5 22t-74.5 26t-52.5 27l42 202q76 -37 171 -62.5t201 -25.5q76 0 137.5 16t105 46t67.5 74t24 100q0 46 -24.5 75t-64 48t-91 33.5l-105.5 30.5q-63 20 -117.5 47t-94.5 66.5t-63 95.5t-23 130q0 94 34.5 171.5t98 132.5t153.5 85t201 30
q118 0 234 -25.5t204 -63.5l-43 -203q-113 45 -201.5 65t-177.5 20q-119 0 -186 -50t-67 -134q0 -45 18 -76.5t48 -53t70.5 -37t85.5 -29.5q65 -20 130 -43t117 -59.5t84 -93.5t32 -141z" />
    <glyph glyph-name="Scommaaccent" unicode="&#x218;" horiz-adv-x="1153" 
d="M781 418q0 46 -24.5 75t-64 48t-91 33.5l-105.5 30.5q-63 20 -117.5 47t-94.5 66.5t-63 95.5t-23 130q0 94 34.5 171.5t98 132.5t153.5 85t201 30q118 0 234 -25.5t204 -63.5l-43 -203q-113 45 -201.5 65t-177.5 20q-119 0 -186 -50t-67 -134q0 -45 18 -76.5t48 -53
t70.5 -37t85.5 -29.5q65 -20 130 -43t117 -59.5t84 -93.5t32 -141q0 -109 -41.5 -195t-118 -146t-185.5 -91.5t-243 -31.5q-70 0 -134.5 9t-118 22.5t-94.5 30t-65 31.5l42 202q76 -37 171 -62.5t201 -25.5q76 0 137.5 16t105 45.5t67.5 74t24 100.5zM380 -332q0 54 -67 54
l35 169q17 1 32 1q53 0 90.5 -11.5t61.5 -32.5t35 -49.5t11 -62.5q0 -60 -29.5 -114.5t-80.5 -111.5h-184q19 21 36 42t30.5 41t21.5 39t8 36z" />
    <glyph glyph-name="Tcaron" unicode="&#x164;" horiz-adv-x="1161" 
d="M604 0h-244l235 1133h-420l41 205h1085l-42 -205h-420zM862 1410h-206l-165 247h198l84 -126h4l137 126h215zM260 1338z" />
    <glyph glyph-name="Tcommaaccent" unicode="&#x162;" horiz-adv-x="1161" 
d="M604 0h-244l235 1133h-420l41 205h1085l-42 -205h-420zM371 -332q0 54 -67 54l35 169q17 1 32 1q53 0 90.5 -11.5t61.5 -32.5t35 -49.5t11 -62.5q0 -60 -29.5 -114.5t-80.5 -111.5h-184q19 21 36 42t30.5 41t21.5 39t8 36z" />
    <glyph glyph-name="Tcommaaccent" unicode="&#x21a;" horiz-adv-x="1161" 
d="M604 0h-244l235 1133h-420l41 205h1085l-42 -205h-420zM371 -332q0 54 -67 54l35 169q17 1 32 1q53 0 90.5 -11.5t61.5 -32.5t35 -49.5t11 -62.5q0 -60 -29.5 -114.5t-80.5 -111.5h-184q19 21 36 42t30.5 41t21.5 39t8 36z" />
    <glyph glyph-name="Tbar" unicode="&#x166;" horiz-adv-x="1161" 
d="M288 787h235l72 346h-420l41 205h1085l-42 -205h-420l-72 -346h259l-42 -205h-260l-120 -582h-244l120 582h-235z" />
    <glyph glyph-name="Ugrave" unicode="&#xd9;" horiz-adv-x="1349" 
d="M612 182q104 0 181.5 43.5t128.5 139.5q18 35 32.5 80t28.5 110l162 783h244l-172 -832q-16 -75 -32.5 -128t-38.5 -98q-33 -67 -81 -123.5t-115.5 -96.5t-156.5 -62.5t-204 -22.5q-126 0 -213.5 33t-142 89t-79 130t-24.5 156q0 48 6.5 93.5t16.5 92.5l159 769h244
l-164 -796q-8 -35 -12 -67t-4 -61q0 -48 12 -90t39.5 -73.5t72.5 -50t112 -18.5zM870 1656l87 -247h-182l-139 247h234zM320 1338z" />
    <glyph glyph-name="Uacute" unicode="&#xda;" horiz-adv-x="1349" 
d="M612 182q104 0 181.5 43.5t128.5 139.5q18 35 32.5 80t28.5 110l162 783h244l-172 -832q-16 -75 -32.5 -128t-38.5 -98q-33 -67 -81 -123.5t-115.5 -96.5t-156.5 -62.5t-204 -22.5q-126 0 -213.5 33t-142 89t-79 130t-24.5 156q0 48 6.5 93.5t16.5 92.5l159 769h244
l-164 -796q-8 -35 -12 -67t-4 -61q0 -48 12 -90t39.5 -73.5t72.5 -50t112 -18.5zM1173 1656l-241 -247h-194l189 247h246zM461 1338z" />
    <glyph glyph-name="Ucircumflex" unicode="&#xdb;" horiz-adv-x="1349" 
d="M612 182q104 0 181.5 43.5t128.5 139.5q18 35 32.5 80t28.5 110l162 783h244l-172 -832q-16 -75 -32.5 -128t-38.5 -98q-33 -67 -81 -123.5t-115.5 -96.5t-156.5 -62.5t-204 -22.5q-126 0 -213.5 33t-142 89t-79 130t-24.5 156q0 48 6.5 93.5t16.5 92.5l159 769h244
l-164 -796q-8 -35 -12 -67t-4 -61q0 -48 12 -90t39.5 -73.5t72.5 -50t112 -18.5zM809 1656h206l165 -247h-200l-84 126h-4l-137 -126h-213zM362 1338z" />
    <glyph glyph-name="Utilde" unicode="&#x168;" horiz-adv-x="1349" 
d="M612 182q104 0 181.5 43.5t128.5 139.5q18 35 32.5 80t28.5 110l162 783h244l-172 -832q-16 -75 -32.5 -128t-38.5 -98q-33 -67 -81 -123.5t-115.5 -96.5t-156.5 -62.5t-204 -22.5q-126 0 -213.5 33t-142 89t-79 130t-24.5 156q0 48 6.5 93.5t16.5 92.5l159 769h244
l-164 -796q-8 -35 -12 -67t-4 -61q0 -48 12 -90t39.5 -73.5t72.5 -50t112 -18.5zM1248 1648q-6 -55 -24.5 -100t-47.5 -77.5t-68 -50t-86 -17.5q-41 0 -78 15t-69 34q-29 17 -54.5 30t-48.5 13q-28 0 -43.5 -19t-24.5 -65h-167q6 55 24.5 100t47.5 77.5t68 50t86 17.5
q40 0 78.5 -15.5t70.5 -34.5q29 -17 54 -29.5t47 -12.5q28 0 43.5 19t24.5 65h167zM363 1338z" />
    <glyph glyph-name="Udieresis" unicode="&#xdc;" horiz-adv-x="1349" 
d="M612 182q104 0 181.5 43.5t128.5 139.5q18 35 32.5 80t28.5 110l162 783h244l-172 -832q-16 -75 -32.5 -128t-38.5 -98q-33 -67 -81 -123.5t-115.5 -96.5t-156.5 -62.5t-204 -22.5q-126 0 -213.5 33t-142 89t-79 130t-24.5 156q0 48 6.5 93.5t16.5 92.5l159 769h244
l-164 -796q-8 -35 -12 -67t-4 -61q0 -48 12 -90t39.5 -73.5t72.5 -50t112 -18.5zM597 1673h224l-47 -225h-224zM1009 1673h224l-47 -225h-224zM367 1338z" />
    <glyph glyph-name="Umacron" unicode="&#x16a;" horiz-adv-x="1349" 
d="M612 182q104 0 181.5 43.5t128.5 139.5q18 35 32.5 80t28.5 110l162 783h244l-172 -832q-16 -75 -32.5 -128t-38.5 -98q-33 -67 -81 -123.5t-115.5 -96.5t-156.5 -62.5t-204 -22.5q-126 0 -213.5 33t-142 89t-79 130t-24.5 156q0 48 6.5 93.5t16.5 92.5l159 769h244
l-164 -796q-8 -35 -12 -67t-4 -61q0 -48 12 -90t39.5 -73.5t72.5 -50t112 -18.5zM621 1617h560l-35 -169h-560zM359 1338z" />
    <glyph glyph-name="Ubreve" unicode="&#x16c;" horiz-adv-x="1349" 
d="M612 182q104 0 181.5 43.5t128.5 139.5q18 35 32.5 80t28.5 110l162 783h244l-172 -832q-16 -75 -32.5 -128t-38.5 -98q-33 -67 -81 -123.5t-115.5 -96.5t-156.5 -62.5t-204 -22.5q-126 0 -213.5 33t-142 89t-79 130t-24.5 156q0 48 6.5 93.5t16.5 92.5l159 769h244
l-164 -796q-8 -35 -12 -67t-4 -61q0 -48 12 -90t39.5 -73.5t72.5 -50t112 -18.5zM864 1568q49 0 90 26.5t64 85.5h216q-21 -65 -56.5 -116.5t-85 -87.5t-112 -55t-137.5 -19t-130.5 19t-91 55t-48.5 79.5t-13 83.5q0 20 2 41h196v-9q0 -53 28.5 -78t77.5 -25zM344 1338z" />
    <glyph glyph-name="Uring" unicode="&#x16e;" horiz-adv-x="1349" 
d="M612 182q104 0 181.5 43.5t128.5 139.5q18 35 32.5 80t28.5 110l162 783h244l-172 -832q-16 -75 -32.5 -128t-38.5 -98q-33 -67 -81 -123.5t-115.5 -96.5t-156.5 -62.5t-204 -22.5q-126 0 -213.5 33t-142 89t-79 130t-24.5 156q0 48 6.5 93.5t16.5 92.5l159 769h244
l-164 -796q-8 -35 -12 -67t-4 -61q0 -48 12 -90t39.5 -73.5t72.5 -50t112 -18.5zM900 1759q107 0 164.5 -46t57.5 -124q0 -39 -17.5 -78.5t-52 -71.5t-86 -52t-120.5 -20q-107 0 -164.5 46t-57.5 124q0 39 17.5 78.5t52 71.5t86 52t120.5 20zM892 1648q-58 0 -90 -31
t-32 -74q0 -30 20.5 -47.5t63.5 -17.5q58 0 90 31t32 74q0 30 -20.5 47.5t-63.5 17.5zM352 1338z" />
    <glyph glyph-name="Uhungarumlaut" unicode="&#x170;" horiz-adv-x="1349" 
d="M612 182q104 0 181.5 43.5t128.5 139.5q18 35 32.5 80t28.5 110l162 783h244l-172 -832q-16 -75 -32.5 -128t-38.5 -98q-33 -67 -81 -123.5t-115.5 -96.5t-156.5 -62.5t-204 -22.5q-126 0 -213.5 33t-142 89t-79 130t-24.5 156q0 48 6.5 93.5t16.5 92.5l159 769h244
l-164 -796q-8 -35 -12 -67t-4 -61q0 -48 12 -90t39.5 -73.5t72.5 -50t112 -18.5zM1023 1656l-241 -247h-182l189 247h234zM1350 1656l-258 -247h-186l206 247h238zM447 1338z" />
    <glyph glyph-name="Uogonek" unicode="&#x172;" horiz-adv-x="1349" 
d="M579 -22q-122 0 -208.5 33t-139.5 89t-77 129t-24 154q0 48 6.5 93.5t16.5 92.5l159 769h244l-164 -796q-8 -35 -12 -67t-4 -61q0 -48 12 -90t39.5 -73.5t72.5 -50t112 -18.5q104 0 181.5 43.5t128.5 139.5q18 35 32.5 80t28.5 110l162 783h244l-172 -832
q-18 -88 -41.5 -153t-53.5 -114.5t-68.5 -87t-86.5 -69.5l-131.5 -86.5t-117.5 -84.5t-84.5 -86.5t-32.5 -91.5q0 -30 17 -44t49 -14q23 0 52 6.5t51 16.5l-33 -162q-26 -11 -64 -18.5t-74 -7.5q-43 0 -79.5 11t-62.5 32.5t-41 53t-15 71.5t13.5 80.5t37.5 78.5t56.5 73
t70.5 64v4z" />
    <glyph glyph-name="Wgrave" unicode="&#x1e80;" horiz-adv-x="1854" 
d="M957 1338h261l18 -538q8 -270 6 -451h7q105 253 231 507l244 482h270l-696 -1338h-253l-13 474q-6 243 -5 499h-6q-65 -206 -180 -494l-193 -479h-249l-184 1338h250l58 -485q36 -312 49 -504h6q54 187 169 475zM1135 1656l87 -247h-182l-139 247h234zM585 1338z" />
    <glyph glyph-name="Wacute" unicode="&#x1e82;" horiz-adv-x="1854" 
d="M957 1338h261l18 -538q8 -270 6 -451h7q105 253 231 507l244 482h270l-696 -1338h-253l-13 474q-6 243 -5 499h-6q-65 -206 -180 -494l-193 -479h-249l-184 1338h250l58 -485q36 -312 49 -504h6q54 187 169 475zM1428 1656l-241 -247h-194l189 247h246zM716 1338z" />
    <glyph glyph-name="Wcircumflex" unicode="&#x174;" horiz-adv-x="1854" 
d="M957 1338h261l18 -538q8 -270 6 -451h7q105 253 231 507l244 482h270l-696 -1338h-253l-13 474q-6 243 -5 499h-6q-65 -206 -180 -494l-193 -479h-249l-184 1338h250l58 -485q36 -312 49 -504h6q54 187 169 475zM1041 1656h206l165 -247h-200l-84 126h-4l-137 -126h-213z
M594 1338z" />
    <glyph glyph-name="Wdieresis" unicode="&#x1e84;" horiz-adv-x="1854" 
d="M957 1338h261l18 -538q8 -270 6 -451h7q105 253 231 507l244 482h270l-696 -1338h-253l-13 474q-6 243 -5 499h-6q-65 -206 -180 -494l-193 -479h-249l-184 1338h250l58 -485q36 -312 49 -504h6q54 187 169 475zM840 1673h224l-47 -225h-224zM1252 1673h224l-47 -225
h-224zM610 1338z" />
    <glyph glyph-name="Ygrave" unicode="&#x1ef2;" horiz-adv-x="1162" 
d="M403 0l112 541l-320 797h251l220 -562l378 562h278l-564 -802l-111 -536h-244zM761 1656l87 -247h-182l-139 247h234zM211 1338z" />
    <glyph glyph-name="Yacute" unicode="&#xdd;" horiz-adv-x="1162" 
d="M403 0l112 541l-320 797h251l220 -562l378 562h278l-564 -802l-111 -536h-244zM1071 1656l-241 -247h-194l189 247h246zM359 1338z" />
    <glyph glyph-name="Ycircumflex" unicode="&#x176;" horiz-adv-x="1162" 
d="M403 0l112 541l-320 797h251l220 -562l378 562h278l-564 -802l-111 -536h-244zM694 1656h206l165 -247h-200l-84 126h-4l-137 -126h-213zM247 1338z" />
    <glyph glyph-name="Ydieresis" unicode="&#x178;" horiz-adv-x="1162" 
d="M403 0l112 541l-320 797h251l220 -562l378 562h278l-564 -802l-111 -536h-244zM489 1673h224l-47 -225h-224zM901 1673h224l-47 -225h-224zM259 1338z" />
    <glyph glyph-name="Zacute" unicode="&#x179;" horiz-adv-x="1228" 
d="M31 135l874 998h-665l42 205h996l-28 -136l-874 -997h697l-42 -205h-1031zM1085 1656l-241 -247h-194l189 247h246zM373 1338z" />
    <glyph glyph-name="Zcaron" unicode="&#x17d;" horiz-adv-x="1228" 
d="M31 135l874 998h-665l42 205h996l-28 -136l-874 -997h697l-42 -205h-1031zM876 1410h-206l-165 247h198l84 -126h4l137 126h215zM274 1338z" />
    <glyph glyph-name="Zdotaccent" unicode="&#x17b;" horiz-adv-x="1228" 
d="M31 135l874 998h-665l42 205h996l-28 -136l-874 -997h697l-42 -205h-1031zM649 1448l52 257h248l-52 -257h-248zM277 1338z" />
    <glyph glyph-name="Eng" unicode="&#x14a;" horiz-adv-x="1418" 
d="M1448 1338l-293 -1414q-13 -63 -36 -123.5t-66 -108t-110.5 -76.5t-170.5 -29q-32 0 -65.5 4.5t-52.5 10.5l41 195q31 -10 61 -10q39 0 68 12t50 37.5t35.5 66t24.5 97.5l-275 593q-101 216 -161 385h-6q-19 -166 -64 -381l-124 -597h-244l277 1338h237l275 -593
q101 -215 161 -385h6q13 131 64 381l124 597h244z" />
    <glyph glyph-name="Eth" unicode="&#xd0;" horiz-adv-x="1433" 
d="M113 787h162l114 551h399q103 0 180 -12.5t139 -37.5q74 -30 128 -75t89 -103t52 -127.5t17 -147.5q0 -49 -8.5 -114t-29.5 -137t-56.5 -146.5t-90 -143.5t-130 -128t-176.5 -99q-79 -31 -177 -49t-231 -18h-382l120 582h-162zM519 787h332l-42 -205h-333l-78 -377h151
q94 0 165 16.5t129 46.5q76 39 132 98t94 131t57.5 154t21.5 166q2 110 -35 180t-118 104q-39 17 -91 24.5t-127 7.5h-186z" />
    <glyph glyph-name="Thorn" unicode="&#xde;" horiz-adv-x="1190" 
d="M530 1091h91q189 0 291 -34q120 -40 174 -121t54 -189q0 -105 -41.5 -192.5t-121 -150.5t-196.5 -98t-269 -35q-21 0 -43 1t-42 2.5t-36.5 3t-27.5 3.5l-59 -281h-244l277 1338h244zM404 485q20 -4 51 -6.5t68 -2.5q94 0 164 19t116 53t69 82.5t23 106.5q0 47 -25 79
t-67 49q-26 11 -66 16t-100 5h-150z" />
    <glyph glyph-name="a" unicode="a" horiz-adv-x="1102" 
d="M884 233q0 -27 14.5 -38.5t40.5 -11.5q29 0 71 6l-41 -190q-62 -13 -119 -13q-82 0 -124.5 38.5t-53.5 109.5h-4q-69 -85 -148.5 -122t-155.5 -37q-65 0 -117 24t-88 68t-55 106t-19 138q0 81 13.5 163t40.5 157.5t66.5 141.5t91.5 115t116 77t139 28q69 0 131 -29
t108 -91h4l35 96h202l-140 -675q-4 -19 -6 -35.5t-2 -25.5zM746 724q-9 13 -23.5 26.5t-34 24t-43 17.5t-50.5 7q-47 0 -85.5 -22.5t-69 -60t-52.5 -86t-36.5 -100.5t-21.5 -102.5t-7 -93.5q0 -85 26.5 -125t77.5 -40t102 34.5t91 94.5q27 40 46.5 91t33.5 117z" />
    <glyph glyph-name="b" unicode="b" horiz-adv-x="1035" 
d="M346 379q-6 -30 -7.5 -46.5t-1.5 -29.5q0 -61 29.5 -97.5t87.5 -36.5q49 0 90 21t74.5 56.5t59.5 82t43.5 98t26.5 104t9 99.5q0 34 -7.5 64.5t-23 54t-41 37t-61.5 13.5q-33 0 -70.5 -14t-71 -45t-61 -78.5t-41.5 -115.5zM479 1028q-18 -78 -37 -146h4q18 21 43 40.5
t56 35.5t68 25.5t79 9.5q62 0 117.5 -22t96.5 -65.5t65 -108.5t24 -151q0 -74 -14.5 -152.5t-44 -153.5t-75.5 -141t-108.5 -116t-143 -79t-179.5 -29q-78 0 -139 24t-103.5 65t-65 97.5t-22.5 120.5q0 26 3 53.5t12 72.5l217 1040h236z" />
    <glyph glyph-name="c" unicode="c" horiz-adv-x="891" 
d="M874 753q-54 24 -107.5 35t-96.5 11q-66 0 -117.5 -21.5t-90 -57t-65 -81t-43 -93.5t-24 -94.5t-7.5 -84.5q0 -57 14 -95.5t39 -61t59.5 -32t74.5 -9.5q67 0 140 18.5t146 51.5l-43 -208q-51 -21 -126 -38.5t-160 -17.5q-74 0 -143 21t-122 66.5t-85 117.5t-32 175
q0 67 13.5 140.5t42.5 144t74.5 135t108.5 113t146.5 77t184.5 28.5q57 0 131.5 -14.5t127.5 -37.5z" />
    <glyph glyph-name="d" unicode="d" horiz-adv-x="1107" 
d="M884 233q0 -23 12.5 -36.5t42.5 -13.5q28 0 71 6l-41 -190q-27 -6 -60 -9.5t-59 -3.5q-82 0 -124.5 38.5t-53.5 109.5h-4q-69 -85 -148.5 -122t-155.5 -37q-65 0 -117 24t-88 68t-55 106t-19 138q0 81 14 163t40.5 157.5t65.5 141.5t89.5 115t112 77t133.5 28t131 -29.5
t102 -90.5h4l119 575h236l-240 -1154q-4 -19 -6 -35.5t-2 -25.5zM745 720q-9 13 -23.5 27t-33.5 25.5t-42.5 19t-50.5 7.5q-47 0 -85.5 -22.5t-68.5 -60t-52.5 -86t-37 -100.5t-21.5 -102.5t-7 -93.5q0 -85 26.5 -125t77.5 -40q55 0 109 39t96 107q44 74 68 189z" />
    <glyph glyph-name="e" unicode="e" horiz-adv-x="991" 
d="M728 728q0 33 -26 57t-79 24q-40 0 -81.5 -16t-78 -47.5t-65.5 -77t-46 -104.5q106 0 178 14t116 37t63 52.5t19 60.5zM966 728q0 -81 -39.5 -145.5t-116.5 -110t-190 -69.5t-260 -24q-17 0 -43 1v-6q0 -53 15.5 -92.5t45 -64.5t71.5 -36.5t94 -11.5q78 0 164 19t150 51
l-43 -208q-62 -25 -141.5 -40.5t-169.5 -15.5q-107 0 -186 29t-130.5 81.5t-76.5 124.5t-25 159q0 77 16 153t47 145.5t77 129t106.5 103t135.5 68.5t163 25q77 0 139 -19t105.5 -53.5t67.5 -83.5t24 -109z" />
    <glyph glyph-name="f" unicode="f" horiz-adv-x="737" 
d="M553 969h260l-41 -195h-259l-183 -882q-15 -74 -35 -127t-48 -92q-63 -90 -158 -126.5t-210 -36.5q-54 0 -103.5 9t-80.5 21l40 189q34 -13 69 -19t64 -6q56 0 95 15t66.5 46t45.5 78t31 112l171 819h-174l41 195h173l25 121q14 70 33.5 120.5t46.5 89.5q30 45 68.5 77.5
t82 53.5t91.5 31.5t97 10.5q60 0 114.5 -10.5t91.5 -22.5l-38 -184q-46 12 -83 17.5t-66 5.5q-51 0 -89 -18t-65 -56q-16 -23 -28.5 -54t-20.5 -70z" />
    <glyph glyph-name="g" unicode="g" horiz-adv-x="1056" 
d="M626 107q-50 -66 -116 -99t-142 -33q-65 0 -117 24t-88 68t-55 106t-19 138q0 81 13.5 163t40 157.5t66 141.5t91.5 115t116 77t140 28q69 0 131 -29t108 -91h4l35 96h202l-203 -979q-25 -122 -71.5 -212.5t-116 -150t-165 -88.5t-219.5 -29q-85 0 -170.5 13.5
t-160.5 42.5l41 195q61 -25 130.5 -41t140.5 -16q86 0 147 20.5t103.5 61.5t70 102.5t45.5 142.5q11 48 22 76h-4zM750 724q-9 13 -23.5 26.5t-34 24t-43 17.5t-50.5 7q-48 0 -86.5 -22.5t-69 -60t-52.5 -86t-36 -100.5t-21 -102.5t-7 -93.5q0 -85 26.5 -125t77.5 -40
q48 0 96.5 30.5t87.5 84.5q59 81 89 223z" />
    <glyph glyph-name="h" unicode="h" horiz-adv-x="1113" 
d="M797 590q6 31 9.5 55.5t3.5 41.5q0 51 -28 79t-88 28q-73 0 -136 -40t-105 -108q-8 -13 -15.5 -28t-14.5 -34t-13.5 -43.5t-13.5 -57.5l-100 -483h-236l300 1448h236l-94 -453q-11 -57 -40 -148h4q24 29 56.5 55.5t71.5 46.5t84.5 32t95.5 12q57 0 107.5 -16.5t89 -48.5
t60.5 -78t22 -106q0 -37 -7 -82t-16 -90l-119 -572h-236z" />
    <glyph glyph-name="i" unicode="i" horiz-adv-x="502" 
d="M292 1191l52 257h248l-52 -257h-248zM50 0l202 969h236l-202 -969h-236z" />
    <glyph glyph-name="j" unicode="j" horiz-adv-x="529" 
d="M278 969h236l-232 -1117q-16 -77 -37 -131t-53 -93q-48 -59 -121.5 -88.5t-181.5 -29.5q-49 0 -101 9t-88 23l40 189q81 -27 143 -27q40 0 68.5 12.5t48.5 38t33.5 64.5t24.5 93zM319 1191l52 257h248l-52 -257h-248z" />
    <glyph glyph-name="k" unicode="k" horiz-adv-x="994" 
d="M296 0h-236l300 1448h236l-147 -711q-8 -38 -17.5 -78.5l-18.5 -75.5h7l365 386h289l-448 -463v-4q15 -20 24 -53l18.5 -70t21.5 -74.5t32 -67.5t50 -49t76 -19q25 0 60 8l-40 -195q-40 -6 -76 -6q-87 0 -143.5 29.5t-93 76t-56.5 103t-35.5 110t-30 97.5t-38.5 66h-4z
" />
    <glyph glyph-name="l" unicode="l" horiz-adv-x="557" 
d="M336 1448h236l-239 -1149q-8 -40 -8 -58q0 -28 17 -40.5t51 -12.5t71 8l-43 -198q-23 -5 -59 -9t-69 -4q-106 0 -159.5 47.5t-53.5 139.5q0 48 13 109z" />
    <glyph glyph-name="m" unicode="m" horiz-adv-x="1638" 
d="M991 824q62 82 146 125.5t178 43.5q59 0 107 -16.5t83 -48.5t54 -78t19 -106q0 -37 -7 -82t-16 -90l-119 -572h-236l118 568q10 48 13.5 77t3.5 49q0 21 -5.5 39t-17.5 31.5t-32 21.5t-49 8q-60 0 -113 -34t-91 -93q-20 -30 -35 -68t-26 -91l-105 -508h-236l118 568
q10 48 13.5 77t3.5 49q0 21 -5.5 39t-17.5 31.5t-32 21.5t-49 8q-55 0 -104.5 -29t-87.5 -80q-24 -33 -42 -75.5t-30 -99.5l-106 -510h-236l201 969h201v-122h4q24 29 56 55.5t69.5 46.5t80.5 32t89 12q89 0 151 -43.5t85 -125.5h4z" />
    <glyph glyph-name="n" unicode="n" horiz-adv-x="1103" 
d="M286 0h-236l201 969h201v-122h4q24 29 56.5 55.5t71.5 46.5t84.5 32t95.5 12q57 0 107.5 -16.5t89 -48.5t60.5 -78t22 -106q0 -37 -7 -82t-16 -90l-119 -572h-236l122 590q6 31 9.5 55.5t3.5 41.5q0 51 -28.5 79t-87.5 28q-73 0 -136 -40t-105 -108q-8 -13 -15.5 -28
t-14.5 -34t-13.5 -43.5t-13.5 -57.5z" />
    <glyph glyph-name="o" unicode="o" horiz-adv-x="1048" 
d="M610 799q-48 0 -88 -19t-72 -52.5t-55.5 -77.5t-39.5 -94.5t-24 -103.5t-8 -104q0 -83 38.5 -131t121.5 -48q48 0 88 19t72 52.5t56 77.5t39.5 94.5t23.5 104t8 104.5q0 82 -39 130t-121 48zM630 993q86 0 155.5 -23t119 -68.5t76.5 -115t27 -161.5q0 -128 -35 -245.5
t-103.5 -207.5t-170.5 -143.5t-236 -53.5q-85 0 -155 23t-119.5 68.5t-76.5 114.5t-27 162q0 128 35 245.5t103.5 207.5t170.5 143.5t236 53.5z" />
    <glyph glyph-name="p" unicode="p" horiz-adv-x="1049" 
d="M329 225q27 -24 64 -40t83 -16q45 0 85 20t72.5 55t58 81.5t43.5 99t27 108t9 108.5q0 72 -27 115t-84 43q-50 0 -104.5 -34.5t-98.5 -100.5q-26 -39 -46 -90t-34 -117zM726 993q63 0 115 -25.5t89.5 -70.5t58 -110t20.5 -145q0 -76 -15 -156t-44.5 -154t-72.5 -139
t-99.5 -113.5t-127 -76.5t-150.5 -28q-64 0 -116 19t-88 50h-4l-106 -509h-236l297 1434h203v-122h4q21 28 48.5 54.5t61.5 46.5t74 32.5t88 12.5z" />
    <glyph glyph-name="q" unicode="q" horiz-adv-x="1052" 
d="M598 11q11 53 25 96h-4q-49 -66 -114 -99t-141 -33q-65 0 -117 24t-88 68t-55 106t-19 138q0 81 13.5 163t40 157.5t66 141.5t91.5 115t116 77t140 28q69 0 131 -29t108 -91h4l35 96h202l-297 -1434h-236zM746 724q-9 13 -24 26.5t-33.5 24t-42.5 17.5t-51 7
q-47 0 -86 -22.5t-69.5 -60t-52.5 -86t-36 -100.5t-21 -102.5t-7 -93.5q0 -85 26.5 -125t77.5 -40q48 0 96.5 30.5t87.5 85.5q60 84 89 221z" />
    <glyph glyph-name="r" unicode="r" horiz-adv-x="734" 
d="M778 766q-43 10 -83 10q-36 0 -73 -8t-72 -26t-66 -47.5t-54 -73.5q-11 -21 -21.5 -51t-21.5 -83l-101 -487h-236l201 969h201v-122h4q57 69 127 107.5t164 38.5q37 0 77 -6z" />
    <glyph glyph-name="s" unicode="s" horiz-adv-x="857" 
d="M543 294q0 30 -19 49t-49 33.5t-68.5 26.5t-77.5 27q-36 14 -69.5 33t-60 47.5t-42 67.5t-15.5 94q0 82 31 142.5t83 100t121 59t145 19.5q43 0 86.5 -5.5t85 -15t79.5 -22t69 -27.5l-38 -185q-75 31 -147.5 47t-136.5 16q-69 0 -106.5 -28t-37.5 -73q0 -27 13.5 -45.5
t36 -32.5t52 -25l61.5 -23q41 -15 83 -33t76 -47.5t55.5 -72.5t21.5 -108q0 -83 -31.5 -146t-89.5 -106t-138 -64.5t-178 -21.5q-55 0 -104 6t-88.5 15t-69 19t-46.5 18l39 189q66 -26 133.5 -40.5t136.5 -14.5q100 0 152 33.5t52 93.5z" />
    <glyph glyph-name="t" unicode="t" horiz-adv-x="765" 
d="M764 774h-252l-96 -467q-5 -22 -7.5 -38.5t-2.5 -28.5q0 -37 20 -51.5t70 -14.5q34 0 87 7.5t95 17.5l-39 -197q-48 -13 -104.5 -20t-106.5 -7q-69 0 -119 14.5t-82.5 41.5t-48 66t-15.5 88q0 17 2 40.5t9 56.5l102 492h-181l41 195h180l57 271h236l-56 -271h252z" />
    <glyph glyph-name="u" unicode="u" horiz-adv-x="1075" 
d="M467 -25q-96 0 -164.5 21.5t-112.5 60.5t-64.5 93.5t-20.5 119.5q0 21 3.5 48t11.5 69l120 582h236l-122 -590q-5 -24 -7 -44.5t-2 -37.5q0 -60 33 -94t107 -34q52 0 89.5 14.5t63.5 42t42.5 67t26.5 88.5l122 588h236l-135 -653q-14 -66 -43.5 -127.5t-83.5 -109
t-136 -76t-200 -28.5z" />
    <glyph glyph-name="v" unicode="v" horiz-adv-x="1012" 
d="M338 969l77 -369q37 -175 58 -316h6q72 158 159 310l212 375h267l-577 -969h-217l-223 969h238z" />
    <glyph glyph-name="w" unicode="w" horiz-adv-x="1497" 
d="M828 0l-29 395q-9 145 -14 287h-6q-34 -108 -101 -280l-160 -402h-231l-187 969h237l66 -388q23 -144 37 -285h6q43 136 98 275l164 398h237l29 -363q11 -138 19 -312h6q79 187 148 319l189 356h266l-550 -969h-224z" />
    <glyph glyph-name="x" unicode="x" horiz-adv-x="1026" 
d="M695 0l-183 327l-291 -327h-281l460 506l-272 463h253l177 -312l282 312h286l-454 -490l278 -479h-255z" />
    <glyph glyph-name="y" unicode="y" horiz-adv-x="1006" 
d="M97 969h241l89 -425q29 -140 48 -257h6q56 116 124 243l239 439h267l-569 -1002q-57 -100 -114.5 -184t-125.5 -144.5t-150 -94.5t-186 -34q-77 0 -126 13l40 188q38 -7 77 -7q57 0 103.5 19.5t88 58.5t80.5 97.5t82 137.5z" />
    <glyph glyph-name="z" unicode="z" horiz-adv-x="934" 
d="M589 774h-434l41 195h743l-31 -147l-556 -627h474l-40 -195h-791l28 134z" />
    <glyph glyph-name="agrave" unicode="&#xe0;" horiz-adv-x="1102" 
d="M884 233q0 -27 14.5 -38.5t40.5 -11.5q29 0 71 6l-41 -190q-62 -13 -119 -13q-82 0 -124.5 38.5t-53.5 109.5h-4q-69 -85 -148.5 -122t-155.5 -37q-65 0 -117 24t-88 68t-55 106t-19 138q0 81 13.5 163t40.5 157.5t66.5 141.5t91.5 115t116 77t139 28q69 0 131 -29
t108 -91h4l35 96h202l-140 -675q-4 -19 -6 -35.5t-2 -25.5zM746 724q-9 13 -23.5 26.5t-34 24t-43 17.5t-50.5 7q-47 0 -85.5 -22.5t-69 -60t-52.5 -86t-36.5 -100.5t-21.5 -102.5t-7 -93.5q0 -85 26.5 -125t77.5 -40t102 34.5t91 94.5q27 40 46.5 91t33.5 117zM699 1473
l46 -349h-176l-92 349h222zM88 969z" />
    <glyph glyph-name="aacute" unicode="&#xe1;" horiz-adv-x="1102" 
d="M884 233q0 -27 14.5 -38.5t40.5 -11.5q29 0 71 6l-41 -190q-62 -13 -119 -13q-82 0 -124.5 38.5t-53.5 109.5h-4q-69 -85 -148.5 -122t-155.5 -37q-65 0 -117 24t-88 68t-55 106t-19 138q0 81 13.5 163t40.5 157.5t66.5 141.5t91.5 115t116 77t139 28q69 0 131 -29
t108 -91h4l35 96h202l-140 -675q-4 -19 -6 -35.5t-2 -25.5zM746 724q-9 13 -23.5 26.5t-34 24t-43 17.5t-50.5 7q-47 0 -85.5 -22.5t-69 -60t-52.5 -86t-36.5 -100.5t-21.5 -102.5t-7 -93.5q0 -85 26.5 -125t77.5 -40t102 34.5t91 94.5q27 40 46.5 91t33.5 117zM943 1473
l-238 -349h-190l192 349h236zM188 969z" />
    <glyph glyph-name="acircumflex" unicode="&#xe2;" horiz-adv-x="1102" 
d="M884 233q0 -27 14.5 -38.5t40.5 -11.5q29 0 71 6l-41 -190q-62 -13 -119 -13q-82 0 -124.5 38.5t-53.5 109.5h-4q-69 -85 -148.5 -122t-155.5 -37q-65 0 -117 24t-88 68t-55 106t-19 138q0 81 13.5 163t40.5 157.5t66.5 141.5t91.5 115t116 77t139 28q69 0 131 -29
t108 -91h4l35 96h202l-140 -675q-4 -19 -6 -35.5t-2 -25.5zM746 724q-9 13 -23.5 26.5t-34 24t-43 17.5t-50.5 7q-47 0 -85.5 -22.5t-69 -60t-52.5 -86t-36.5 -100.5t-21.5 -102.5t-7 -93.5q0 -85 26.5 -125t77.5 -40t102 34.5t91 94.5q27 40 46.5 91t33.5 117zM619 1473
h206l137 -349h-178l-82 212h-4l-170 -212h-192zM161 969z" />
    <glyph glyph-name="atilde" unicode="&#xe3;" horiz-adv-x="1102" 
d="M884 233q0 -27 14.5 -38.5t40.5 -11.5q29 0 71 6l-41 -190q-62 -13 -119 -13q-82 0 -124.5 38.5t-53.5 109.5h-4q-69 -85 -148.5 -122t-155.5 -37q-65 0 -117 24t-88 68t-55 106t-19 138q0 81 13.5 163t40.5 157.5t66.5 141.5t91.5 115t116 77t139 28q69 0 131 -29
t108 -91h4l35 96h202l-140 -675q-4 -19 -6 -35.5t-2 -25.5zM746 724q-9 13 -23.5 26.5t-34 24t-43 17.5t-50.5 7q-47 0 -85.5 -22.5t-69 -60t-52.5 -86t-36.5 -100.5t-21.5 -102.5t-7 -93.5q0 -85 26.5 -125t77.5 -40t102 34.5t91 94.5q27 40 46.5 91t33.5 117zM320 1161
q6 54 24.5 99.5t47 78t66.5 50t84 17.5q23 0 47 -5.5t45 -14.5t40 -19.5l36 -20.5q23 -14 43.5 -23t38.5 -9q28 0 45.5 19t26.5 65h163q-6 -54 -24.5 -99.5t-47 -78t-66.5 -50t-84 -17.5q-23 0 -47 5.5t-45 14.5t-40 19.5l-36 20.5q-23 14 -43.5 23t-38.5 9q-28 0 -45.5 -19
t-26.5 -65h-163zM187 969z" />
    <glyph glyph-name="adieresis" unicode="&#xe4;" horiz-adv-x="1102" 
d="M884 233q0 -27 14.5 -38.5t40.5 -11.5q29 0 71 6l-41 -190q-62 -13 -119 -13q-82 0 -124.5 38.5t-53.5 109.5h-4q-69 -85 -148.5 -122t-155.5 -37q-65 0 -117 24t-88 68t-55 106t-19 138q0 81 13.5 163t40.5 157.5t66.5 141.5t91.5 115t116 77t139 28q69 0 131 -29
t108 -91h4l35 96h202l-140 -675q-4 -19 -6 -35.5t-2 -25.5zM746 724q-9 13 -23.5 26.5t-34 24t-43 17.5t-50.5 7q-47 0 -85.5 -22.5t-69 -60t-52.5 -86t-36.5 -100.5t-21.5 -102.5t-7 -93.5q0 -85 26.5 -125t77.5 -40t102 34.5t91 94.5q27 40 46.5 91t33.5 117zM403 1412
h218l-47 -221h-218zM813 1412h218l-47 -221h-218zM169 969z" />
    <glyph glyph-name="amacron" unicode="&#x101;" horiz-adv-x="1102" 
d="M884 233q0 -27 14.5 -38.5t40.5 -11.5q29 0 71 6l-41 -190q-62 -13 -119 -13q-82 0 -124.5 38.5t-53.5 109.5h-4q-69 -85 -148.5 -122t-155.5 -37q-65 0 -117 24t-88 68t-55 106t-19 138q0 81 13.5 163t40.5 157.5t66.5 141.5t91.5 115t116 77t139 28q69 0 131 -29
t108 -91h4l35 96h202l-140 -675q-4 -19 -6 -35.5t-2 -25.5zM746 724q-9 13 -23.5 26.5t-34 24t-43 17.5t-50.5 7q-47 0 -85.5 -22.5t-69 -60t-52.5 -86t-36.5 -100.5t-21.5 -102.5t-7 -93.5q0 -85 26.5 -125t77.5 -40t102 34.5t91 94.5q27 40 46.5 91t33.5 117zM425 1338
h560l-35 -167h-560zM163 969z" />
    <glyph glyph-name="abreve" unicode="&#x103;" horiz-adv-x="1102" 
d="M884 233q0 -27 14.5 -38.5t40.5 -11.5q29 0 71 6l-41 -190q-62 -13 -119 -13q-82 0 -124.5 38.5t-53.5 109.5h-4q-69 -85 -148.5 -122t-155.5 -37q-65 0 -117 24t-88 68t-55 106t-19 138q0 81 13.5 163t40.5 157.5t66.5 141.5t91.5 115t116 77t139 28q69 0 131 -29
t108 -91h4l35 96h202l-140 -675q-4 -19 -6 -35.5t-2 -25.5zM746 724q-9 13 -23.5 26.5t-34 24t-43 17.5t-50.5 7q-47 0 -85.5 -22.5t-69 -60t-52.5 -86t-36.5 -100.5t-21.5 -102.5t-7 -93.5q0 -85 26.5 -125t77.5 -40t102 34.5t91 94.5q27 40 46.5 91t33.5 117zM667 1256
q59 0 103.5 42t70.5 129h213q-18 -73 -53.5 -135t-88 -107t-120.5 -70t-150 -25q-80 0 -138.5 25t-90.5 69.5t-40.5 92.5t-7.5 75q0 36 7 75h193q-3 -26 -3 -51q0 -54 25.5 -87t79.5 -33zM153 969z" />
    <glyph glyph-name="aring" unicode="&#xe5;" horiz-adv-x="1102" 
d="M884 233q0 -27 14.5 -38.5t40.5 -11.5q29 0 71 6l-41 -190q-62 -13 -119 -13q-82 0 -124.5 38.5t-53.5 109.5h-4q-69 -85 -148.5 -122t-155.5 -37q-65 0 -117 24t-88 68t-55 106t-19 138q0 81 13.5 163t40.5 157.5t66.5 141.5t91.5 115t116 77t139 28q69 0 131 -29
t108 -91h4l35 96h202l-140 -675q-4 -19 -6 -35.5t-2 -25.5zM746 724q-9 13 -23.5 26.5t-34 24t-43 17.5t-50.5 7q-47 0 -85.5 -22.5t-69 -60t-52.5 -86t-36.5 -100.5t-21.5 -102.5t-7 -93.5q0 -85 26.5 -125t77.5 -40t102 34.5t91 94.5q27 40 46.5 91t33.5 117zM698 1500
q107 0 164.5 -48.5t57.5 -129.5q0 -40 -17.5 -81.5t-52 -75t-86 -54.5t-120.5 -21q-107 0 -164.5 48.5t-57.5 129.5q0 41 17.5 82t52 74.5t86 54.5t120.5 21zM690 1387q-29 0 -51.5 -9t-38.5 -25t-24 -36t-8 -43q0 -32 20.5 -51.5t63.5 -19.5q29 0 51.5 9t38.5 25t24 36.5
t8 42.5q0 32 -20.5 51.5t-63.5 19.5zM150 969z" />
    <glyph glyph-name="aringacute" unicode="&#x1fb;" horiz-adv-x="1102" 
d="M1076 1775l-255 -256h-162l202 256h215zM709 1464q107 0 164.5 -46t57.5 -124q0 -39 -17.5 -78.5t-52 -71.5t-86 -52t-120.5 -20q-107 0 -164.5 46t-57.5 124q0 39 17.5 78.5t52 71.5t86 52t120.5 20zM701 1353q-58 0 -90 -31t-32 -74q0 -30 20.5 -47.5t63.5 -17.5
q58 0 90 31t32 74q0 30 -20.5 47.5t-63.5 17.5zM884 233q0 -27 14.5 -38.5t40.5 -11.5q29 0 71 6l-41 -190q-62 -13 -119 -13q-82 0 -124.5 38.5t-53.5 109.5h-4q-69 -85 -148.5 -122t-155.5 -37q-65 0 -117 24t-88 68t-55 106t-19 138q0 81 13.5 163t40.5 157.5t66.5 141.5
t91.5 115t116 77t139 28q69 0 131 -29t108 -91h4l35 96h202l-140 -675q-4 -19 -6 -35.5t-2 -25.5zM746 724q-9 13 -23.5 26.5t-34 24t-43 17.5t-50.5 7q-47 0 -85.5 -22.5t-69 -60t-52.5 -86t-36.5 -100.5t-21.5 -102.5t-7 -93.5q0 -85 26.5 -125t77.5 -40t102 34.5t91 94.5
q27 40 46.5 91t33.5 117z" />
    <glyph glyph-name="aogonek" unicode="&#x105;" horiz-adv-x="1102" 
d="M746 724q-9 13 -23.5 26.5t-34 24t-43 17.5t-50.5 7q-47 0 -85.5 -22.5t-69 -60t-52.5 -86t-36.5 -100.5t-21.5 -102.5t-7 -93.5q0 -85 26.5 -125t77.5 -40t102 34.5t91 94.5q27 40 46.5 91t33.5 117zM744 15q-32 18 -48.5 47t-23.5 72h-4q-69 -85 -148.5 -122
t-155.5 -37q-65 0 -117 24t-88 68t-55 106t-19 138q0 81 13.5 163t40.5 157.5t66.5 141.5t91.5 115t116 77t139 28q69 0 131 -29t108 -91h4l35 96h202l-140 -675q-4 -19 -6 -35.5t-2 -25.5q0 -26 14 -38t41 -12q29 0 71 6l-40 -182q-52 -28 -98.5 -61t-82 -68.5t-56.5 -72.5
t-21 -72q0 -30 17 -44t49 -14q23 0 52 6.5t51 16.5l-33 -162q-26 -11 -64 -18.5t-74 -7.5q-43 0 -79.5 11t-62.5 32.5t-41 53t-15 71.5q0 46 18 93.5t49.5 91t74 82t90.5 66.5v4z" />
    <glyph glyph-name="ae" unicode="&#xe6;" horiz-adv-x="1596" 
d="M767 190q-28 -45 -69 -84t-93.5 -68t-115.5 -46t-137 -17q-67 0 -123 21t-95.5 59t-61.5 91t-22 117q0 82 31.5 147.5t88.5 111.5t136 71t175 25q69 0 130.5 -9.5t103.5 -20.5q1 8 1.5 20.5t0.5 24.5q0 87 -47.5 129.5t-159.5 42.5q-27 0 -62 -4t-73.5 -11.5t-78.5 -18.5
t-77 -25l40 189q32 13 67.5 23.5t73.5 18t76 12t74 4.5q68 0 121 -13.5t92 -38.5t65.5 -60t41.5 -78h4q64 86 159.5 138t219.5 52q70 0 128.5 -18.5t100.5 -52.5t65.5 -82.5t23.5 -108.5q0 -82 -40.5 -147t-118.5 -110.5t-191.5 -69.5t-260.5 -24h-32q-1 -57 14 -97.5
t43.5 -65.5t69.5 -36.5t93 -11.5q164 0 314 70l-43 -208q-62 -25 -141.5 -40.5t-169.5 -15.5q-134 0 -217.5 57.5t-119.5 157.5h-4zM492 434q-36 0 -72.5 -7.5t-66 -25t-47.5 -47t-18 -73.5q0 -32 9.5 -54.5t25 -36.5t36.5 -20t44 -6q95 0 169 64t112 182q-38 9 -86 16.5
t-106 7.5zM1333 728q0 33 -26 57t-79 24q-40 0 -80.5 -16.5t-76.5 -48.5t-64 -78t-45 -105q106 0 177.5 14t114.5 37.5t61 53.5t18 62z" />
    <glyph glyph-name="aeacute" unicode="&#x1fd;" horiz-adv-x="1596" 
d="M767 190q-28 -45 -69 -84t-93.5 -68t-115.5 -46t-137 -17q-67 0 -123 21t-95.5 59t-61.5 91t-22 117q0 82 31.5 147.5t88.5 111.5t136 71t175 25q69 0 130.5 -9.5t103.5 -20.5q1 8 1.5 20.5t0.5 24.5q0 87 -47.5 129.5t-159.5 42.5q-27 0 -62 -4t-73.5 -11.5t-78.5 -18.5
t-77 -25l40 189q32 13 67.5 23.5t73.5 18t76 12t74 4.5q68 0 121 -13.5t92 -38.5t65.5 -60t41.5 -78h4q64 86 159.5 138t219.5 52q70 0 128.5 -18.5t100.5 -52.5t65.5 -82.5t23.5 -108.5q0 -82 -40.5 -147t-118.5 -110.5t-191.5 -69.5t-260.5 -24h-32q-1 -57 14 -97.5
t43.5 -65.5t69.5 -36.5t93 -11.5q164 0 314 70l-43 -208q-62 -25 -141.5 -40.5t-169.5 -15.5q-134 0 -217.5 57.5t-119.5 157.5h-4zM492 434q-36 0 -72.5 -7.5t-66 -25t-47.5 -47t-18 -73.5q0 -32 9.5 -54.5t25 -36.5t36.5 -20t44 -6q95 0 169 64t112 182q-38 9 -86 16.5
t-106 7.5zM1333 728q0 33 -26 57t-79 24q-40 0 -80.5 -16.5t-76.5 -48.5t-64 -78t-45 -105q106 0 177.5 14t114.5 37.5t61 53.5t18 62zM1266 1473l-238 -349h-190l192 349h236zM511 969z" />
    <glyph glyph-name="cacute" unicode="&#x107;" horiz-adv-x="891" 
d="M874 753q-54 24 -107.5 35t-96.5 11q-66 0 -117.5 -21.5t-90 -57t-65 -81t-43 -93.5t-24 -94.5t-7.5 -84.5q0 -57 14 -95.5t39 -61t59.5 -32t74.5 -9.5q67 0 140 18.5t146 51.5l-43 -208q-51 -21 -126 -38.5t-160 -17.5q-74 0 -143 21t-122 66.5t-85 117.5t-32 175
q0 67 13.5 140.5t42.5 144t74.5 135t108.5 113t146.5 77t184.5 28.5q57 0 131.5 -14.5t127.5 -37.5zM962 1473l-238 -349h-190l192 349h236zM207 969z" />
    <glyph glyph-name="ccircumflex" unicode="&#x109;" horiz-adv-x="891" 
d="M874 753q-54 24 -107.5 35t-96.5 11q-66 0 -117.5 -21.5t-90 -57t-65 -81t-43 -93.5t-24 -94.5t-7.5 -84.5q0 -57 14 -95.5t39 -61t59.5 -32t74.5 -9.5q67 0 140 18.5t146 51.5l-43 -208q-51 -21 -126 -38.5t-160 -17.5q-74 0 -143 21t-122 66.5t-85 117.5t-32 175
q0 67 13.5 140.5t42.5 144t74.5 135t108.5 113t146.5 77t184.5 28.5q57 0 131.5 -14.5t127.5 -37.5zM622 1473h206l137 -349h-178l-82 212h-4l-170 -212h-192zM164 969z" />
    <glyph glyph-name="ccaron" unicode="&#x10d;" horiz-adv-x="891" 
d="M874 753q-54 24 -107.5 35t-96.5 11q-66 0 -117.5 -21.5t-90 -57t-65 -81t-43 -93.5t-24 -94.5t-7.5 -84.5q0 -57 14 -95.5t39 -61t59.5 -32t74.5 -9.5q67 0 140 18.5t146 51.5l-43 -208q-51 -21 -126 -38.5t-160 -17.5q-74 0 -143 21t-122 66.5t-85 117.5t-32 175
q0 67 13.5 140.5t42.5 144t74.5 135t108.5 113t146.5 77t184.5 28.5q57 0 131.5 -14.5t127.5 -37.5zM751 1124h-206l-137 349h177l82 -212h4l170 212h193zM160 969z" />
    <glyph glyph-name="cdotaccent" unicode="&#x10b;" horiz-adv-x="891" 
d="M874 753q-54 24 -107.5 35t-96.5 11q-66 0 -117.5 -21.5t-90 -57t-65 -81t-43 -93.5t-24 -94.5t-7.5 -84.5q0 -57 14 -95.5t39 -61t59.5 -32t74.5 -9.5q67 0 140 18.5t146 51.5l-43 -208q-51 -21 -126 -38.5t-160 -17.5q-74 0 -143 21t-122 66.5t-85 117.5t-32 175
q0 67 13.5 140.5t42.5 144t74.5 135t108.5 113t146.5 77t184.5 28.5q57 0 131.5 -14.5t127.5 -37.5zM531 1191l52 257h248l-52 -257h-248zM159 969z" />
    <glyph glyph-name="ccedilla" unicode="&#xe7;" horiz-adv-x="891" 
d="M874 753q-63 27 -114 36.5t-93 9.5q-63 0 -114.5 -21.5t-90 -57t-65 -81t-43 -93.5t-24 -94.5t-7.5 -84.5q0 -57 14 -95.5t39 -61t59.5 -32t74.5 -9.5q67 0 140 18.5t146 51.5l-43 -208q-48 -20 -113.5 -36.5t-146.5 -18.5l-35 -94q48 -5 81 -18t53.5 -33.5t30 -46.5
t9.5 -56q0 -47 -23.5 -87t-66.5 -69t-103.5 -45.5t-134.5 -16.5q-39 0 -79.5 6t-61.5 15l29 142q44 -15 108 -15q67 0 105.5 20.5t38.5 51.5q0 56 -170 55l76 204q-55 13 -103.5 41t-84.5 73t-56.5 107.5t-20.5 144.5q0 67 13.5 140.5t42.5 144t74.5 135t108.5 113t146.5 77
t184.5 28.5q50 0 120 -12t139 -40z" />
    <glyph glyph-name="dcaron" unicode="&#x10f;" horiz-adv-x="1107" 
d="M884 233q0 -23 12.5 -36.5t42.5 -13.5q28 0 71 6l-41 -190q-27 -6 -60 -9.5t-59 -3.5q-82 0 -124.5 38.5t-53.5 109.5h-4q-69 -85 -148.5 -122t-155.5 -37q-65 0 -117 24t-88 68t-55 106t-19 138q0 81 14 163t40.5 157.5t65.5 141.5t89.5 115t112 77t133.5 28t131 -29.5
t102 -90.5h4l119 575h236l-240 -1154q-4 -19 -6 -35.5t-2 -25.5zM745 720q-9 13 -23.5 27t-33.5 25.5t-42.5 19t-50.5 7.5q-47 0 -85.5 -22.5t-68.5 -60t-52.5 -86t-37 -100.5t-21.5 -102.5t-7 -93.5q0 -85 26.5 -125t77.5 -40q55 0 109 39t96 107q44 74 68 189zM1266 1224
q0 54 -67 54l35 169q16 1 20 1h12q52 0 90 -11.5t62 -32.5t35 -49.5t11 -62.5q0 -58 -29.5 -113.5t-80.5 -112.5h-184q19 21 36 42t30.5 41t21.5 39.5t8 35.5zM1068 969z" />
    <glyph glyph-name="dcroat" unicode="&#x111;" horiz-adv-x="1107" 
d="M863 1291l33 157h236l-33 -157h160l-37 -185h-161l-169 -812q-4 -19 -6 -35.5t-2 -25.5q0 -26 14 -38t41 -12q29 0 71 6l-41 -190q-27 -6 -59 -9.5t-60 -3.5q-79 0 -123 37.5t-55 110.5h-4q-69 -85 -148.5 -122t-155.5 -37q-65 0 -117 24t-88 68t-55 106t-19 138
q0 81 14 163t40.5 157.5t65.5 141.5t89.5 115t112 77t133.5 28t131 -29.5t102 -90.5h4l48 233h-254l38 185h254zM745 720q-9 13 -23.5 27t-33.5 25.5t-42.5 19t-50.5 7.5q-47 0 -85.5 -22.5t-68.5 -60t-52.5 -86t-37 -100.5t-21.5 -102.5t-7 -93.5q0 -85 26.5 -125t77.5 -40
q55 0 109 39t96 107q44 74 68 189z" />
    <glyph glyph-name="egrave" unicode="&#xe8;" horiz-adv-x="991" 
d="M707 1473l46 -349h-176l-92 349h222zM96 969zM728 728q0 33 -26 57t-79 24q-40 0 -81.5 -16t-78 -47.5t-65.5 -77t-46 -104.5q106 0 178 14t116 37t63 52.5t19 60.5zM966 728q0 -81 -39.5 -145.5t-116.5 -110t-190 -69.5t-260 -24q-17 0 -43 1v-6q0 -53 15.5 -92.5
t45 -64.5t71.5 -36.5t94 -11.5q78 0 164 19t150 51l-43 -208q-62 -25 -141.5 -40.5t-169.5 -15.5q-107 0 -186 29t-130.5 81.5t-76.5 124.5t-25 159q0 77 16 153t47 145.5t77 129t106.5 103t135.5 68.5t163 25q77 0 139 -19t105.5 -53.5t67.5 -83.5t24 -109z" />
    <glyph glyph-name="eacute" unicode="&#xe9;" horiz-adv-x="991" 
d="M981 1473l-238 -349h-190l192 349h236zM226 969zM728 728q0 33 -26 57t-79 24q-40 0 -81.5 -16t-78 -47.5t-65.5 -77t-46 -104.5q106 0 178 14t116 37t63 52.5t19 60.5zM966 728q0 -81 -39.5 -145.5t-116.5 -110t-190 -69.5t-260 -24q-17 0 -43 1v-6q0 -53 15.5 -92.5
t45 -64.5t71.5 -36.5t94 -11.5q78 0 164 19t150 51l-43 -208q-62 -25 -141.5 -40.5t-169.5 -15.5q-107 0 -186 29t-130.5 81.5t-76.5 124.5t-25 159q0 77 16 153t47 145.5t77 129t106.5 103t135.5 68.5t163 25q77 0 139 -19t105.5 -53.5t67.5 -83.5t24 -109z" />
    <glyph glyph-name="ecircumflex" unicode="&#xea;" horiz-adv-x="991" 
d="M619 1473h206l137 -349h-178l-82 212h-4l-170 -212h-192zM161 969zM728 728q0 33 -26 57t-79 24q-40 0 -81.5 -16t-78 -47.5t-65.5 -77t-46 -104.5q106 0 178 14t116 37t63 52.5t19 60.5zM966 728q0 -81 -39.5 -145.5t-116.5 -110t-190 -69.5t-260 -24q-17 0 -43 1v-6
q0 -53 15.5 -92.5t45 -64.5t71.5 -36.5t94 -11.5q78 0 164 19t150 51l-43 -208q-62 -25 -141.5 -40.5t-169.5 -15.5q-107 0 -186 29t-130.5 81.5t-76.5 124.5t-25 159q0 77 16 153t47 145.5t77 129t106.5 103t135.5 68.5t163 25q77 0 139 -19t105.5 -53.5t67.5 -83.5
t24 -109z" />
    <glyph glyph-name="ecaron" unicode="&#x11b;" horiz-adv-x="991" 
d="M756 1124h-206l-137 349h177l82 -212h4l170 212h193zM165 969zM728 728q0 33 -26 57t-79 24q-40 0 -81.5 -16t-78 -47.5t-65.5 -77t-46 -104.5q106 0 178 14t116 37t63 52.5t19 60.5zM966 728q0 -81 -39.5 -145.5t-116.5 -110t-190 -69.5t-260 -24q-17 0 -43 1v-6
q0 -53 15.5 -92.5t45 -64.5t71.5 -36.5t94 -11.5q78 0 164 19t150 51l-43 -208q-62 -25 -141.5 -40.5t-169.5 -15.5q-107 0 -186 29t-130.5 81.5t-76.5 124.5t-25 159q0 77 16 153t47 145.5t77 129t106.5 103t135.5 68.5t163 25q77 0 139 -19t105.5 -53.5t67.5 -83.5
t24 -109z" />
    <glyph glyph-name="edieresis" unicode="&#xeb;" horiz-adv-x="991" 
d="M407 1412h218l-47 -221h-218zM817 1412h218l-47 -221h-218zM173 969zM728 728q0 33 -26 57t-79 24q-40 0 -81.5 -16t-78 -47.5t-65.5 -77t-46 -104.5q106 0 178 14t116 37t63 52.5t19 60.5zM966 728q0 -81 -39.5 -145.5t-116.5 -110t-190 -69.5t-260 -24q-17 0 -43 1v-6
q0 -53 15.5 -92.5t45 -64.5t71.5 -36.5t94 -11.5q78 0 164 19t150 51l-43 -208q-62 -25 -141.5 -40.5t-169.5 -15.5q-107 0 -186 29t-130.5 81.5t-76.5 124.5t-25 159q0 77 16 153t47 145.5t77 129t106.5 103t135.5 68.5t163 25q77 0 139 -19t105.5 -53.5t67.5 -83.5
t24 -109z" />
    <glyph glyph-name="emacron" unicode="&#x113;" horiz-adv-x="991" 
d="M432 1338h560l-35 -167h-560zM170 969zM728 728q0 33 -26 57t-79 24q-40 0 -81.5 -16t-78 -47.5t-65.5 -77t-46 -104.5q106 0 178 14t116 37t63 52.5t19 60.5zM966 728q0 -81 -39.5 -145.5t-116.5 -110t-190 -69.5t-260 -24q-17 0 -43 1v-6q0 -53 15.5 -92.5t45 -64.5
t71.5 -36.5t94 -11.5q78 0 164 19t150 51l-43 -208q-62 -25 -141.5 -40.5t-169.5 -15.5q-107 0 -186 29t-130.5 81.5t-76.5 124.5t-25 159q0 77 16 153t47 145.5t77 129t106.5 103t135.5 68.5t163 25q77 0 139 -19t105.5 -53.5t67.5 -83.5t24 -109z" />
    <glyph glyph-name="ebreve" unicode="&#x115;" horiz-adv-x="991" 
d="M681 1256q59 0 103.5 42t70.5 129h213q-18 -73 -53.5 -135t-88 -107t-120.5 -70t-150 -25q-80 0 -138.5 25t-90.5 69.5t-40.5 92.5t-7.5 75q0 36 7 75h193q-3 -26 -3 -51q0 -54 25.5 -87t79.5 -33zM167 969zM728 728q0 33 -26 57t-79 24q-40 0 -81.5 -16t-78 -47.5
t-65.5 -77t-46 -104.5q106 0 178 14t116 37t63 52.5t19 60.5zM966 728q0 -81 -39.5 -145.5t-116.5 -110t-190 -69.5t-260 -24q-17 0 -43 1v-6q0 -53 15.5 -92.5t45 -64.5t71.5 -36.5t94 -11.5q78 0 164 19t150 51l-43 -208q-62 -25 -141.5 -40.5t-169.5 -15.5
q-107 0 -186 29t-130.5 81.5t-76.5 124.5t-25 159q0 77 16 153t47 145.5t77 129t106.5 103t135.5 68.5t163 25q77 0 139 -19t105.5 -53.5t67.5 -83.5t24 -109z" />
    <glyph glyph-name="edotaccent" unicode="&#x117;" horiz-adv-x="991" 
d="M542 1191l52 257h248l-52 -257h-248zM170 969zM728 728q0 33 -26 57t-79 24q-40 0 -81.5 -16t-78 -47.5t-65.5 -77t-46 -104.5q106 0 178 14t116 37t63 52.5t19 60.5zM966 728q0 -81 -39.5 -145.5t-116.5 -110t-190 -69.5t-260 -24q-17 0 -43 1v-6q0 -53 15.5 -92.5
t45 -64.5t71.5 -36.5t94 -11.5q78 0 164 19t150 51l-43 -208q-62 -25 -141.5 -40.5t-169.5 -15.5q-107 0 -186 29t-130.5 81.5t-76.5 124.5t-25 159q0 77 16 153t47 145.5t77 129t106.5 103t135.5 68.5t163 25q77 0 139 -19t105.5 -53.5t67.5 -83.5t24 -109z" />
    <glyph glyph-name="eogonek" unicode="&#x119;" horiz-adv-x="991" 
d="M728 728q0 33 -26 57t-79 24q-40 0 -81.5 -16t-78 -47.5t-65.5 -77t-46 -104.5q106 0 178 14t116 37t63 52.5t19 60.5zM334 -322q0 39 13 79t36 78.5t54.5 73.5t69.5 64l-1 2q-108 0 -187.5 29t-131.5 81.5t-77 124.5t-25 159q0 77 16 153t47 145.5t77 129t106.5 103
t135.5 68.5t163 25q77 0 139 -19t105.5 -53.5t67.5 -83.5t24 -109q0 -81 -39.5 -145.5t-116.5 -110t-190 -69.5t-260 -24q-16 0 -43 1v-10q0 -51 15.5 -89.5t45 -63.5t71.5 -36.5t94 -11.5q69 0 152 16t162 54l-43 -204q-56 -31 -106.5 -69t-89 -78t-61.5 -80t-23 -75
q0 -30 17 -44t49 -14q23 0 52 6.5t51 16.5l-33 -162q-26 -11 -64 -18.5t-74 -7.5q-43 0 -79.5 11t-62.5 32.5t-41 53t-15 71.5z" />
    <glyph glyph-name="gcircumflex" unicode="&#x11d;" horiz-adv-x="1056" 
d="M640 1473h206l137 -349h-178l-82 212h-4l-170 -212h-192zM182 969zM626 107q-50 -66 -116 -99t-142 -33q-65 0 -117 24t-88 68t-55 106t-19 138q0 81 13.5 163t40 157.5t66 141.5t91.5 115t116 77t140 28q69 0 131 -29t108 -91h4l35 96h202l-203 -979
q-25 -122 -71.5 -212.5t-116 -150t-165 -88.5t-219.5 -29q-85 0 -170.5 13.5t-160.5 42.5l41 195q61 -25 130.5 -41t140.5 -16q86 0 147 20.5t103.5 61.5t70 102.5t45.5 142.5q11 48 22 76h-4zM750 724q-9 13 -23.5 26.5t-34 24t-43 17.5t-50.5 7q-48 0 -86.5 -22.5t-69 -60
t-52.5 -86t-36 -100.5t-21 -102.5t-7 -93.5q0 -85 26.5 -125t77.5 -40q48 0 96.5 30.5t87.5 84.5q59 81 89 223z" />
    <glyph glyph-name="gbreve" unicode="&#x11f;" horiz-adv-x="1056" 
d="M697 1256q59 0 103.5 42t70.5 129h213q-18 -73 -53.5 -135t-88 -107t-120.5 -70t-150 -25q-80 0 -138.5 25t-90.5 69.5t-40.5 92.5t-7.5 75q0 36 7 75h193q-3 -26 -3 -51q0 -54 25.5 -87t79.5 -33zM183 969zM626 107q-50 -66 -116 -99t-142 -33q-65 0 -117 24t-88 68
t-55 106t-19 138q0 81 13.5 163t40 157.5t66 141.5t91.5 115t116 77t140 28q69 0 131 -29t108 -91h4l35 96h202l-203 -979q-25 -122 -71.5 -212.5t-116 -150t-165 -88.5t-219.5 -29q-85 0 -170.5 13.5t-160.5 42.5l41 195q61 -25 130.5 -41t140.5 -16q86 0 147 20.5
t103.5 61.5t70 102.5t45.5 142.5q11 48 22 76h-4zM750 724q-9 13 -23.5 26.5t-34 24t-43 17.5t-50.5 7q-48 0 -86.5 -22.5t-69 -60t-52.5 -86t-36 -100.5t-21 -102.5t-7 -93.5q0 -85 26.5 -125t77.5 -40q48 0 96.5 30.5t87.5 84.5q59 81 89 223z" />
    <glyph glyph-name="gdotaccent" unicode="&#x121;" horiz-adv-x="1056" 
d="M570 1191l52 257h248l-52 -257h-248zM198 969zM626 107q-50 -66 -116 -99t-142 -33q-65 0 -117 24t-88 68t-55 106t-19 138q0 81 13.5 163t40 157.5t66 141.5t91.5 115t116 77t140 28q69 0 131 -29t108 -91h4l35 96h202l-203 -979q-25 -122 -71.5 -212.5t-116 -150
t-165 -88.5t-219.5 -29q-85 0 -170.5 13.5t-160.5 42.5l41 195q61 -25 130.5 -41t140.5 -16q86 0 147 20.5t103.5 61.5t70 102.5t45.5 142.5q11 48 22 76h-4zM750 724q-9 13 -23.5 26.5t-34 24t-43 17.5t-50.5 7q-48 0 -86.5 -22.5t-69 -60t-52.5 -86t-36 -100.5t-21 -102.5
t-7 -93.5q0 -85 26.5 -125t77.5 -40q48 0 96.5 30.5t87.5 84.5q59 81 89 223z" />
    <glyph glyph-name="gcommaaccent" unicode="&#x123;" horiz-adv-x="1056" 
d="M706 1315q0 -54 67 -54l-35 -169q-18 -1 -32 -1q-53 0 -90.5 11.5t-61.5 32.5t-35 49.5t-11 62.5q0 57 29.5 113t80.5 113h184q-19 -21 -36 -42t-30.5 -41t-21.5 -39t-8 -36zM1053 969zM626 107q-50 -66 -116 -99t-142 -33q-65 0 -117 24t-88 68t-55 106t-19 138
q0 81 13.5 163t40 157.5t66 141.5t91.5 115t116 77t140 28q69 0 131 -29t108 -91h4l35 96h202l-203 -979q-25 -122 -71.5 -212.5t-116 -150t-165 -88.5t-219.5 -29q-85 0 -170.5 13.5t-160.5 42.5l41 195q61 -25 130.5 -41t140.5 -16q86 0 147 20.5t103.5 61.5t70 102.5
t45.5 142.5q11 48 22 76h-4zM750 724q-9 13 -23.5 26.5t-34 24t-43 17.5t-50.5 7q-48 0 -86.5 -22.5t-69 -60t-52.5 -86t-36 -100.5t-21 -102.5t-7 -93.5q0 -85 26.5 -125t77.5 -40q48 0 96.5 30.5t87.5 84.5q59 81 89 223z" />
    <glyph glyph-name="hcircumflex" unicode="&#x125;" horiz-adv-x="1113" 
d="M797 590q6 31 9.5 55.5t3.5 41.5q0 51 -28 79t-88 28q-73 0 -136 -40t-105 -108q-8 -13 -15.5 -28t-14.5 -34t-13.5 -43.5t-13.5 -57.5l-100 -483h-236l300 1448h236l-94 -453q-11 -57 -40 -148h4q24 29 56.5 55.5t71.5 46.5t84.5 32t95.5 12q57 0 107.5 -16.5t89 -48.5
t60.5 -78t22 -106q0 -37 -7 -82t-16 -90l-119 -572h-236zM429 1767h206l165 -247h-200l-84 126h-4l-137 -126h-213zM-18 1449z" />
    <glyph glyph-name="hbar" unicode="&#x127;" horiz-adv-x="1113" 
d="M797 590q6 31 9.5 55.5t3.5 41.5q0 51 -28 79t-88 28q-74 0 -136.5 -40t-104.5 -108q-8 -13 -15.5 -28t-14.5 -34t-13.5 -43.5t-13.5 -57.5l-100 -483h-236l229 1106h-160l37 185h161l33 157h236l-33 -157h264l-38 -185h-264l-23 -111q-16 -74 -40 -148h4
q24 29 56.5 55.5t71.5 46.5t84.5 32t95.5 12q57 0 107.5 -16.5t89 -48.5t60.5 -78t22 -106q0 -37 -7 -82t-16 -90l-119 -572h-236z" />
    <glyph glyph-name="igrave" unicode="&#xec;" horiz-adv-x="502" 
d="M50 0l202 969h236l-202 -969h-236zM467 1473l46 -349h-176l-92 349h222zM-144 969z" />
    <glyph glyph-name="iacute" unicode="&#xed;" horiz-adv-x="502" 
d="M50 0l202 969h236l-202 -969h-236zM720 1473l-238 -349h-190l192 349h236zM-35 969z" />
    <glyph glyph-name="icircumflex" unicode="&#xee;" horiz-adv-x="502" 
d="M50 0l202 969h236l-202 -969h-236zM362 1473h206l137 -349h-178l-82 212h-4l-170 -212h-192zM-96 969z" />
    <glyph glyph-name="itilde" unicode="&#x129;" horiz-adv-x="502" 
d="M50 0l202 969h236l-202 -969h-236zM73 1161q6 54 24.5 99.5t47 78t66.5 50t84 17.5q23 0 47 -5.5t45 -14.5t40 -19.5l36 -20.5q23 -14 43.5 -23t38.5 -9q28 0 45.5 19t26.5 65h163q-6 -54 -24.5 -99.5t-47 -78t-66.5 -50t-84 -17.5q-23 0 -47 5.5t-45 14.5t-40 19.5
l-36 20.5q-23 14 -43.5 23t-38.5 9q-28 0 -45.5 -19t-26.5 -65h-163zM-60 969z" />
    <glyph glyph-name="idieresis" unicode="&#xef;" horiz-adv-x="502" 
d="M50 0l202 969h236l-202 -969h-236zM143 1412h218l-47 -221h-218zM553 1412h218l-47 -221h-218zM-91 969z" />
    <glyph glyph-name="imacron" unicode="&#x12b;" horiz-adv-x="502" 
d="M50 0l202 969h236l-202 -969h-236zM156 1338h560l-35 -167h-560zM-106 969z" />
    <glyph glyph-name="ibreve" unicode="&#x12d;" horiz-adv-x="502" 
d="M50 0l202 969h236l-202 -969h-236zM414 1256q59 0 103.5 42t70.5 129h213q-18 -73 -53.5 -135t-88 -107t-120.5 -70t-150 -25q-80 0 -138.5 25t-90.5 69.5t-40.5 92.5t-7.5 75q0 36 7 75h193q-3 -26 -3 -51q0 -54 25.5 -87t79.5 -33zM-100 969z" />
    <glyph glyph-name="iogonek" unicode="&#x12f;" horiz-adv-x="502" 
d="M292 1191l52 257h248l-52 -257h-248zM252 969h236l-202 -969q-45 -24 -84 -55.5t-68 -66t-45.5 -72.5t-16.5 -73q0 -31 17 -44.5t49 -13.5q23 0 52 6.5t51 16.5l-33 -162q-26 -11 -64 -18.5t-74 -7.5q-50 0 -87 13.5t-62 37.5t-37 56.5t-12 71.5q0 52 17.5 99t43.5 86.5
t57.5 71.5t59.5 54z" />
    <glyph glyph-name="dotlessi" unicode="&#x131;" horiz-adv-x="502" 
d="M50 0l202 969h236l-202 -969h-236z" />
    <glyph glyph-name="ij" unicode="&#x133;" horiz-adv-x="1031" 
d="M292 1191l52 257h248l-52 -257h-248zM50 0l202 969h236l-202 -969h-236zM781 969h236l-232 -1117q-16 -77 -37 -131t-53 -93q-48 -59 -121.5 -88.5t-181.5 -29.5q-49 0 -101 9t-88 23l40 189q81 -27 143 -27q40 0 68.5 12.5t48.5 38t33.5 64.5t24.5 93zM822 1191l52 257
h248l-52 -257h-248z" />
    <glyph glyph-name="jcircumflex" unicode="&#x135;" horiz-adv-x="538" 
d="M278 969h236l-232 -1117q-16 -77 -37 -131t-53 -93q-48 -59 -121.5 -88.5t-181.5 -29.5q-28 0 -56 3t-53 7.5t-45.5 10t-34.5 11.5l40 189q81 -27 143 -27q40 0 68.5 12.5t48.5 38t33.5 64.5t24.5 93zM379 1473h206l137 -349h-178l-82 212h-4l-170 -212h-192z" />
    <glyph glyph-name="kcommaaccent" unicode="&#x137;" horiz-adv-x="1067" 
d="M296 0h-236l300 1448h236l-147 -711q-13 -64 -36 -154h7l365 386h289l-448 -463v-4q12 -17 20.5 -43.5t16.5 -57l16.5 -63t21.5 -61.5q20 -48 55 -78t94 -30q23 0 58 8l-40 -195q-40 -6 -76 -6q-69 0 -118.5 19t-84.5 50.5t-58 72.5t-39 84q-14 39 -24.5 78.5t-21 73.5
t-22.5 61.5t-29 42.5h-4zM376 -332q0 54 -67 54l35 169q17 1 32 1q53 0 90.5 -11.5t61.5 -32.5t35 -49.5t11 -62.5q0 -60 -29.5 -114.5t-80.5 -111.5h-184q19 21 36 42t30.5 41t21.5 39t8 36z" />
    <glyph glyph-name="kgreenlandic" unicode="&#x138;" horiz-adv-x="994" 
d="M286 0h-236l202 969h236l-49 -232l-8.5 -40l-9.5 -43l-10 -42.5t-10 -38.5h7l367 396h289l-450 -473v-4q12 -17 20.5 -43t16.5 -56l17 -61t22 -60q10 -22 23.5 -40.5t31 -32.5t40.5 -22t53 -8q25 0 60 8l-40 -195q-40 -6 -76 -6q-67 0 -116 17.5t-84 47t-58.5 68
t-39.5 80.5q-15 39 -26.5 78.5l-22 74.5t-22.5 62.5t-30 43.5h-4z" />
    <glyph glyph-name="lacute" unicode="&#x13a;" horiz-adv-x="557" 
d="M336 1448h236l-239 -1149q-8 -40 -8 -58q0 -28 17 -40.5t51 -12.5t71 8l-43 -198q-23 -5 -59 -9t-69 -4q-106 0 -159.5 47.5t-53.5 139.5q0 48 13 109zM788 1766l-241 -247h-194l189 247h246z" />
    <glyph glyph-name="lcaron" unicode="&#x13e;" horiz-adv-x="661" 
d="M336 1448h236l-239 -1149q-8 -40 -8 -58q0 -28 17 -40.5t51 -12.5t71 8l-43 -198q-23 -5 -59 -9t-69 -4q-106 0 -159.5 47.5t-53.5 139.5q0 48 13 109zM699 1224q0 54 -67 54l35 169q16 1 20 1h12q52 0 90 -11.5t62 -32.5t35 -49.5t11 -62.5q0 -58 -29.5 -113.5
t-80.5 -112.5h-184q19 21 36 42t30.5 41t21.5 39.5t8 35.5z" />
    <glyph glyph-name="lcommaaccent" unicode="&#x13c;" horiz-adv-x="557" 
d="M336 1448h236l-239 -1149q-8 -40 -8 -58q0 -28 17 -40.5t51 -12.5t71 8l-43 -198q-23 -5 -59 -9t-69 -4q-106 0 -159.5 47.5t-53.5 139.5q0 48 13 109zM160 -332q0 54 -67 54l35 169q17 1 32 1q53 0 90.5 -11.5t61.5 -32.5t35 -49.5t11 -62.5q0 -60 -29.5 -114.5
t-80.5 -111.5h-184q19 21 36 42t30.5 41t21.5 39t8 36z" />
    <glyph glyph-name="lslash" unicode="&#x142;" horiz-adv-x="557" 
d="M578 753l-168 -85l-77 -369q-8 -40 -8 -58q0 -28 17 -40.5t51 -12.5q36 0 71 8l-43 -198q-23 -5 -58 -9t-70 -4q-107 0 -160 47.5t-53 139.5q0 48 13 109l54 260l-134 -67l50 240l134 67l139 667h236l-112 -540l168 85z" />
    <glyph glyph-name="ldot" unicode="&#x140;" horiz-adv-x="766" 
d="M336 1448h236l-239 -1149q-8 -40 -8 -58q0 -28 17 -40.5t51 -12.5t71 8l-43 -198q-23 -5 -59 -9t-69 -4q-106 0 -159.5 47.5t-53.5 139.5q0 48 13 109zM581 563l52 257h248l-52 -257h-248z" />
    <glyph glyph-name="nacute" unicode="&#x144;" horiz-adv-x="1103" 
d="M286 0h-236l201 969h201v-122h4q24 29 56.5 55.5t71.5 46.5t84.5 32t95.5 12q57 0 107.5 -16.5t89 -48.5t60.5 -78t22 -106q0 -37 -7 -82t-16 -90l-119 -572h-236l122 590q6 31 9.5 55.5t3.5 41.5q0 51 -28.5 79t-87.5 28q-73 0 -136 -40t-105 -108q-8 -13 -15.5 -28
t-14.5 -34t-13.5 -43.5t-13.5 -57.5zM1077 1473l-238 -349h-190l192 349h236zM322 969z" />
    <glyph glyph-name="ncaron" unicode="&#x148;" horiz-adv-x="1103" 
d="M286 0h-236l201 969h201v-122h4q24 29 56.5 55.5t71.5 46.5t84.5 32t95.5 12q57 0 107.5 -16.5t89 -48.5t60.5 -78t22 -106q0 -37 -7 -82t-16 -90l-119 -572h-236l122 590q6 31 9.5 55.5t3.5 41.5q0 51 -28.5 79t-87.5 28q-73 0 -136 -40t-105 -108q-8 -13 -15.5 -28
t-14.5 -34t-13.5 -43.5t-13.5 -57.5zM820 1124h-206l-137 349h177l82 -212h4l170 212h193zM229 969z" />
    <glyph glyph-name="ntilde" unicode="&#xf1;" horiz-adv-x="1103" 
d="M286 0h-236l201 969h201v-122h4q24 29 56.5 55.5t71.5 46.5t84.5 32t95.5 12q57 0 107.5 -16.5t89 -48.5t60.5 -78t22 -106q0 -37 -7 -82t-16 -90l-119 -572h-236l122 590q6 31 9.5 55.5t3.5 41.5q0 51 -28.5 79t-87.5 28q-73 0 -136 -40t-105 -108q-8 -13 -15.5 -28
t-14.5 -34t-13.5 -43.5t-13.5 -57.5zM374 1161q6 54 24.5 99.5t47 78t66.5 50t84 17.5q23 0 47 -5.5t45 -14.5t40 -19.5l36 -20.5q23 -14 43.5 -23t38.5 -9q28 0 45.5 19t26.5 65h163q-6 -54 -24.5 -99.5t-47 -78t-66.5 -50t-84 -17.5q-23 0 -47 5.5t-45 14.5t-40 19.5
l-36 20.5q-23 14 -43.5 23t-38.5 9q-28 0 -45.5 -19t-26.5 -65h-163zM241 969z" />
    <glyph glyph-name="ncommaaccent" unicode="&#x146;" horiz-adv-x="1103" 
d="M286 0h-236l201 969h201v-122h4q24 29 56.5 55.5t71.5 46.5t84.5 32t95.5 12q57 0 107.5 -16.5t89 -48.5t60.5 -78t22 -106q0 -37 -7 -82t-16 -90l-119 -572h-236l122 590q6 31 9.5 55.5t3.5 41.5q0 51 -28.5 79t-87.5 28q-73 0 -136 -40t-105 -108q-8 -13 -15.5 -28
t-14.5 -34t-13.5 -43.5t-13.5 -57.5zM423 -332q0 54 -67 54l35 169q17 1 32 1q53 0 90.5 -11.5t61.5 -32.5t35 -49.5t11 -62.5q0 -60 -29.5 -114.5t-80.5 -111.5h-184q19 21 36 42t30.5 41t21.5 39t8 36z" />
    <glyph glyph-name="napostrophe" unicode="&#x149;" horiz-adv-x="1103" 
d="M286 0h-236l201 969h201v-122h4q24 29 56.5 55.5t71.5 46.5t84.5 32t95.5 12q57 0 107.5 -16.5t89 -48.5t60.5 -78t22 -106q0 -37 -7 -82t-16 -90l-119 -572h-236l122 590q6 31 9.5 55.5t3.5 41.5q0 51 -28.5 79t-87.5 28q-73 0 -136 -40t-105 -108q-8 -13 -15.5 -28
t-14.5 -34t-13.5 -43.5t-13.5 -57.5zM194 1224q0 54 -67 54l35 169q16 1 20 1h12q52 0 90 -11.5t62 -32.5t35 -49.5t11 -62.5q0 -58 -29.5 -113.5t-80.5 -112.5h-184q19 21 36 42t30.5 41t21.5 39.5t8 35.5zM-4 969z" />
    <glyph glyph-name="ograve" unicode="&#xf2;" horiz-adv-x="1048" 
d="M610 799q-48 0 -88 -19t-72 -52.5t-55.5 -77.5t-39.5 -94.5t-24 -103.5t-8 -104q0 -83 38.5 -131t121.5 -48q48 0 88 19t72 52.5t56 77.5t39.5 94.5t23.5 104t8 104.5q0 82 -39 130t-121 48zM630 993q86 0 155.5 -23t119 -68.5t76.5 -115t27 -161.5q0 -128 -35 -245.5
t-103.5 -207.5t-170.5 -143.5t-236 -53.5q-85 0 -155 23t-119.5 68.5t-76.5 114.5t-27 162q0 128 35 245.5t103.5 207.5t170.5 143.5t236 53.5zM705 1473l46 -349h-176l-92 349h222zM94 969z" />
    <glyph glyph-name="oacute" unicode="&#xf3;" horiz-adv-x="1048" 
d="M610 799q-48 0 -88 -19t-72 -52.5t-55.5 -77.5t-39.5 -94.5t-24 -103.5t-8 -104q0 -83 38.5 -131t121.5 -48q48 0 88 19t72 52.5t56 77.5t39.5 94.5t23.5 104t8 104.5q0 82 -39 130t-121 48zM630 993q86 0 155.5 -23t119 -68.5t76.5 -115t27 -161.5q0 -128 -35 -245.5
t-103.5 -207.5t-170.5 -143.5t-236 -53.5q-85 0 -155 23t-119.5 68.5t-76.5 114.5t-27 162q0 128 35 245.5t103.5 207.5t170.5 143.5t236 53.5zM1002 1473l-238 -349h-190l192 349h236zM247 969z" />
    <glyph glyph-name="ocircumflex" unicode="&#xf4;" horiz-adv-x="1048" 
d="M610 799q-48 0 -88 -19t-72 -52.5t-55.5 -77.5t-39.5 -94.5t-24 -103.5t-8 -104q0 -83 38.5 -131t121.5 -48q48 0 88 19t72 52.5t56 77.5t39.5 94.5t23.5 104t8 104.5q0 82 -39 130t-121 48zM630 993q86 0 155.5 -23t119 -68.5t76.5 -115t27 -161.5q0 -128 -35 -245.5
t-103.5 -207.5t-170.5 -143.5t-236 -53.5q-85 0 -155 23t-119.5 68.5t-76.5 114.5t-27 162q0 128 35 245.5t103.5 207.5t170.5 143.5t236 53.5zM634 1473h206l137 -349h-178l-82 212h-4l-170 -212h-192zM176 969z" />
    <glyph glyph-name="otilde" unicode="&#xf5;" horiz-adv-x="1048" 
d="M610 799q-48 0 -88 -19t-72 -52.5t-55.5 -77.5t-39.5 -94.5t-24 -103.5t-8 -104q0 -83 38.5 -131t121.5 -48q48 0 88 19t72 52.5t56 77.5t39.5 94.5t23.5 104t8 104.5q0 82 -39 130t-121 48zM630 993q86 0 155.5 -23t119 -68.5t76.5 -115t27 -161.5q0 -128 -35 -245.5
t-103.5 -207.5t-170.5 -143.5t-236 -53.5q-85 0 -155 23t-119.5 68.5t-76.5 114.5t-27 162q0 128 35 245.5t103.5 207.5t170.5 143.5t236 53.5zM335 1161q6 54 24.5 99.5t47 78t66.5 50t84 17.5q23 0 47 -5.5t45 -14.5t40 -19.5l36 -20.5q23 -14 43.5 -23t38.5 -9
q28 0 45.5 19t26.5 65h163q-6 -54 -24.5 -99.5t-47 -78t-66.5 -50t-84 -17.5q-23 0 -47 5.5t-45 14.5t-40 19.5l-36 20.5q-23 14 -43.5 23t-38.5 9q-28 0 -45.5 -19t-26.5 -65h-163zM202 969z" />
    <glyph glyph-name="odieresis" unicode="&#xf6;" horiz-adv-x="1048" 
d="M610 799q-48 0 -88 -19t-72 -52.5t-55.5 -77.5t-39.5 -94.5t-24 -103.5t-8 -104q0 -83 38.5 -131t121.5 -48q48 0 88 19t72 52.5t56 77.5t39.5 94.5t23.5 104t8 104.5q0 82 -39 130t-121 48zM630 993q86 0 155.5 -23t119 -68.5t76.5 -115t27 -161.5q0 -128 -35 -245.5
t-103.5 -207.5t-170.5 -143.5t-236 -53.5q-85 0 -155 23t-119.5 68.5t-76.5 114.5t-27 162q0 128 35 245.5t103.5 207.5t170.5 143.5t236 53.5zM421 1412h218l-47 -221h-218zM831 1412h218l-47 -221h-218zM187 969z" />
    <glyph glyph-name="omacron" unicode="&#x14d;" horiz-adv-x="1048" 
d="M610 799q-48 0 -88 -19t-72 -52.5t-55.5 -77.5t-39.5 -94.5t-24 -103.5t-8 -104q0 -83 38.5 -131t121.5 -48q48 0 88 19t72 52.5t56 77.5t39.5 94.5t23.5 104t8 104.5q0 82 -39 130t-121 48zM630 993q86 0 155.5 -23t119 -68.5t76.5 -115t27 -161.5q0 -128 -35 -245.5
t-103.5 -207.5t-170.5 -143.5t-236 -53.5q-85 0 -155 23t-119.5 68.5t-76.5 114.5t-27 162q0 128 35 245.5t103.5 207.5t170.5 143.5t236 53.5zM433 1338h560l-35 -167h-560zM171 969z" />
    <glyph glyph-name="obreve" unicode="&#x14f;" horiz-adv-x="1048" 
d="M610 799q-48 0 -88 -19t-72 -52.5t-55.5 -77.5t-39.5 -94.5t-24 -103.5t-8 -104q0 -83 38.5 -131t121.5 -48q48 0 88 19t72 52.5t56 77.5t39.5 94.5t23.5 104t8 104.5q0 82 -39 130t-121 48zM630 993q86 0 155.5 -23t119 -68.5t76.5 -115t27 -161.5q0 -128 -35 -245.5
t-103.5 -207.5t-170.5 -143.5t-236 -53.5q-85 0 -155 23t-119.5 68.5t-76.5 114.5t-27 162q0 128 35 245.5t103.5 207.5t170.5 143.5t236 53.5zM680 1256q59 0 103.5 42t70.5 129h213q-18 -73 -53.5 -135t-88 -107t-120.5 -70t-150 -25q-80 0 -138.5 25t-90.5 69.5
t-40.5 92.5t-7.5 75q0 36 7 75h193q-3 -26 -3 -51q0 -54 25.5 -87t79.5 -33zM166 969z" />
    <glyph glyph-name="ohungarumlaut" unicode="&#x151;" horiz-adv-x="1048" 
d="M610 799q-48 0 -88 -19t-72 -52.5t-55.5 -77.5t-39.5 -94.5t-24 -103.5t-8 -104q0 -83 38.5 -131t121.5 -48q48 0 88 19t72 52.5t56 77.5t39.5 94.5t23.5 104t8 104.5q0 82 -39 130t-121 48zM630 993q86 0 155.5 -23t119 -68.5t76.5 -115t27 -161.5q0 -128 -35 -245.5
t-103.5 -207.5t-170.5 -143.5t-236 -53.5q-85 0 -155 23t-119.5 68.5t-76.5 114.5t-27 162q0 128 35 245.5t103.5 207.5t170.5 143.5t236 53.5zM836 1473l-238 -349h-178l192 349h224zM1164 1473l-260 -349h-184l214 349h230zM265 969z" />
    <glyph glyph-name="oslash" unicode="&#xf8;" horiz-adv-x="1048" 
d="M1082 877l-100 -94q26 -70 26 -158q0 -128 -35 -245.5t-103.5 -207.5t-170.5 -143.5t-236 -53.5q-79 0 -144.5 19t-114.5 58l-82 -77l-110 116l99 93q-26 69 -26 159q0 128 35 245.5t103.5 207.5t170.5 143.5t236 53.5q79 0 144.5 -19.5t114.5 -58.5l83 78zM610 799
q-69 0 -122 -38t-89.5 -98.5t-57 -135.5t-24.5 -149l409 383q-20 18 -49 28t-67 10zM483 169q69 0 121.5 38t89.5 98t57 135t24 149l-408 -383q42 -37 116 -37z" />
    <glyph glyph-name="oslashacute" unicode="&#x1ff;" horiz-adv-x="1048" 
d="M1082 877l-100 -94q26 -70 26 -158q0 -128 -35 -245.5t-103.5 -207.5t-170.5 -143.5t-236 -53.5q-79 0 -144.5 19t-114.5 58l-82 -77l-110 116l99 93q-26 69 -26 159q0 128 35 245.5t103.5 207.5t170.5 143.5t236 53.5q79 0 144.5 -19.5t114.5 -58.5l83 78zM610 799
q-69 0 -122 -38t-89.5 -98.5t-57 -135.5t-24.5 -149l409 383q-20 18 -49 28t-67 10zM483 169q69 0 121.5 38t89.5 98t57 135t24 149l-408 -383q42 -37 116 -37zM997 1473l-238 -349h-190l192 349h236zM242 969z" />
    <glyph glyph-name="oe" unicode="&#x153;" horiz-adv-x="1653" 
d="M824 176q-30 -44 -67.5 -81t-84 -63.5t-102.5 -41.5t-122 -15q-80 0 -146.5 23t-114.5 68.5t-75 114.5t-27 162q0 128 34.5 245.5t102 207.5t166 143.5t225.5 53.5q65 0 115 -14t88 -39.5t64 -62t42 -80.5h4q31 43 70 79t86 62t102.5 40.5t119.5 14.5q72 0 131.5 -19
t102.5 -53.5t66.5 -83.5t23.5 -109q0 -81 -39.5 -145.5t-116.5 -110t-190 -69.5t-260 -24q-11 0 -43 1v-8q0 -53 15.5 -91.5t45 -63.5t71.5 -36.5t94 -11.5q70 0 155 17t159 53l-43 -208q-62 -25 -141.5 -40.5t-169.5 -15.5q-72 0 -127 15t-96 41.5t-69 63.5t-45 81h-4z
M610 799q-48 0 -88 -19t-72 -52.5t-55.5 -77.5t-39.5 -94.5t-24 -103.5t-8 -104q0 -83 38.5 -131t121.5 -48q48 0 88 19t72 52.5t56 77.5t39.5 94.5t23.5 104t8 104.5q0 82 -38.5 130t-121.5 48zM1390 728q0 33 -26 57t-79 24q-40 0 -81.5 -16t-78 -47.5t-65.5 -77
t-46 -104.5q106 0 178 14t116 37t63 52.5t19 60.5z" />
    <glyph glyph-name="racute" unicode="&#x155;" horiz-adv-x="734" 
d="M873 1473l-238 -349h-190l192 349h236zM118 969zM778 766q-43 10 -83 10q-36 0 -73 -8t-72 -26t-66 -47.5t-54 -73.5q-11 -21 -21.5 -51t-21.5 -83l-101 -487h-236l201 969h201v-122h4q57 69 127 107.5t164 38.5q37 0 77 -6z" />
    <glyph glyph-name="rcaron" unicode="&#x159;" horiz-adv-x="734" 
d="M657 1124h-206l-137 349h177l82 -212h4l170 212h193zM66 969zM778 766q-43 10 -83 10q-36 0 -73 -8t-72 -26t-66 -47.5t-54 -73.5q-11 -21 -21.5 -51t-21.5 -83l-101 -487h-236l201 969h201v-122h4q57 69 127 107.5t164 38.5q37 0 77 -6z" />
    <glyph glyph-name="rcommaaccent" unicode="&#x157;" horiz-adv-x="734" 
d="M68 -332q0 54 -67 54l35 169q17 1 32 1q53 0 90.5 -11.5t61.5 -32.5t35 -49.5t11 -62.5q0 -60 -29.5 -114.5t-80.5 -111.5h-184q19 21 36 42t30.5 41t21.5 39t8 36zM778 766q-43 10 -83 10q-36 0 -73 -8t-72 -26t-66 -47.5t-54 -73.5q-11 -21 -21.5 -51t-21.5 -83
l-101 -487h-236l201 969h201v-122h4q57 69 127 107.5t164 38.5q37 0 77 -6z" />
    <glyph glyph-name="sacute" unicode="&#x15b;" horiz-adv-x="857" 
d="M880 1473l-238 -349h-190l192 349h236zM125 969zM543 294q0 30 -19 49t-49 33.5t-68.5 26.5t-77.5 27q-36 14 -69.5 33t-60 47.5t-42 67.5t-15.5 94q0 82 31 142.5t83 100t121 59t145 19.5q43 0 86.5 -5.5t85 -15t79.5 -22t69 -27.5l-38 -185q-75 31 -147.5 47t-136.5 16
q-69 0 -106.5 -28t-37.5 -73q0 -27 13.5 -45.5t36 -32.5t52 -25l61.5 -23q41 -15 83 -33t76 -47.5t55.5 -72.5t21.5 -108q0 -83 -31.5 -146t-89.5 -106t-138 -64.5t-178 -21.5q-55 0 -104 6t-88.5 15t-69 19t-46.5 18l39 189q66 -26 133.5 -40.5t136.5 -14.5q100 0 152 33.5
t52 93.5z" />
    <glyph glyph-name="scircumflex" unicode="&#x15d;" horiz-adv-x="857" 
d="M520 1473h206l137 -349h-178l-82 212h-4l-170 -212h-192zM62 969zM543 294q0 30 -19 49t-49 33.5t-68.5 26.5t-77.5 27q-36 14 -69.5 33t-60 47.5t-42 67.5t-15.5 94q0 82 31 142.5t83 100t121 59t145 19.5q43 0 86.5 -5.5t85 -15t79.5 -22t69 -27.5l-38 -185
q-75 31 -147.5 47t-136.5 16q-69 0 -106.5 -28t-37.5 -73q0 -27 13.5 -45.5t36 -32.5t52 -25l61.5 -23q41 -15 83 -33t76 -47.5t55.5 -72.5t21.5 -108q0 -83 -31.5 -146t-89.5 -106t-138 -64.5t-178 -21.5q-55 0 -104 6t-88.5 15t-69 19t-46.5 18l39 189q66 -26 133.5 -40.5
t136.5 -14.5q100 0 152 33.5t52 93.5z" />
    <glyph glyph-name="scaron" unicode="&#x161;" horiz-adv-x="857" 
d="M661 1124h-206l-137 349h177l82 -212h4l170 212h193zM70 969zM543 294q0 30 -19 49t-49 33.5t-68.5 26.5t-77.5 27q-36 14 -69.5 33t-60 47.5t-42 67.5t-15.5 94q0 82 31 142.5t83 100t121 59t145 19.5q43 0 86.5 -5.5t85 -15t79.5 -22t69 -27.5l-38 -185
q-75 31 -147.5 47t-136.5 16q-69 0 -106.5 -28t-37.5 -73q0 -27 13.5 -45.5t36 -32.5t52 -25l61.5 -23q41 -15 83 -33t76 -47.5t55.5 -72.5t21.5 -108q0 -83 -31.5 -146t-89.5 -106t-138 -64.5t-178 -21.5q-55 0 -104 6t-88.5 15t-69 19t-46.5 18l39 189q66 -26 133.5 -40.5
t136.5 -14.5q100 0 152 33.5t52 93.5z" />
    <glyph glyph-name="scedilla" unicode="&#x15f;" horiz-adv-x="857" 
d="M543 294q0 30 -19 49t-49 33t-68.5 26.5t-77.5 27.5q-36 14 -69.5 33t-60 47.5t-42 67.5t-15.5 94q0 82 31 142.5t83 100t121 59t145 19.5q43 0 86.5 -5.5t85 -15t79.5 -22t69 -27.5l-38 -185q-75 31 -147.5 47t-136.5 16q-69 0 -106.5 -28t-37.5 -73q0 -27 13.5 -45.5
t36 -32.5t51 -25l62.5 -23q42 -15 83.5 -33t75.5 -47.5t55.5 -72.5t21.5 -108q0 -76 -26.5 -135t-75.5 -101.5t-117.5 -67t-152.5 -31.5l-36 -96q48 -5 81 -18t53.5 -33.5t30 -46.5t9.5 -56q0 -47 -23.5 -87t-66.5 -69t-103.5 -45.5t-134.5 -16.5q-39 0 -79.5 6t-61.5 15
l29 142q44 -15 108 -15q68 0 106 21t38 51q0 56 -170 55l72 194q-81 8 -139.5 24t-85.5 30l39 189q66 -26 133.5 -40.5t136.5 -14.5q100 0 152 33.5t52 93.5z" />
    <glyph glyph-name="scommaaccent" unicode="&#x219;" horiz-adv-x="857" 
d="M281 -332q0 54 -67 54l35 169q17 1 32 1q53 0 90.5 -11.5t61.5 -32.5t35 -49.5t11 -62.5q0 -60 -29.5 -114.5t-80.5 -111.5h-184q19 21 36 42t30.5 41t21.5 39t8 36zM543 294q0 30 -19 49t-49 33.5t-68.5 26.5t-77.5 27q-36 14 -69.5 33t-60 47.5t-42 67.5t-15.5 94
q0 82 31 142.5t83 100t121 59t145 19.5q43 0 86.5 -5.5t85 -15t79.5 -22t69 -27.5l-38 -185q-75 31 -147.5 47t-136.5 16q-69 0 -106.5 -28t-37.5 -73q0 -27 13.5 -45.5t36 -32.5t52 -25l61.5 -23q41 -15 83 -33t76 -47.5t55.5 -72.5t21.5 -108q0 -83 -31.5 -146t-89.5 -106
t-138 -64.5t-178 -21.5q-55 0 -104 6t-88.5 15t-69 19t-46.5 18l39 189q66 -26 133.5 -40.5t136.5 -14.5q100 0 152 33.5t52 93.5z" />
    <glyph glyph-name="germandbls" unicode="&#xdf;" horiz-adv-x="1297" 
d="M1205 1185q0 -49 -12.5 -89t-33.5 -74t-47.5 -62.5t-54.5 -53.5l-57.5 -50t-51 -48.5t-36 -50t-13.5 -54.5q0 -28 12.5 -49.5t32.5 -39t46.5 -33l54.5 -32.5q31 -18 61 -40t53.5 -52t38 -70.5t14.5 -95.5q0 -72 -27.5 -130t-80 -99.5t-129 -64t-174.5 -22.5
q-46 0 -87.5 4.5t-79 12.5t-66.5 17.5t-49 19.5l39 189q60 -26 118 -38.5t121 -12.5q94 0 138.5 33t44.5 89q0 32 -15.5 54.5t-40.5 40.5t-56 34t-63 35q-27 16 -52 36t-44 46t-30.5 60.5t-11.5 80.5q0 57 17.5 102t45 82t61 68l66.5 59l44 41t37 41.5t25.5 45t9.5 50.5
q0 53 -40.5 83.5t-116.5 30.5q-44 0 -85.5 -12t-76.5 -40t-61 -74.5t-41 -117.5l-237 -1143q-15 -74 -35 -127t-48 -92q-63 -90 -158 -126.5t-210 -36.5q-54 0 -103.5 9t-80.5 21l40 189q34 -13 69 -19t64 -6q56 0 95 15t66.5 46t45.5 78t31 112l229 1099q24 114 70.5 193.5
t111 130t144.5 73t171 22.5q97 0 169.5 -23t121 -62t73 -91.5t24.5 -111.5z" />
    <glyph glyph-name="longs" unicode="&#x17f;" horiz-adv-x="628" 
d="M282 -148q-16 -77 -37 -131t-53 -93q-48 -59 -121.5 -88.5t-181.5 -29.5q-53 0 -105 9t-84 23l40 189q81 -27 143 -27q40 0 68.5 12.5t48.5 38t33.5 64.5t24.5 93l253 1213q22 105 64 172.5t96 106.5t114.5 54t118.5 15q48 0 95 -8.5t77 -19.5l-38 -184q-26 8 -52.5 13
t-55.5 5q-33 0 -62.5 -8.5t-53.5 -28.5t-42 -54t-29 -84z" />
    <glyph glyph-name="tcaron" unicode="&#x165;" horiz-adv-x="765" 
d="M764 774h-252l-96 -467q-5 -22 -7.5 -38.5t-2.5 -28.5q0 -37 20 -51.5t70 -14.5q34 0 87 7.5t95 17.5l-39 -197q-48 -13 -104.5 -20t-106.5 -7q-69 0 -119 14.5t-82.5 41.5t-48 66t-15.5 88q0 17 2 40.5t9 56.5l102 492h-181l41 195h180l57 271h236l-56 -271h252z
M780 1224q0 54 -67 54l35 169q16 1 20 1h12q52 0 90 -11.5t62 -32.5t35 -49.5t11 -62.5q0 -58 -29.5 -113.5t-80.5 -112.5h-184q19 21 36 42t30.5 41t21.5 39.5t8 35.5zM582 969z" />
    <glyph glyph-name="tcommaaccent" unicode="&#x163;" horiz-adv-x="765" 
d="M764 774h-252l-96 -467q-5 -22 -7.5 -38.5t-2.5 -28.5q0 -37 20 -51.5t70 -14.5q34 0 87 7.5t95 17.5l-39 -197q-48 -13 -104.5 -20t-106.5 -7q-69 0 -119 14.5t-82.5 41.5t-48 66t-15.5 88q0 17 2 40.5t9 56.5l102 492h-181l41 195h180l57 271h236l-56 -271h252z
M278 -332q0 54 -67 54l35 169q17 1 32 1q53 0 90.5 -11.5t61.5 -32.5t35 -49.5t11 -62.5q0 -60 -29.5 -114.5t-80.5 -111.5h-184q19 21 36 42t30.5 41t21.5 39t8 36z" />
    <glyph glyph-name="tcommaaccent" unicode="&#x21b;" horiz-adv-x="765" 
d="M764 774h-252l-96 -467q-5 -22 -7.5 -38.5t-2.5 -28.5q0 -37 20 -51.5t70 -14.5q34 0 87 7.5t95 17.5l-39 -197q-48 -13 -104.5 -20t-106.5 -7q-69 0 -119 14.5t-82.5 41.5t-48 66t-15.5 88q0 17 2 40.5t9 56.5l102 492h-181l41 195h180l57 271h236l-56 -271h252z
M278 -332q0 54 -67 54l35 169q17 1 32 1q53 0 90.5 -11.5t61.5 -32.5t35 -49.5t11 -62.5q0 -60 -29.5 -114.5t-80.5 -111.5h-184q19 21 36 42t30.5 41t21.5 39t8 36z" />
    <glyph glyph-name="tbar" unicode="&#x167;" horiz-adv-x="765" 
d="M764 774h-252l-39 -189h204l-40 -187h-203l-18 -91q-5 -22 -7.5 -38.5t-2.5 -28.5q0 -37 20 -51.5t70 -14.5q32 0 83.5 7t98.5 18l-39 -197q-43 -12 -102 -19.5t-109 -7.5q-69 0 -119 14.5t-82.5 41.5t-48 66t-15.5 88q0 17 2 40.5t9 56.5l24 116h-173l40 187h172l39 189
h-181l41 195h180l57 271h236l-56 -271h252z" />
    <glyph glyph-name="ugrave" unicode="&#xf9;" horiz-adv-x="1075" 
d="M467 -25q-96 0 -164.5 21.5t-112.5 60.5t-64.5 93.5t-20.5 119.5q0 21 3.5 48t11.5 69l120 582h236l-122 -590q-5 -24 -7 -44.5t-2 -37.5q0 -60 33 -94t107 -34q52 0 89.5 14.5t63.5 42t42.5 67t26.5 88.5l122 588h236l-135 -653q-14 -66 -43.5 -127.5t-83.5 -109
t-136 -76t-200 -28.5zM724 1473l46 -349h-176l-92 349h222zM113 969z" />
    <glyph glyph-name="uacute" unicode="&#xfa;" horiz-adv-x="1075" 
d="M467 -25q-96 0 -164.5 21.5t-112.5 60.5t-64.5 93.5t-20.5 119.5q0 21 3.5 48t11.5 69l120 582h236l-122 -590q-5 -24 -7 -44.5t-2 -37.5q0 -60 33 -94t107 -34q52 0 89.5 14.5t63.5 42t42.5 67t26.5 88.5l122 588h236l-135 -653q-14 -66 -43.5 -127.5t-83.5 -109
t-136 -76t-200 -28.5zM994 1473l-238 -349h-190l192 349h236zM239 969z" />
    <glyph glyph-name="ucircumflex" unicode="&#xfb;" horiz-adv-x="1075" 
d="M467 -25q-96 0 -164.5 21.5t-112.5 60.5t-64.5 93.5t-20.5 119.5q0 21 3.5 48t11.5 69l120 582h236l-122 -590q-5 -24 -7 -44.5t-2 -37.5q0 -60 33 -94t107 -34q52 0 89.5 14.5t63.5 42t42.5 67t26.5 88.5l122 588h236l-135 -653q-14 -66 -43.5 -127.5t-83.5 -109
t-136 -76t-200 -28.5zM640 1473h206l137 -349h-178l-82 212h-4l-170 -212h-192zM182 969z" />
    <glyph glyph-name="utilde" unicode="&#x169;" horiz-adv-x="1075" 
d="M467 -25q-96 0 -164.5 21.5t-112.5 60.5t-64.5 93.5t-20.5 119.5q0 21 3.5 48t11.5 69l120 582h236l-122 -590q-5 -24 -7 -44.5t-2 -37.5q0 -60 33 -94t107 -34q52 0 89.5 14.5t63.5 42t42.5 67t26.5 88.5l122 588h236l-135 -653q-14 -66 -43.5 -127.5t-83.5 -109
t-136 -76t-200 -28.5zM357 1161q6 54 24.5 99.5t47 78t66.5 50t84 17.5q23 0 47 -5.5t45 -14.5t40 -19.5l36 -20.5q23 -14 43.5 -23t38.5 -9q28 0 45.5 19t26.5 65h163q-6 -54 -24.5 -99.5t-47 -78t-66.5 -50t-84 -17.5q-23 0 -47 5.5t-45 14.5t-40 19.5l-36 20.5
q-23 14 -43.5 23t-38.5 9q-28 0 -45.5 -19t-26.5 -65h-163zM224 969z" />
    <glyph glyph-name="udieresis" unicode="&#xfc;" horiz-adv-x="1075" 
d="M467 -25q-96 0 -164.5 21.5t-112.5 60.5t-64.5 93.5t-20.5 119.5q0 21 3.5 48t11.5 69l120 582h236l-122 -590q-5 -24 -7 -44.5t-2 -37.5q0 -60 33 -94t107 -34q52 0 89.5 14.5t63.5 42t42.5 67t26.5 88.5l122 588h236l-135 -653q-14 -66 -43.5 -127.5t-83.5 -109
t-136 -76t-200 -28.5zM414 1412h218l-47 -221h-218zM824 1412h218l-47 -221h-218zM180 969z" />
    <glyph glyph-name="umacron" unicode="&#x16b;" horiz-adv-x="1075" 
d="M467 -25q-96 0 -164.5 21.5t-112.5 60.5t-64.5 93.5t-20.5 119.5q0 21 3.5 48t11.5 69l120 582h236l-122 -590q-5 -24 -7 -44.5t-2 -37.5q0 -60 33 -94t107 -34q52 0 89.5 14.5t63.5 42t42.5 67t26.5 88.5l122 588h236l-135 -653q-14 -66 -43.5 -127.5t-83.5 -109
t-136 -76t-200 -28.5zM443 1338h560l-35 -167h-560zM181 969z" />
    <glyph glyph-name="ubreve" unicode="&#x16d;" horiz-adv-x="1075" 
d="M467 -25q-96 0 -164.5 21.5t-112.5 60.5t-64.5 93.5t-20.5 119.5q0 21 3.5 48t11.5 69l120 582h236l-122 -590q-5 -24 -7 -44.5t-2 -37.5q0 -60 33 -94t107 -34q52 0 89.5 14.5t63.5 42t42.5 67t26.5 88.5l122 588h236l-135 -653q-14 -66 -43.5 -127.5t-83.5 -109
t-136 -76t-200 -28.5zM690 1256q59 0 103.5 42t70.5 129h213q-18 -73 -53.5 -135t-88 -107t-120.5 -70t-150 -25q-80 0 -138.5 25t-90.5 69.5t-40.5 92.5t-7.5 75q0 36 7 75h193q-3 -26 -3 -51q0 -54 25.5 -87t79.5 -33zM176 969z" />
    <glyph glyph-name="uring" unicode="&#x16f;" horiz-adv-x="1075" 
d="M467 -25q-96 0 -164.5 21.5t-112.5 60.5t-64.5 93.5t-20.5 119.5q0 21 3.5 48t11.5 69l120 582h236l-122 -590q-5 -24 -7 -44.5t-2 -37.5q0 -60 33 -94t107 -34q52 0 89.5 14.5t63.5 42t42.5 67t26.5 88.5l122 588h236l-135 -653q-14 -66 -43.5 -127.5t-83.5 -109
t-136 -76t-200 -28.5zM729 1500q107 0 164.5 -48.5t57.5 -129.5q0 -40 -17.5 -81.5t-52 -75t-86 -54.5t-120.5 -21q-107 0 -164.5 48.5t-57.5 129.5q0 41 17.5 82t52 74.5t86 54.5t120.5 21zM721 1387q-29 0 -51.5 -9t-38.5 -25t-24 -36t-8 -43q0 -32 20.5 -51.5t63.5 -19.5
q29 0 51.5 9t38.5 25t24 36.5t8 42.5q0 32 -20.5 51.5t-63.5 19.5zM181 969z" />
    <glyph glyph-name="uhungarumlaut" unicode="&#x171;" horiz-adv-x="1075" 
d="M467 -25q-96 0 -164.5 21.5t-112.5 60.5t-64.5 93.5t-20.5 119.5q0 21 3.5 48t11.5 69l120 582h236l-122 -590q-5 -24 -7 -44.5t-2 -37.5q0 -60 33 -94t107 -34q52 0 89.5 14.5t63.5 42t42.5 67t26.5 88.5l122 588h236l-135 -653q-14 -66 -43.5 -127.5t-83.5 -109
t-136 -76t-200 -28.5zM835 1473l-238 -349h-178l192 349h224zM1163 1473l-260 -349h-184l214 349h230zM264 969z" />
    <glyph glyph-name="uogonek" unicode="&#x173;" horiz-adv-x="1075" 
d="M453 -23q-91 0 -157 22t-108.5 61t-62.5 93t-20 117q0 21 3.5 48t11.5 69l120 582h236l-122 -590q-5 -22 -7 -43.5t-2 -38.5q0 -60 33 -94t107 -34q52 0 89.5 14.5t63.5 42t42.5 67t26.5 88.5l122 588h236l-135 -653q-13 -62 -35.5 -108.5t-50.5 -81.5t-60.5 -61
t-62.5 -45l-98 -64t-88 -68.5t-63.5 -74.5t-24.5 -80q0 -30 17 -44t49 -14q22 0 51.5 6.5t51.5 16.5l-33 -162q-26 -11 -64 -18.5t-74 -7.5q-42 0 -79 11t-63 32.5t-41 53t-15 71.5t15.5 81t43 80t65 73t82.5 61v4z" />
    <glyph glyph-name="wgrave" unicode="&#x1e81;" horiz-adv-x="1497" 
d="M828 0l-29 395q-9 145 -14 287h-6q-34 -108 -101 -280l-160 -402h-231l-187 969h237l66 -388q23 -144 37 -285h6q43 136 98 275l164 398h237l29 -363q11 -138 19 -312h6q79 187 148 319l189 356h266l-550 -969h-224zM903 1473l46 -349h-176l-92 349h222zM292 969z" />
    <glyph glyph-name="wacute" unicode="&#x1e83;" horiz-adv-x="1497" 
d="M828 0l-29 395q-9 145 -14 287h-6q-34 -108 -101 -280l-160 -402h-231l-187 969h237l66 -388q23 -144 37 -285h6q43 136 98 275l164 398h237l29 -363q11 -138 19 -312h6q79 187 148 319l189 356h266l-550 -969h-224zM1192 1473l-238 -349h-190l192 349h236zM437 969z" />
    <glyph glyph-name="wcircumflex" unicode="&#x175;" horiz-adv-x="1497" 
d="M828 0l-29 395q-9 145 -14 287h-6q-34 -108 -101 -280l-160 -402h-231l-187 969h237l66 -388q23 -144 37 -285h6q43 136 98 275l164 398h237l29 -363q11 -138 19 -312h6q79 187 148 319l189 356h266l-550 -969h-224zM815 1473h206l137 -349h-178l-82 212h-4l-170 -212
h-192zM357 969z" />
    <glyph glyph-name="wdieresis" unicode="&#x1e85;" horiz-adv-x="1497" 
d="M828 0l-29 395q-9 145 -14 287h-6q-34 -108 -101 -280l-160 -402h-231l-187 969h237l66 -388q23 -144 37 -285h6q43 136 98 275l164 398h237l29 -363q11 -138 19 -312h6q79 187 148 319l189 356h266l-550 -969h-224zM594 1412h218l-47 -221h-218zM1004 1412h218l-47 -221
h-218zM360 969z" />
    <glyph glyph-name="ygrave" unicode="&#x1ef3;" horiz-adv-x="1006" 
d="M97 969h241l89 -425q29 -140 48 -257h6q56 116 124 243l239 439h267l-569 -1002q-57 -100 -114.5 -184t-125.5 -144.5t-150 -94.5t-186 -34q-77 0 -126 13l40 188q38 -7 77 -7q57 0 103.5 19.5t88 58.5t80.5 97.5t82 137.5zM663 1473l46 -349h-176l-92 349h222zM52 969z
" />
    <glyph glyph-name="yacute" unicode="&#xfd;" horiz-adv-x="1006" 
d="M97 969h241l89 -425q29 -140 48 -257h6q56 116 124 243l239 439h267l-569 -1002q-57 -100 -114.5 -184t-125.5 -144.5t-150 -94.5t-186 -34q-77 0 -126 13l40 188q38 -7 77 -7q57 0 103.5 19.5t88 58.5t80.5 97.5t82 137.5zM932 1473l-238 -349h-190l192 349h236z
M177 969z" />
    <glyph glyph-name="ycircumflex" unicode="&#x177;" horiz-adv-x="1006" 
d="M97 969h241l89 -425q29 -140 48 -257h6q56 116 124 243l239 439h267l-569 -1002q-57 -100 -114.5 -184t-125.5 -144.5t-150 -94.5t-186 -34q-77 0 -126 13l40 188q38 -7 77 -7q57 0 103.5 19.5t88 58.5t80.5 97.5t82 137.5zM567 1473h206l137 -349h-178l-82 212h-4
l-170 -212h-192zM109 969z" />
    <glyph glyph-name="ydieresis" unicode="&#xff;" horiz-adv-x="1006" 
d="M97 969h241l89 -425q29 -140 48 -257h6q56 116 124 243l239 439h267l-569 -1002q-57 -100 -114.5 -184t-125.5 -144.5t-150 -94.5t-186 -34q-77 0 -126 13l40 188q38 -7 77 -7q57 0 103.5 19.5t88 58.5t80.5 97.5t82 137.5zM353 1412h218l-47 -221h-218zM763 1412h218
l-47 -221h-218zM119 969z" />
    <glyph glyph-name="zacute" unicode="&#x17a;" horiz-adv-x="934" 
d="M589 774h-434l41 195h743l-31 -147l-556 -627h474l-40 -195h-791l28 134zM905 1473l-238 -349h-190l192 349h236zM150 969z" />
    <glyph glyph-name="zcaron" unicode="&#x17e;" horiz-adv-x="934" 
d="M589 774h-434l41 195h743l-31 -147l-556 -627h474l-40 -195h-791l28 134zM692 1124h-206l-137 349h177l82 -212h4l170 212h193zM101 969z" />
    <glyph glyph-name="zdotaccent" unicode="&#x17c;" horiz-adv-x="934" 
d="M589 774h-434l41 195h743l-31 -147l-556 -627h474l-40 -195h-791l28 134zM471 1191l52 257h248l-52 -257h-248zM99 969z" />
    <glyph glyph-name="eng" unicode="&#x14b;" horiz-adv-x="1103" 
d="M497 -219q38 0 64.5 12.5t45.5 38t32 65t24 92.5l124 601q7 31 10 55.5t3 41.5q0 51 -28 79t-88 28q-74 0 -136.5 -40t-104.5 -108q-8 -13 -15.5 -28t-14.5 -34t-13.5 -43.5t-13.5 -57.5l-100 -483h-236l201 969h201v-122h4q24 29 56.5 55.5t71.5 46.5t84.5 32t95.5 12
q57 0 107.5 -16.5t89 -48.5t60.5 -78t22 -106q0 -37 -7 -82t-16 -90l-135 -648q-12 -58 -33 -117.5t-62 -108.5t-109.5 -80t-170.5 -31q-30 0 -59 3t-49 9l40 189q26 -7 55 -7z" />
    <glyph glyph-name="eth" unicode="&#xf0;" horiz-adv-x="1050" 
d="M1077 1203l-197 -42q56 -109 92 -238.5t36 -280.5q0 -144 -36.5 -267t-106 -212t-171 -139t-231.5 -50q-84 0 -153.5 22.5t-119.5 68.5t-77.5 116t-27.5 166q0 124 36 231.5t99 187t148.5 125t184.5 45.5q59 0 107.5 -18.5t84.5 -50.5l3 2q-18 64 -44.5 124.5
t-60.5 118.5l-247 -52l-39 168l182 38q-38 51 -79 95.5l-83 86.5h295q56 -56 110 -131l257 54zM605 742q-69 0 -121.5 -36t-88.5 -92t-54 -125.5t-18 -136.5q0 -184 160 -184q69 0 122.5 36t90 92.5t55.5 126t19 137.5q0 91 -43 136.5t-122 45.5z" />
    <glyph glyph-name="thorn" unicode="&#xfe;" horiz-adv-x="1049" 
d="M714 993q69 0 124 -25t93 -71t58 -110.5t20 -144.5q0 -77 -15 -156.5t-44.5 -153.5t-72.5 -139t-99.5 -113.5t-126.5 -76.5t-151 -28q-64 0 -116 19t-88 50h-4l-106 -509h-236l396 1913h236l-89 -420q-12 -54 -37 -146h4q18 20 44.5 40t59 36t70.5 25.5t80 9.5zM647 799
q-37 0 -76.5 -15t-75 -50t-64.5 -92.5t-46 -141.5l-56 -275q27 -24 63.5 -40t83.5 -16q46 0 85.5 20.5t72 55t58 80t43.5 97.5t27 106t9 105q0 78 -28.5 122t-95.5 44z" />
    <glyph glyph-name="A.c2sc" horiz-adv-x="1099" 
d="M707 246h-393l-134 -246h-265l594 1066h271l214 -1066h-241zM421 447h250l-22 122q-24 133 -39 244h-3q-38 -89 -126 -254z" />
    <glyph glyph-name="B.c2sc" horiz-adv-x="1108" 
d="M595 642q57 0 95.5 12t62 31.5t33.5 44t10 50.5q0 54 -55 75q-37 14 -105 14h-163l-48 -227h170zM385 445l-52 -248h125q67 0 122 7.5t94 25.5t60.5 48t21.5 75q0 32 -17.5 52.5t-46.5 29.5q-33 10 -90 10h-217zM1033 808q0 -95 -49 -158.5t-140 -101.5v-4
q72 -19 110.5 -71.5t38.5 -120.5q0 -84 -38 -149.5t-109 -110.5t-174 -68.5t-234 -23.5h-383l221 1066h379q64 0 112.5 -7t86.5 -21q88 -30 133.5 -89.5t45.5 -140.5z" />
    <glyph glyph-name="C.c2sc" horiz-adv-x="994" 
d="M751 887q-101 0 -179 -39.5t-130.5 -105.5t-79.5 -150.5t-27 -174.5q0 -65 18 -110.5t51.5 -74t82.5 -41t111 -12.5q68 0 136 12.5t137 34.5l-44 -211q-62 -22 -131.5 -31t-139.5 -9q-102 0 -187 26t-145.5 78.5t-94.5 131.5t-34 185q0 86 17.5 171t52.5 162t88 143.5
t124 115t160.5 76t197.5 27.5q72 0 143 -12t124 -31l-40 -197q-51 17 -102.5 26.5t-108.5 9.5z" />
    <glyph glyph-name="D.c2sc" horiz-adv-x="1193" 
d="M334 201h105q54 0 94.5 5t74.5 16q74 23 128.5 66.5t90 100.5t52.5 124.5t17 139.5q0 108 -65.5 160t-210.5 52h-147zM628 1066q71 0 128.5 -7t106.5 -23q61 -19 111 -52t85 -80t54.5 -109.5t19.5 -141.5q0 -111 -30 -212t-90 -183.5t-149.5 -142t-208.5 -89.5
q-106 -26 -254 -26h-346l221 1066h352z" />
    <glyph glyph-name="E.c2sc" horiz-adv-x="999" 
d="M333 197h535l-41 -197h-772l221 1066h743l-41 -197h-506l-47 -227h430l-41 -197h-430z" />
    <glyph glyph-name="F.c2sc" horiz-adv-x="942" 
d="M55 0l221 1066h726l-41 -199h-489l-49 -235h415l-42 -199h-415l-89 -433h-237z" />
    <glyph glyph-name="G.c2sc" horiz-adv-x="1181" 
d="M765 1091q104 0 188.5 -16t137.5 -36l-42 -200q-68 25 -137 36.5t-129 11.5q-99 0 -181.5 -36t-142 -100t-92 -151.5t-32.5 -186.5q0 -123 58 -178.5t165 -55.5q58 0 100 11t71.5 33t47.5 54.5t27 75.5l7 34h-227l40 201h466l-53 -257q-21 -103 -68.5 -172t-113.5 -109.5
t-146.5 -57.5t-169.5 -17q-104 0 -186.5 26.5t-139.5 79t-87.5 130t-30.5 179.5q0 154 49.5 283.5t138.5 222t212 144t270 51.5z" />
    <glyph glyph-name="H.c2sc" horiz-adv-x="1234" 
d="M425 642h464l87 424h238l-221 -1066h-237l91 441h-464l-91 -441h-237l221 1066h237z" />
    <glyph glyph-name="I.c2sc" horiz-adv-x="533" 
d="M55 0l221 1066h237l-221 -1066h-237z" />
    <glyph glyph-name="J.c2sc" horiz-adv-x="710" 
d="M453 1066h237l-172 -830q-15 -72 -48.5 -122t-80.5 -81t-106.5 -44.5t-125.5 -13.5q-60 0 -106 9t-81 23l41 200q30 -14 61.5 -21t66.5 -7q28 0 53 6.5t46 23t36.5 45t24.5 71.5z" />
    <glyph glyph-name="K.c2sc" horiz-adv-x="1064" 
d="M634 520l332 -520h-264l-304 493h-4l-102 -493h-237l221 1066h237l-98 -474h4l434 474h291z" />
    <glyph glyph-name="L.c2sc" horiz-adv-x="949" 
d="M513 1066l-179 -865h535l-42 -201h-772l221 1066h237z" />
    <glyph glyph-name="M.c2sc" horiz-adv-x="1486" 
d="M1466 1066l-221 -1066h-237l120 536q29 128 70 285h-10q-70 -144 -169 -323l-277 -498h-161l-96 576q-18 113 -30 245h-10q-15 -140 -45 -289l-108 -532h-237l221 1066h330l45 -294q44 -273 62 -444h8q89 185 211 406l184 332h350z" />
    <glyph glyph-name="N.c2sc" horiz-adv-x="1287" 
d="M291 0h-236l221 1066h270l206 -462q64 -145 126 -322h6q13 142 49 319l97 465h237l-221 -1066h-269l-207 465q-78 177 -127 320h-6q-12 -147 -48 -317z" />
    <glyph glyph-name="O.c2sc" horiz-adv-x="1215" 
d="M526 -25q-98 0 -177.5 25.5t-136 76.5t-87 126t-30.5 174q0 69 14.5 148.5t45.5 158.5t80 152.5t119 130t162 90.5t208 34q98 0 178 -25.5t136 -76.5t86.5 -126t30.5 -174q0 -68 -14.5 -148t-45.5 -159t-80 -152.5t-119 -130t-162 -90.5t-208 -34zM547 179q88 0 156.5 46
t115.5 118t71.5 158.5t24.5 167.5q0 110 -57 164t-155 54q-88 0 -156.5 -46t-115.5 -118t-71.5 -158.5t-24.5 -167.5q0 -110 57 -164t155 -54z" />
    <glyph glyph-name="P.c2sc" horiz-adv-x="1071" 
d="M292 0h-237l221 1066h362q95 0 170 -17.5t126.5 -53t79 -89t27.5 -125.5q0 -88 -37 -161.5t-106.5 -127t-169 -83.5t-222.5 -30q-75 0 -134 10zM414 589q48 -9 111 -9q138 0 208.5 51t70.5 132q0 64 -66 88q-38 14 -116 14h-151z" />
    <glyph glyph-name="Q.c2sc" horiz-adv-x="1249" 
d="M920 166q100 34 259 36l-44 -216q-132 14 -251 14q-40 0 -83.5 -3t-88 -6.5t-88 -6.5t-82.5 -3q-99 0 -181 23t-141 71.5t-92 123.5t-33 178q0 70 14.5 149.5t45.5 159t80.5 153t119.5 129.5t161.5 89.5t207.5 33.5q98 0 178 -25.5t136 -76.5t86.5 -126t30.5 -174
q0 -81 -18 -158.5t-49.5 -145.5t-75 -124t-93.5 -92zM547 179q86 0 155.5 46t116.5 118t71.5 158.5t24.5 167.5q0 110 -57 164t-155 54q-88 0 -156.5 -46t-115.5 -118t-71.5 -158.5t-24.5 -167.5q0 -110 57 -164t155 -54z" />
    <glyph glyph-name="R.c2sc" horiz-adv-x="1109" 
d="M292 0h-237l221 1066h371q69 0 118.5 -5t86.5 -16q57 -16 96.5 -42.5t64 -60.5t35.5 -75t11 -87q0 -61 -19 -118.5t-59.5 -106t-103 -85t-148.5 -56.5v-4l220 -410h-256l-191 381h-131zM413 582h137q57 0 106.5 11t86.5 33t58 55.5t21 79.5q0 26 -9 45.5t-29 32.5
t-53.5 19.5t-82.5 6.5h-176z" />
    <glyph glyph-name="S.c2sc" horiz-adv-x="983" 
d="M626 324q0 35 -22 57.5t-58 38t-81.5 28t-90.5 27.5q-43 14 -83 34t-71 50.5t-50 74.5t-19 107q0 82 30 147t85 110t133 69t175 24q46 0 94 -6t94 -16t88.5 -23t77.5 -27l-43 -199q-76 29 -154.5 48t-153.5 19q-40 0 -75 -6.5t-60.5 -20.5t-40 -36.5t-14.5 -54.5
q0 -36 19 -59t50.5 -38.5t70.5 -27l84 -24.5q47 -14 92 -32.5t80.5 -49t57.5 -76t22 -113.5q0 -88 -35.5 -157.5t-99.5 -117.5t-153.5 -73.5t-197.5 -25.5q-57 0 -115.5 7t-104.5 18t-82 24t-55 26l40 199q61 -29 141 -49.5t163 -20.5q123 0 192.5 37.5t69.5 107.5z" />
    <glyph glyph-name="T.c2sc" horiz-adv-x="952" 
d="M141 1066h921l-41 -201h-342l-179 -865h-237l179 865h-342z" />
    <glyph glyph-name="U.c2sc" horiz-adv-x="1202" 
d="M535 179q65 0 113 17.5t82 51t56 81.5t34 109l130 628h237l-136 -659q-15 -73 -36.5 -129.5t-53.5 -102.5t-76 -83t-99.5 -63t-124 -40t-149.5 -14q-84 0 -157.5 21t-127.5 64.5t-85.5 109t-31.5 154.5q0 27 3.5 57.5t11.5 69.5l128 615h237l-129 -615q-6 -27 -8.5 -50
t-2.5 -43q0 -38 10 -71t32 -57t57 -37.5t86 -13.5z" />
    <glyph glyph-name="V.c2sc" horiz-adv-x="1092" 
d="M145 1066h233l79 -442l16 -96l15 -96l13 -85t9 -65h4l31 65l40 82.5l47 94l52 100.5l234 442h264l-589 -1066h-246z" />
    <glyph glyph-name="W.c2sc" horiz-adv-x="1554" 
d="M413 700q14 -119 23.5 -221.5t14.5 -169.5h6l22.5 63.5l31.5 85l39.5 102l45.5 112.5l163 394h235l14 -395q4 -115 6 -207t2 -154h6q13 33 32.5 78.5l43.5 98.5l51 110.5l55 112.5l181 356h259l-555 -1066h-252l-13 353q-2 49 -2.5 107.5t-0.5 114t1.5 102.5t2.5 72h-8
l-20.5 -62.5t-32.5 -92.5l-41.5 -113t-48.5 -124l-146 -357h-251l-147 1066h239z" />
    <glyph glyph-name="X.c2sc" horiz-adv-x="1064" 
d="M688 522l273 -522h-235l-192 373h-4l-332 -373h-278l507 555l-267 511h235l187 -361h4l320 361h278z" />
    <glyph glyph-name="Y.c2sc" horiz-adv-x="1009" 
d="M322 0l86 418l-268 648h231l177 -442l295 440l256 2l-454 -652l-86 -414h-237z" />
    <glyph glyph-name="Z.c2sc" horiz-adv-x="1040" 
d="M20 128l659 737h-506l42 201h835l-27 -128l-659 -737h530l-41 -201h-863z" />
    <glyph glyph-name="Agrave.c2sc" horiz-adv-x="1099" 
d="M707 246h-393l-134 -246h-265l594 1066h271l214 -1066h-241zM421 447h250l-22 122q-24 133 -39 244h-3q-38 -89 -126 -254zM715 1518l46 -349h-176l-92 349h222zM104 1014z" />
    <glyph glyph-name="Aacute.c2sc" horiz-adv-x="1099" 
d="M707 246h-393l-134 -246h-265l594 1066h271l214 -1066h-241zM421 447h250l-22 122q-24 133 -39 244h-3q-38 -89 -126 -254zM990 1518l-238 -349h-190l192 349h236zM235 1014z" />
    <glyph glyph-name="Acircumflex.c2sc" horiz-adv-x="1099" 
d="M707 246h-393l-134 -246h-265l594 1066h271l214 -1066h-241zM421 447h250l-22 122q-24 133 -39 244h-3q-38 -89 -126 -254zM630 1518h206l137 -349h-178l-82 212h-4l-170 -212h-192zM172 1014z" />
    <glyph glyph-name="Atilde.c2sc" horiz-adv-x="1099" 
d="M707 246h-393l-134 -246h-265l594 1066h271l214 -1066h-241zM421 447h250l-22 122q-24 133 -39 244h-3q-38 -89 -126 -254zM345 1206q6 54 24.5 99.5t47 78t66.5 50t84 17.5q23 0 47 -5.5t45 -14.5t40 -19.5l36 -20.5q23 -14 43.5 -23t38.5 -9q28 0 45.5 19t26.5 65h163
q-6 -54 -24.5 -99.5t-47 -78t-66.5 -50t-84 -17.5q-23 0 -47 5.5t-45 14.5t-40 19.5l-36 20.5q-23 14 -43.5 23t-38.5 9q-28 0 -45.5 -19t-26.5 -65h-163zM212 1014z" />
    <glyph glyph-name="Adieresis.c2sc" horiz-adv-x="1099" 
d="M707 246h-393l-134 -246h-265l594 1066h271l214 -1066h-241zM421 447h250l-22 122q-24 133 -39 244h-3q-38 -89 -126 -254zM406 1457h218l-47 -221h-218zM816 1457h218l-47 -221h-218zM172 1014z" />
    <glyph glyph-name="Amacron.c2sc" horiz-adv-x="1099" 
d="M707 246h-393l-134 -246h-265l594 1066h271l214 -1066h-241zM421 447h250l-22 122q-24 133 -39 244h-3q-38 -89 -126 -254zM414 1383h560l-35 -167h-560zM152 1014z" />
    <glyph glyph-name="Abreve.c2sc" horiz-adv-x="1099" 
d="M707 246h-393l-134 -246h-265l594 1066h271l214 -1066h-241zM421 447h250l-22 122q-24 133 -39 244h-3q-38 -89 -126 -254zM681 1301q59 0 103.5 42t70.5 129h213q-18 -73 -53.5 -135t-88 -107t-120.5 -70t-150 -25q-80 0 -138.5 25t-90.5 69.5t-40.5 92.5t-7.5 75
q0 36 7 75h193q-3 -26 -3 -51q0 -54 25.5 -87t79.5 -33zM167 1014z" />
    <glyph glyph-name="Aring.c2sc" horiz-adv-x="1099" 
d="M707 246h-393l-134 -246h-265l594 1066h271l214 -1066h-241zM421 447h250l-22 122q-24 133 -39 244h-3q-38 -89 -126 -254zM711 1545q107 0 164.5 -48.5t57.5 -129.5q0 -40 -17.5 -81.5t-52 -75t-86 -54.5t-120.5 -21q-107 0 -164.5 48.5t-57.5 129.5q0 41 17.5 82
t52 74.5t86 54.5t120.5 21zM703 1432q-29 0 -51.5 -9t-38.5 -25t-24 -36t-8 -43q0 -32 20.5 -51.5t63.5 -19.5q29 0 51.5 9t38.5 25t24 36.5t8 42.5q0 32 -20.5 51.5t-63.5 19.5zM163 1014z" />
    <glyph glyph-name="Aringacute.c2sc" horiz-adv-x="1099" 
d="M1072 1833l-255 -256h-162l202 256h215zM705 1522q107 0 164.5 -46t57.5 -124q0 -39 -17.5 -78.5t-52 -71.5t-86 -52t-120.5 -20q-107 0 -164.5 46t-57.5 124q0 39 17.5 78.5t52 71.5t86 52t120.5 20zM697 1411q-58 0 -90 -31t-32 -74q0 -30 20.5 -47.5t63.5 -17.5
q58 0 90 31t32 74q0 30 -20.5 47.5t-63.5 17.5zM707 246h-393l-134 -246h-265l594 1066h271l214 -1066h-241zM421 447h250l-22 122q-24 133 -39 244h-3q-38 -89 -126 -254z" />
    <glyph glyph-name="Aogonek.c2sc" horiz-adv-x="1099" 
d="M994 0q-52 -28 -98.5 -60t-81.5 -66t-55.5 -70t-20.5 -71q0 -30 17 -44t49 -14q23 0 52 6.5t51 16.5l-33 -162q-26 -11 -64 -18.5t-74 -7.5q-43 0 -79.5 11t-62.5 32.5t-41 53t-15 71.5q0 46 16.5 91t45.5 86.5t68.5 78.5t84.5 66l-46 246h-393l-134 -246h-265l594 1066
h271zM421 447h250l-22 122q-24 133 -39 244h-3q-38 -89 -126 -254z" />
    <glyph glyph-name="AE.c2sc" horiz-adv-x="1590" 
d="M970 197h522l-41 -197h-729l26 246h-380l-174 -246h-279l762 1066h908l-41 -197h-502l-24 -227h414l-41 -197h-394zM510 447h260l45 422h-6z" />
    <glyph glyph-name="AEacute.c2sc" horiz-adv-x="1590" 
d="M1438 1518l-238 -349h-190l192 349h236zM683 1014zM970 197h522l-41 -197h-729l26 246h-380l-174 -246h-279l762 1066h908l-41 -197h-502l-24 -227h414l-41 -197h-394zM510 447h260l45 422h-6z" />
    <glyph glyph-name="Cacute.c2sc" horiz-adv-x="994" 
d="M751 887q-101 0 -179 -39.5t-130.5 -105.5t-79.5 -150.5t-27 -174.5q0 -65 18 -110.5t51.5 -74t82.5 -41t111 -12.5q68 0 136 12.5t137 34.5l-44 -211q-62 -22 -131.5 -31t-139.5 -9q-102 0 -187 26t-145.5 78.5t-94.5 131.5t-34 185q0 86 17.5 171t52.5 162t88 143.5
t124 115t160.5 76t197.5 27.5q72 0 143 -12t124 -31l-40 -197q-51 17 -102.5 26.5t-108.5 9.5zM1057 1518l-238 -349h-190l192 349h236zM302 1014z" />
    <glyph glyph-name="Ccircumflex.c2sc" horiz-adv-x="994" 
d="M751 887q-101 0 -179 -39.5t-130.5 -105.5t-79.5 -150.5t-27 -174.5q0 -65 18 -110.5t51.5 -74t82.5 -41t111 -12.5q68 0 136 12.5t137 34.5l-44 -211q-62 -22 -131.5 -31t-139.5 -9q-102 0 -187 26t-145.5 78.5t-94.5 131.5t-34 185q0 86 17.5 171t52.5 162t88 143.5
t124 115t160.5 76t197.5 27.5q72 0 143 -12t124 -31l-40 -197q-51 17 -102.5 26.5t-108.5 9.5zM691 1518h206l137 -349h-178l-82 212h-4l-170 -212h-192zM233 1014z" />
    <glyph glyph-name="Ccaron.c2sc" horiz-adv-x="994" 
d="M751 887q-101 0 -179 -39.5t-130.5 -105.5t-79.5 -150.5t-27 -174.5q0 -65 18 -110.5t51.5 -74t82.5 -41t111 -12.5q68 0 136 12.5t137 34.5l-44 -211q-62 -22 -131.5 -31t-139.5 -9q-102 0 -187 26t-145.5 78.5t-94.5 131.5t-34 185q0 86 17.5 171t52.5 162t88 143.5
t124 115t160.5 76t197.5 27.5q72 0 143 -12t124 -31l-40 -197q-51 17 -102.5 26.5t-108.5 9.5zM821 1169h-206l-137 349h177l82 -212h4l170 212h193zM230 1014z" />
    <glyph glyph-name="Cdotaccent.c2sc" horiz-adv-x="994" 
d="M751 887q-101 0 -179 -39.5t-130.5 -105.5t-79.5 -150.5t-27 -174.5q0 -65 18 -110.5t51.5 -74t82.5 -41t111 -12.5q68 0 136 12.5t137 34.5l-44 -211q-62 -22 -131.5 -31t-139.5 -9q-102 0 -187 26t-145.5 78.5t-94.5 131.5t-34 185q0 86 17.5 171t52.5 162t88 143.5
t124 115t160.5 76t197.5 27.5q72 0 143 -12t124 -31l-40 -197q-51 17 -102.5 26.5t-108.5 9.5zM569 1236l52 257h248l-52 -257h-248zM197 1014z" />
    <glyph glyph-name="Ccedilla.c2sc" horiz-adv-x="994" 
d="M751 887q-101 0 -179 -39.5t-130.5 -105.5t-79.5 -150.5t-27 -174.5q0 -65 18 -110.5t51.5 -74t82.5 -41t111 -12.5q69 0 136.5 12.5t136.5 34.5l-44 -211q-62 -22 -131.5 -31t-139.5 -9h-11l-35 -93q48 -5 81 -18t53.5 -33.5t30 -46.5t9.5 -56q0 -47 -23.5 -87
t-66.5 -69t-103.5 -45.5t-134.5 -16.5q-39 0 -79.5 6t-61.5 15l29 142q44 -15 108 -15q68 0 106 21t38 51q0 56 -170 55l77 207q-70 17 -127 50t-97 83.5t-62 118t-22 152.5q0 86 17.5 171t52.5 162t88 143.5t124 115t160.5 76t197.5 27.5q72 0 143 -12t124 -31l-40 -197
q-51 17 -102.5 26.5t-108.5 9.5z" />
    <glyph glyph-name="Dcaron.c2sc" horiz-adv-x="1193" 
d="M334 201h105q54 0 94.5 5t74.5 16q74 23 128.5 66.5t90 100.5t52.5 124.5t17 139.5q0 108 -65.5 160t-210.5 52h-147zM628 1066q71 0 128.5 -7t106.5 -23q61 -19 111 -52t85 -80t54.5 -109.5t19.5 -141.5q0 -111 -30 -212t-90 -183.5t-149.5 -142t-208.5 -89.5
q-106 -26 -254 -26h-346l221 1066h352zM780 1169h-206l-137 349h177l82 -212h4l170 212h193zM189 1014z" />
    <glyph glyph-name="Dcroat.c2sc" horiz-adv-x="1237" 
d="M96 642h136l88 424h369q104 0 193.5 -23t155 -72.5t102.5 -128t37 -189.5q0 -136 -44.5 -255t-133.5 -207.5t-221.5 -139.5t-308.5 -51h-370l92 445h-136zM470 642h239l-41 -197h-239l-51 -244h121q115 0 198 37.5t137 101t80 147t26 174.5q0 102 -65.5 153t-210.5 51
h-147z" />
    <glyph glyph-name="Egrave.c2sc" horiz-adv-x="999" 
d="M333 197h535l-41 -197h-772l221 1066h743l-41 -197h-506l-47 -227h430l-41 -197h-430zM702 1518l46 -349h-176l-92 349h222zM91 1014z" />
    <glyph glyph-name="Eacute.c2sc" horiz-adv-x="999" 
d="M333 197h535l-41 -197h-772l221 1066h743l-41 -197h-506l-47 -227h430l-41 -197h-430zM972 1518l-238 -349h-190l192 349h236zM217 1014z" />
    <glyph glyph-name="Ecircumflex.c2sc" horiz-adv-x="999" 
d="M333 197h535l-41 -197h-772l221 1066h743l-41 -197h-506l-47 -227h430l-41 -197h-430zM628 1518h206l137 -349h-178l-82 212h-4l-170 -212h-192zM170 1014z" />
    <glyph glyph-name="Ecaron.c2sc" horiz-adv-x="999" 
d="M333 197h535l-41 -197h-772l221 1066h743l-41 -197h-506l-47 -227h430l-41 -197h-430zM758 1169h-206l-137 349h177l82 -212h4l170 212h193zM167 1014z" />
    <glyph glyph-name="Edieresis.c2sc" horiz-adv-x="999" 
d="M333 197h535l-41 -197h-772l221 1066h743l-41 -197h-506l-47 -227h430l-41 -197h-430zM407 1457h218l-47 -221h-218zM817 1457h218l-47 -221h-218zM173 1014z" />
    <glyph glyph-name="Emacron.c2sc" horiz-adv-x="999" 
d="M333 197h535l-41 -197h-772l221 1066h743l-41 -197h-506l-47 -227h430l-41 -197h-430zM417 1383h560l-35 -167h-560zM155 1014z" />
    <glyph glyph-name="Ebreve.c2sc" horiz-adv-x="999" 
d="M333 197h535l-41 -197h-772l221 1066h743l-41 -197h-506l-47 -227h430l-41 -197h-430zM672 1301q59 0 103.5 42t70.5 129h213q-18 -73 -53.5 -135t-88 -107t-120.5 -70t-150 -25q-80 0 -138.5 25t-90.5 69.5t-40.5 92.5t-7.5 75q0 36 7 75h193q-3 -26 -3 -51
q0 -54 25.5 -87t79.5 -33zM158 1014z" />
    <glyph glyph-name="Edotaccent.c2sc" horiz-adv-x="999" 
d="M333 197h535l-41 -197h-772l221 1066h743l-41 -197h-506l-47 -227h430l-41 -197h-430zM533 1236l52 257h248l-52 -257h-248zM161 1014z" />
    <glyph glyph-name="Eogonek.c2sc" horiz-adv-x="999" 
d="M55 0l221 1066h743l-41 -197h-506l-47 -227h430l-41 -197h-430l-51 -248h535l-41 -197l-88 -65.5t-73.5 -65.5t-50.5 -67t-19 -69q0 -30 17 -44t49 -14q23 0 52 6.5t51 16.5l-33 -162q-26 -11 -64 -18.5t-74 -7.5q-43 0 -79.5 11t-62.5 32.5t-41 53t-15 71.5
q0 46 16.5 90.5t45.5 85.5t68.5 77t84.5 65v4h-556z" />
    <glyph glyph-name="Gcircumflex.c2sc" horiz-adv-x="1181" 
d="M765 1091q104 0 188.5 -16t137.5 -36l-42 -200q-68 25 -137 36.5t-129 11.5q-99 0 -181.5 -36t-142 -100t-92 -151.5t-32.5 -186.5q0 -123 58 -178.5t165 -55.5q58 0 100 11t71.5 33t47.5 54.5t27 75.5l7 34h-227l40 201h466l-53 -257q-21 -103 -68.5 -172t-113.5 -109.5
t-146.5 -57.5t-169.5 -17q-104 0 -186.5 26.5t-139.5 79t-87.5 130t-30.5 179.5q0 154 49.5 283.5t138.5 222t212 144t270 51.5zM696 1518h206l137 -349h-178l-82 212h-4l-170 -212h-192zM238 1014z" />
    <glyph glyph-name="Gbreve.c2sc" horiz-adv-x="1181" 
d="M765 1091q104 0 188.5 -16t137.5 -36l-42 -200q-68 25 -137 36.5t-129 11.5q-99 0 -181.5 -36t-142 -100t-92 -151.5t-32.5 -186.5q0 -123 58 -178.5t165 -55.5q58 0 100 11t71.5 33t47.5 54.5t27 75.5l7 34h-227l40 201h466l-53 -257q-21 -103 -68.5 -172t-113.5 -109.5
t-146.5 -57.5t-169.5 -17q-104 0 -186.5 26.5t-139.5 79t-87.5 130t-30.5 179.5q0 154 49.5 283.5t138.5 222t212 144t270 51.5zM723 1301q59 0 103.5 42t70.5 129h213q-18 -73 -53.5 -135t-88 -107t-120.5 -70t-150 -25q-80 0 -138.5 25t-90.5 69.5t-40.5 92.5t-7.5 75
q0 36 7 75h193q-3 -26 -3 -51q0 -54 25.5 -87t79.5 -33zM209 1014z" />
    <glyph glyph-name="Gdotaccent.c2sc" horiz-adv-x="1181" 
d="M765 1091q104 0 188.5 -16t137.5 -36l-42 -200q-68 25 -137 36.5t-129 11.5q-99 0 -181.5 -36t-142 -100t-92 -151.5t-32.5 -186.5q0 -123 58 -178.5t165 -55.5q58 0 100 11t71.5 33t47.5 54.5t27 75.5l7 34h-227l40 201h466l-53 -257q-21 -103 -68.5 -172t-113.5 -109.5
t-146.5 -57.5t-169.5 -17q-104 0 -186.5 26.5t-139.5 79t-87.5 130t-30.5 179.5q0 154 49.5 283.5t138.5 222t212 144t270 51.5zM616 1236l52 257h248l-52 -257h-248zM244 1014z" />
    <glyph glyph-name="Gcommaaccent.c2sc" horiz-adv-x="1172" 
d="M765 1091q104 0 188.5 -16t137.5 -36l-42 -200q-68 25 -137 36.5t-129 11.5q-99 0 -181.5 -36t-142 -100t-92 -151.5t-32.5 -186.5q0 -123 58 -178.5t165 -55.5q58 0 100 11t71.5 33t47.5 54.5t27 75.5l7 34h-227l40 201h466l-53 -257q-21 -103 -68.5 -172t-113.5 -109.5
t-146.5 -57.5t-169.5 -17q-104 0 -186.5 26.5t-139.5 79t-87.5 130t-30.5 179.5q0 154 49.5 283.5t138.5 222t212 144t270 51.5zM477 -332q0 54 -67 54l35 169q17 1 32 1q53 0 90.5 -11.5t61.5 -32.5t35 -49.5t11 -62.5q0 -60 -29.5 -114.5t-80.5 -111.5h-184q19 21 36 42
t30.5 41t21.5 39t8 36z" />
    <glyph glyph-name="Hcircumflex.c2sc" horiz-adv-x="1234" 
d="M425 642h464l87 424h238l-221 -1066h-237l91 441h-464l-91 -441h-237l221 1066h237zM721 1518h206l137 -349h-178l-82 212h-4l-170 -212h-192zM263 1014z" />
    <glyph glyph-name="Hbar.c2sc" horiz-adv-x="1234" 
d="M125 959h129l22 107h237l-23 -107h464l22 107h238l-22 -107h133l-38 -181h-133l-161 -778h-237l91 441h-464l-91 -441h-237l161 778h-129zM889 642l28 136h-464l-28 -136h464z" />
    <glyph glyph-name="Igrave.c2sc" horiz-adv-x="533" 
d="M55 0l221 1066h237l-221 -1066h-237zM477 1518l46 -349h-176l-92 349h222zM-134 1014z" />
    <glyph glyph-name="Iacute.c2sc" horiz-adv-x="533" 
d="M55 0l221 1066h237l-221 -1066h-237zM739 1518l-238 -349h-190l192 349h236zM-16 1014z" />
    <glyph glyph-name="Icircumflex.c2sc" horiz-adv-x="533" 
d="M55 0l221 1066h237l-221 -1066h-237zM382 1518h206l137 -349h-178l-82 212h-4l-170 -212h-192zM-76 1014z" />
    <glyph glyph-name="Itilde.c2sc" horiz-adv-x="533" 
d="M55 0l221 1066h237l-221 -1066h-237zM89 1206q6 54 24.5 99.5t47 78t66.5 50t84 17.5q23 0 47 -5.5t45 -14.5t40 -19.5l36 -20.5q23 -14 43.5 -23t38.5 -9q28 0 45.5 19t26.5 65h163q-6 -54 -24.5 -99.5t-47 -78t-66.5 -50t-84 -17.5q-23 0 -47 5.5t-45 14.5t-40 19.5
l-36 20.5q-23 14 -43.5 23t-38.5 9q-28 0 -45.5 -19t-26.5 -65h-163zM-44 1014z" />
    <glyph glyph-name="Idieresis.c2sc" horiz-adv-x="533" 
d="M55 0l221 1066h237l-221 -1066h-237zM166 1457h218l-47 -221h-218zM576 1457h218l-47 -221h-218zM-68 1014z" />
    <glyph glyph-name="Imacron.c2sc" horiz-adv-x="533" 
d="M55 0l221 1066h237l-221 -1066h-237zM174 1383h560l-35 -167h-560zM-88 1014z" />
    <glyph glyph-name="Ibreve.c2sc" horiz-adv-x="533" 
d="M55 0l221 1066h237l-221 -1066h-237zM425 1301q59 0 103.5 42t70.5 129h213q-18 -73 -53.5 -135t-88 -107t-120.5 -70t-150 -25q-80 0 -138.5 25t-90.5 69.5t-40.5 92.5t-7.5 75q0 36 7 75h193q-3 -26 -3 -51q0 -54 25.5 -87t79.5 -33zM-89 1014z" />
    <glyph glyph-name="Idotaccent.c2sc" horiz-adv-x="533" 
d="M55 0l221 1066h237l-221 -1066h-237zM306 1236l52 257h248l-52 -257h-248zM-66 1014z" />
    <glyph glyph-name="Iogonek.c2sc" horiz-adv-x="533" 
d="M276 1066h237l-221 -1066q-45 -24 -84 -55.5t-68.5 -66t-46 -72t-16.5 -73.5q0 -31 17 -44.5t49 -13.5q23 0 52 6.5t51 16.5l-33 -162q-26 -11 -64 -18.5t-74 -7.5q-50 0 -87 13.5t-62 37t-37 56.5t-12 72q0 52 17.5 99t43.5 86.5t57.5 71.5t59.5 54z" />
    <glyph glyph-name="IJ.c2sc" horiz-adv-x="1219" 
d="M55 0l221 1066h237l-221 -1066h-237zM960 1066h237l-172 -830q-15 -72 -48.5 -122t-80.5 -81t-106.5 -44.5t-125.5 -13.5q-60 0 -106 9t-81 23l41 200q30 -14 61.5 -21t66.5 -7q28 0 53 6.5t46 23t36.5 45t24.5 71.5z" />
    <glyph glyph-name="Jcircumflex.c2sc" horiz-adv-x="710" 
d="M453 1066h237l-172 -830q-15 -72 -48.5 -122t-80.5 -81t-106.5 -44.5t-125.5 -13.5q-60 0 -106 9t-81 23l41 200q30 -14 61.5 -21t66.5 -7q28 0 53 6.5t46 23t36.5 45t24.5 71.5zM544 1518h206l137 -349h-178l-82 212h-4l-170 -212h-192zM86 1014z" />
    <glyph glyph-name="Kcommaaccent.c2sc" horiz-adv-x="1064" 
d="M634 520l332 -520h-264l-304 493h-4l-102 -493h-237l221 1066h237l-98 -474h4l434 474h291zM404 -332q0 54 -67 54l35 169q17 1 32 1q53 0 90.5 -11.5t61.5 -32.5t35 -49.5t11 -62.5q0 -60 -29.5 -114.5t-80.5 -111.5h-184q19 21 36 42t30.5 41t21.5 39t8 36z" />
    <glyph glyph-name="Lacute.c2sc" horiz-adv-x="949" 
d="M513 1066l-179 -865h535l-42 -201h-772l221 1066h237zM737 1518l-238 -349h-190l192 349h236zM-18 1014z" />
    <glyph glyph-name="Lcaron.c2sc" horiz-adv-x="949" 
d="M513 1066l-179 -865h535l-42 -201h-772l221 1066h237zM681 848q0 54 -67 54l35 169q16 1 20 1h12q52 0 90 -11.5t62 -32.5t35 -49.5t11 -62.5q0 -58 -29.5 -113.5t-80.5 -112.5h-184q19 21 36 42t30.5 41t21.5 39.5t8 35.5z" />
    <glyph glyph-name="Lcommaaccent.c2sc" horiz-adv-x="949" 
d="M513 1066l-179 -865h535l-42 -201h-772l221 1066h237zM359 -332q0 54 -67 54l35 169q17 1 32 1q53 0 90.5 -11.5t61.5 -32.5t35 -49.5t11 -62.5q0 -60 -29.5 -114.5t-80.5 -111.5h-184q19 21 36 42t30.5 41t21.5 39t8 36z" />
    <glyph glyph-name="Lslash.c2sc" horiz-adv-x="949" 
d="M671 568l-280 -92l-57 -275h535l-42 -201h-772l82 396l-137 -45l49 230l136 45l91 440h237l-74 -361l281 93z" />
    <glyph glyph-name="Ldot.c2sc" horiz-adv-x="949" 
d="M513 1066l-179 -865h535l-42 -201h-772l221 1066h237zM588 512l52 257h248l-52 -257h-248zM216 290z" />
    <glyph glyph-name="Nacute.c2sc" horiz-adv-x="1287" 
d="M291 0h-236l221 1066h270l206 -462q64 -145 126 -322h6q13 142 49 319l97 465h237l-221 -1066h-269l-207 465q-78 177 -127 320h-6q-12 -147 -48 -317zM1109 1518l-238 -349h-190l192 349h236zM354 1014z" />
    <glyph glyph-name="Ncaron.c2sc" horiz-adv-x="1287" 
d="M291 0h-236l221 1066h270l206 -462q64 -145 126 -322h6q13 142 49 319l97 465h237l-221 -1066h-269l-207 465q-78 177 -127 320h-6q-12 -147 -48 -317zM863 1169h-206l-137 349h177l82 -212h4l170 212h193zM272 1014z" />
    <glyph glyph-name="Ntilde.c2sc" horiz-adv-x="1287" 
d="M291 0h-236l221 1066h270l206 -462q64 -145 126 -322h6q13 142 49 319l97 465h237l-221 -1066h-269l-207 465q-78 177 -127 320h-6q-12 -147 -48 -317zM454 1206q6 54 24.5 99.5t47 78t66.5 50t84 17.5q23 0 47 -5.5t45 -14.5t40 -19.5l36 -20.5q23 -14 43.5 -23t38.5 -9
q28 0 45.5 19t26.5 65h163q-6 -54 -24.5 -99.5t-47 -78t-66.5 -50t-84 -17.5q-23 0 -47 5.5t-45 14.5t-40 19.5l-36 20.5q-23 14 -43.5 23t-38.5 9q-28 0 -45.5 -19t-26.5 -65h-163zM321 1014z" />
    <glyph glyph-name="Ncommaaccent.c2sc" horiz-adv-x="1287" 
d="M291 0h-236l221 1066h270l206 -462q64 -145 126 -322h6q13 142 49 319l97 465h237l-221 -1066h-269l-207 465q-78 177 -127 320h-6q-12 -147 -48 -317zM492 -332q0 54 -67 54l35 169q17 1 32 1q53 0 90.5 -11.5t61.5 -32.5t35 -49.5t11 -62.5q0 -60 -29.5 -114.5
t-80.5 -111.5h-184q19 21 36 42t30.5 41t21.5 39t8 36z" />
    <glyph glyph-name="Ograve.c2sc" horiz-adv-x="1215" 
d="M526 -25q-98 0 -177.5 25.5t-136 76.5t-87 126t-30.5 174q0 69 14.5 148.5t45.5 158.5t80 152.5t119 130t162 90.5t208 34q98 0 178 -25.5t136 -76.5t86.5 -126t30.5 -174q0 -68 -14.5 -148t-45.5 -159t-80 -152.5t-119 -130t-162 -90.5t-208 -34zM547 179q88 0 156.5 46
t115.5 118t71.5 158.5t24.5 167.5q0 110 -57 164t-155 54q-88 0 -156.5 -46t-115.5 -118t-71.5 -158.5t-24.5 -167.5q0 -110 57 -164t155 -54zM793 1518l46 -349h-176l-92 349h222zM182 1014z" />
    <glyph glyph-name="Oacute.c2sc" horiz-adv-x="1215" 
d="M526 -25q-98 0 -177.5 25.5t-136 76.5t-87 126t-30.5 174q0 69 14.5 148.5t45.5 158.5t80 152.5t119 130t162 90.5t208 34q98 0 178 -25.5t136 -76.5t86.5 -126t30.5 -174q0 -68 -14.5 -148t-45.5 -159t-80 -152.5t-119 -130t-162 -90.5t-208 -34zM547 179q88 0 156.5 46
t115.5 118t71.5 158.5t24.5 167.5q0 110 -57 164t-155 54q-88 0 -156.5 -46t-115.5 -118t-71.5 -158.5t-24.5 -167.5q0 -110 57 -164t155 -54zM1078 1518l-238 -349h-190l192 349h236zM323 1014z" />
    <glyph glyph-name="Ocircumflex.c2sc" horiz-adv-x="1215" 
d="M526 -25q-98 0 -177.5 25.5t-136 76.5t-87 126t-30.5 174q0 69 14.5 148.5t45.5 158.5t80 152.5t119 130t162 90.5t208 34q98 0 178 -25.5t136 -76.5t86.5 -126t30.5 -174q0 -68 -14.5 -148t-45.5 -159t-80 -152.5t-119 -130t-162 -90.5t-208 -34zM547 179q88 0 156.5 46
t115.5 118t71.5 158.5t24.5 167.5q0 110 -57 164t-155 54q-88 0 -156.5 -46t-115.5 -118t-71.5 -158.5t-24.5 -167.5q0 -110 57 -164t155 -54zM719 1518h206l137 -349h-178l-82 212h-4l-170 -212h-192zM261 1014z" />
    <glyph glyph-name="Otilde.c2sc" horiz-adv-x="1215" 
d="M526 -25q-98 0 -177.5 25.5t-136 76.5t-87 126t-30.5 174q0 69 14.5 148.5t45.5 158.5t80 152.5t119 130t162 90.5t208 34q98 0 178 -25.5t136 -76.5t86.5 -126t30.5 -174q0 -68 -14.5 -148t-45.5 -159t-80 -152.5t-119 -130t-162 -90.5t-208 -34zM547 179q88 0 156.5 46
t115.5 118t71.5 158.5t24.5 167.5q0 110 -57 164t-155 54q-88 0 -156.5 -46t-115.5 -118t-71.5 -158.5t-24.5 -167.5q0 -110 57 -164t155 -54zM437 1206q6 54 24.5 99.5t47 78t66.5 50t84 17.5q23 0 47 -5.5t45 -14.5t40 -19.5l36 -20.5q23 -14 43.5 -23t38.5 -9
q28 0 45.5 19t26.5 65h163q-6 -54 -24.5 -99.5t-47 -78t-66.5 -50t-84 -17.5q-23 0 -47 5.5t-45 14.5t-40 19.5l-36 20.5q-23 14 -43.5 23t-38.5 9q-28 0 -45.5 -19t-26.5 -65h-163zM304 1014z" />
    <glyph glyph-name="Odieresis.c2sc" horiz-adv-x="1215" 
d="M526 -25q-98 0 -177.5 25.5t-136 76.5t-87 126t-30.5 174q0 69 14.5 148.5t45.5 158.5t80 152.5t119 130t162 90.5t208 34q98 0 178 -25.5t136 -76.5t86.5 -126t30.5 -174q0 -68 -14.5 -148t-45.5 -159t-80 -152.5t-119 -130t-162 -90.5t-208 -34zM547 179q88 0 156.5 46
t115.5 118t71.5 158.5t24.5 167.5q0 110 -57 164t-155 54q-88 0 -156.5 -46t-115.5 -118t-71.5 -158.5t-24.5 -167.5q0 -110 57 -164t155 -54zM501 1457h218l-47 -221h-218zM911 1457h218l-47 -221h-218zM267 1014z" />
    <glyph glyph-name="Omacron.c2sc" horiz-adv-x="1215" 
d="M526 -25q-98 0 -177.5 25.5t-136 76.5t-87 126t-30.5 174q0 69 14.5 148.5t45.5 158.5t80 152.5t119 130t162 90.5t208 34q98 0 178 -25.5t136 -76.5t86.5 -126t30.5 -174q0 -68 -14.5 -148t-45.5 -159t-80 -152.5t-119 -130t-162 -90.5t-208 -34zM547 179q88 0 156.5 46
t115.5 118t71.5 158.5t24.5 167.5q0 110 -57 164t-155 54q-88 0 -156.5 -46t-115.5 -118t-71.5 -158.5t-24.5 -167.5q0 -110 57 -164t155 -54zM499 1383h560l-35 -167h-560zM237 1014z" />
    <glyph glyph-name="Obreve.c2sc" horiz-adv-x="1215" 
d="M526 -25q-98 0 -177.5 25.5t-136 76.5t-87 126t-30.5 174q0 69 14.5 148.5t45.5 158.5t80 152.5t119 130t162 90.5t208 34q98 0 178 -25.5t136 -76.5t86.5 -126t30.5 -174q0 -68 -14.5 -148t-45.5 -159t-80 -152.5t-119 -130t-162 -90.5t-208 -34zM547 179q88 0 156.5 46
t115.5 118t71.5 158.5t24.5 167.5q0 110 -57 164t-155 54q-88 0 -156.5 -46t-115.5 -118t-71.5 -158.5t-24.5 -167.5q0 -110 57 -164t155 -54zM763 1301q59 0 103.5 42t70.5 129h213q-18 -73 -53.5 -135t-88 -107t-120.5 -70t-150 -25q-80 0 -138.5 25t-90.5 69.5
t-40.5 92.5t-7.5 75q0 36 7 75h193q-3 -26 -3 -51q0 -54 25.5 -87t79.5 -33zM249 1014z" />
    <glyph glyph-name="Ohungarumlaut.c2sc" horiz-adv-x="1215" 
d="M526 -25q-98 0 -177.5 25.5t-136 76.5t-87 126t-30.5 174q0 69 14.5 148.5t45.5 158.5t80 152.5t119 130t162 90.5t208 34q98 0 178 -25.5t136 -76.5t86.5 -126t30.5 -174q0 -68 -14.5 -148t-45.5 -159t-80 -152.5t-119 -130t-162 -90.5t-208 -34zM547 179q88 0 156.5 46
t115.5 118t71.5 158.5t24.5 167.5q0 110 -57 164t-155 54q-88 0 -156.5 -46t-115.5 -118t-71.5 -158.5t-24.5 -167.5q0 -110 57 -164t155 -54zM924 1518l-238 -349h-178l192 349h224zM1252 1518l-260 -349h-184l214 349h230zM353 1014z" />
    <glyph glyph-name="Oslash.c2sc" horiz-adv-x="1215" 
d="M1103 1091l123 -129l-103 -95q32 -78 32 -178q0 -68 -14.5 -148t-45.5 -159t-80 -152.5t-119 -130t-162 -90.5t-208 -34q-88 0 -160 19.5t-127 59.5l-86 -79l-123 129l99 91q-17 39 -25.5 84t-8.5 98q0 69 14.5 148.5t45.5 158.5t80 152.5t119 130t162 90.5t208 34
q178 0 290 -82zM703 887q-58 0 -108.5 -21.5t-92 -57.5t-73.5 -85t-53.5 -103t-33 -111.5t-11.5 -111.5v-16l510 469q-55 37 -138 37zM547 179q59 0 109 21.5t91.5 57.5t73.5 85t53.5 103t33 111.5t11.5 111.5v10l-507 -466q52 -34 135 -34z" />
    <glyph glyph-name="Oslashacute.c2sc" horiz-adv-x="1215" 
d="M1078 1518l-238 -349h-190l192 349h236zM323 1014zM1103 1091l123 -129l-103 -95q32 -78 32 -178q0 -68 -14.5 -148t-45.5 -159t-80 -152.5t-119 -130t-162 -90.5t-208 -34q-88 0 -160 19.5t-127 59.5l-86 -79l-123 129l99 91q-17 39 -25.5 84t-8.5 98q0 69 14.5 148.5
t45.5 158.5t80 152.5t119 130t162 90.5t208 34q178 0 290 -82zM703 887q-58 0 -108.5 -21.5t-92 -57.5t-73.5 -85t-53.5 -103t-33 -111.5t-11.5 -111.5v-16l510 469q-55 37 -138 37zM547 179q59 0 109 21.5t91.5 57.5t73.5 85t53.5 103t33 111.5t11.5 111.5v10l-507 -466
q52 -34 135 -34z" />
    <glyph glyph-name="OE.c2sc" horiz-adv-x="1728" 
d="M471 -25q-78 0 -146.5 25t-119.5 76t-80.5 128.5t-29.5 183.5q0 87 19 173t55 164t88.5 145t118 116t144 77t167.5 28q55 0 100.5 -10.5t81.5 -29t64 -43.5t49 -54h4l23 112h739l-41 -197h-506l-47 -227h430l-41 -197h-430l-51 -248h535l-41 -197h-768l23 110h-4
q-64 -59 -146 -97t-190 -38zM528 179q92 0 164 46t122 118t76 158.5t26 167.5q0 57 -15 98t-41.5 67.5t-64 39.5t-82.5 13q-61 0 -112.5 -21.5t-93.5 -57.5t-74.5 -85t-54 -103t-32.5 -111.5t-11 -111.5q0 -108 51.5 -163t141.5 -55z" />
    <glyph glyph-name="Racute.c2sc" horiz-adv-x="1109" 
d="M292 0h-237l221 1066h371q69 0 118.5 -5t86.5 -16q57 -16 96.5 -42.5t64 -60.5t35.5 -75t11 -87q0 -61 -19 -118.5t-59.5 -106t-103 -85t-148.5 -56.5v-4l220 -410h-256l-191 381h-131zM413 582h137q57 0 106.5 11t86.5 33t58 55.5t21 79.5q0 26 -9 45.5t-29 32.5
t-53.5 19.5t-82.5 6.5h-176zM982 1518l-238 -349h-190l192 349h236zM227 1014z" />
    <glyph glyph-name="Rcaron.c2sc" horiz-adv-x="1109" 
d="M292 0h-237l221 1066h371q69 0 118.5 -5t86.5 -16q57 -16 96.5 -42.5t64 -60.5t35.5 -75t11 -87q0 -61 -19 -118.5t-59.5 -106t-103 -85t-148.5 -56.5v-4l220 -410h-256l-191 381h-131zM413 582h137q57 0 106.5 11t86.5 33t58 55.5t21 79.5q0 26 -9 45.5t-29 32.5
t-53.5 19.5t-82.5 6.5h-176zM759 1169h-206l-137 349h177l82 -212h4l170 212h193zM168 1014z" />
    <glyph glyph-name="Rcommaaccent.c2sc" horiz-adv-x="1109" 
d="M292 0h-237l221 1066h371q69 0 118.5 -5t86.5 -16q57 -16 96.5 -42.5t64 -60.5t35.5 -75t11 -87q0 -61 -19 -118.5t-59.5 -106t-103 -85t-148.5 -56.5v-4l220 -410h-256l-191 381h-131zM413 582h137q57 0 106.5 11t86.5 33t58 55.5t21 79.5q0 26 -9 45.5t-29 32.5
t-53.5 19.5t-82.5 6.5h-176zM411 -332q0 54 -67 54l35 169q17 1 32 1q53 0 90.5 -11.5t61.5 -32.5t35 -49.5t11 -62.5q0 -60 -29.5 -114.5t-80.5 -111.5h-184q19 21 36 42t30.5 41t21.5 39t8 36z" />
    <glyph glyph-name="Sacute.c2sc" horiz-adv-x="983" 
d="M626 324q0 35 -22 57.5t-58 38t-81.5 28t-90.5 27.5q-43 14 -83 34t-71 50.5t-50 74.5t-19 107q0 82 30 147t85 110t133 69t175 24q46 0 94 -6t94 -16t88.5 -23t77.5 -27l-43 -199q-76 29 -154.5 48t-153.5 19q-40 0 -75 -6.5t-60.5 -20.5t-40 -36.5t-14.5 -54.5
q0 -36 19 -59t50.5 -38.5t70.5 -27l84 -24.5q47 -14 92 -32.5t80.5 -49t57.5 -76t22 -113.5q0 -88 -35.5 -157.5t-99.5 -117.5t-153.5 -73.5t-197.5 -25.5q-57 0 -115.5 7t-104.5 18t-82 24t-55 26l40 199q61 -29 141 -49.5t163 -20.5q123 0 192.5 37.5t69.5 107.5z
M940 1518l-238 -349h-190l192 349h236zM185 1014z" />
    <glyph glyph-name="Scircumflex.c2sc" horiz-adv-x="983" 
d="M626 324q0 35 -22 57.5t-58 38t-81.5 28t-90.5 27.5q-43 14 -83 34t-71 50.5t-50 74.5t-19 107q0 82 30 147t85 110t133 69t175 24q46 0 94 -6t94 -16t88.5 -23t77.5 -27l-43 -199q-76 29 -154.5 48t-153.5 19q-40 0 -75 -6.5t-60.5 -20.5t-40 -36.5t-14.5 -54.5
q0 -36 19 -59t50.5 -38.5t70.5 -27l84 -24.5q47 -14 92 -32.5t80.5 -49t57.5 -76t22 -113.5q0 -88 -35.5 -157.5t-99.5 -117.5t-153.5 -73.5t-197.5 -25.5q-57 0 -115.5 7t-104.5 18t-82 24t-55 26l40 199q61 -29 141 -49.5t163 -20.5q123 0 192.5 37.5t69.5 107.5z
M571 1518h206l137 -349h-178l-82 212h-4l-170 -212h-192zM113 1014z" />
    <glyph glyph-name="Scaron.c2sc" horiz-adv-x="983" 
d="M626 324q0 35 -22 57.5t-58 38t-81.5 28t-90.5 27.5q-43 14 -83 34t-71 50.5t-50 74.5t-19 107q0 82 30 147t85 110t133 69t175 24q46 0 94 -6t94 -16t88.5 -23t77.5 -27l-43 -199q-76 29 -154.5 48t-153.5 19q-40 0 -75 -6.5t-60.5 -20.5t-40 -36.5t-14.5 -54.5
q0 -36 19 -59t50.5 -38.5t70.5 -27l84 -24.5q47 -14 92 -32.5t80.5 -49t57.5 -76t22 -113.5q0 -88 -35.5 -157.5t-99.5 -117.5t-153.5 -73.5t-197.5 -25.5q-57 0 -115.5 7t-104.5 18t-82 24t-55 26l40 199q61 -29 141 -49.5t163 -20.5q123 0 192.5 37.5t69.5 107.5z
M705 1169h-206l-137 349h177l82 -212h4l170 212h193zM114 1014z" />
    <glyph glyph-name="Scedilla.c2sc" horiz-adv-x="983" 
d="M863 349q0 -81 -30 -146.5t-85 -113t-132 -76t-172 -35.5l-36 -96q48 -5 81 -18t53.5 -33.5t30 -46.5t9.5 -56q0 -47 -23.5 -87t-66.5 -69t-103.5 -45.5t-134.5 -16.5q-39 0 -79.5 6t-61.5 15l29 142q44 -15 108 -15q69 0 106.5 21t37.5 51q0 56 -170 55l72 194
q-47 4 -90 11.5t-79 17.5t-63.5 21t-43.5 21l40 199q62 -29 140.5 -49.5t163.5 -20.5q123 0 192.5 37t69.5 108q0 35 -22 57.5t-58 38t-81.5 28t-90.5 27.5q-43 14 -83 34t-71 50.5t-50 74.5t-19 107q0 82 30 147t85 110t133 69t175 24q46 0 94 -6t94 -16t88.5 -23t77.5 -27
l-43 -199q-76 29 -154.5 48t-153.5 19q-40 0 -75 -6.5t-60.5 -20.5t-40 -36.5t-14.5 -54.5q0 -36 19 -59t50.5 -38.5t70.5 -27l84 -24.5q47 -14 92 -32.5t80.5 -49t57.5 -76t22 -113.5z" />
    <glyph glyph-name="Scommaaccent.c2sc" horiz-adv-x="983" 
d="M626 324q0 35 -22 57.5t-58 38t-81.5 28t-90.5 27.5q-43 14 -83 34t-71 50.5t-50 74.5t-19 107q0 82 30 147t85 110t133 69t175 24q46 0 94 -6t94 -16t88.5 -23t77.5 -27l-43 -199q-76 29 -154.5 48t-153.5 19q-40 0 -75 -6.5t-60.5 -20.5t-40 -36.5t-14.5 -54.5
q0 -36 19 -59t50.5 -38.5t70.5 -27l84 -24.5q47 -14 92 -32.5t80.5 -49t57.5 -76t22 -113.5q0 -88 -35.5 -157.5t-99.5 -117.5t-153.5 -73.5t-197.5 -25.5q-57 0 -115.5 7t-104.5 18t-82 24t-55 26l40 199q61 -29 141 -49.5t163 -20.5q123 0 192.5 37.5t69.5 107.5z
M314 -332q0 54 -67 54l35 169q17 1 32 1q53 0 90.5 -11.5t61.5 -32.5t35 -49.5t11 -62.5q0 -60 -29.5 -114.5t-80.5 -111.5h-184q19 21 36 42t30.5 41t21.5 39t8 36z" />
    <glyph glyph-name="Tcaron.c2sc" horiz-adv-x="952" 
d="M141 1066h921l-41 -201h-342l-179 -865h-237l179 865h-342zM713 1169h-206l-137 349h177l82 -212h4l170 212h193zM122 1014z" />
    <glyph glyph-name="Tcommaaccent.c2sc" horiz-adv-x="952" 
d="M141 1066h921l-41 -201h-342l-179 -865h-237l179 865h-342zM276 -332q0 54 -67 54l35 169q17 1 32 1q53 0 90.5 -11.5t61.5 -32.5t35 -49.5t11 -62.5q0 -60 -29.5 -114.5t-80.5 -111.5h-184q19 21 36 42t30.5 41t21.5 39t8 36z" />
    <glyph glyph-name="Tbar.c2sc" horiz-adv-x="952" 
d="M212 642h184l46 223h-342l41 201h921l-41 -201h-342l-46 -223h195l-41 -197h-195l-92 -445h-237l92 445h-184z" />
    <glyph glyph-name="Ugrave.c2sc" horiz-adv-x="1202" 
d="M535 179q65 0 113 17.5t82 51t56 81.5t34 109l130 628h237l-136 -659q-15 -73 -36.5 -129.5t-53.5 -102.5t-76 -83t-99.5 -63t-124 -40t-149.5 -14q-84 0 -157.5 21t-127.5 64.5t-85.5 109t-31.5 154.5q0 27 3.5 57.5t11.5 69.5l128 615h237l-129 -615q-6 -27 -8.5 -50
t-2.5 -43q0 -38 10 -71t32 -57t57 -37.5t86 -13.5zM775 1518l46 -349h-176l-92 349h222zM164 1014z" />
    <glyph glyph-name="Uacute.c2sc" horiz-adv-x="1202" 
d="M535 179q65 0 113 17.5t82 51t56 81.5t34 109l130 628h237l-136 -659q-15 -73 -36.5 -129.5t-53.5 -102.5t-76 -83t-99.5 -63t-124 -40t-149.5 -14q-84 0 -157.5 21t-127.5 64.5t-85.5 109t-31.5 154.5q0 27 3.5 57.5t11.5 69.5l128 615h237l-129 -615q-6 -27 -8.5 -50
t-2.5 -43q0 -38 10 -71t32 -57t57 -37.5t86 -13.5zM1053 1518l-238 -349h-190l192 349h236zM298 1014z" />
    <glyph glyph-name="Ucircumflex.c2sc" horiz-adv-x="1202" 
d="M535 179q65 0 113 17.5t82 51t56 81.5t34 109l130 628h237l-136 -659q-15 -73 -36.5 -129.5t-53.5 -102.5t-76 -83t-99.5 -63t-124 -40t-149.5 -14q-84 0 -157.5 21t-127.5 64.5t-85.5 109t-31.5 154.5q0 27 3.5 57.5t11.5 69.5l128 615h237l-129 -615q-6 -27 -8.5 -50
t-2.5 -43q0 -38 10 -71t32 -57t57 -37.5t86 -13.5zM696 1518h206l137 -349h-178l-82 212h-4l-170 -212h-192zM238 1014z" />
    <glyph glyph-name="Utilde.c2sc" horiz-adv-x="1202" 
d="M535 179q65 0 113 17.5t82 51t56 81.5t34 109l130 628h237l-136 -659q-15 -73 -36.5 -129.5t-53.5 -102.5t-76 -83t-99.5 -63t-124 -40t-149.5 -14q-84 0 -157.5 21t-127.5 64.5t-85.5 109t-31.5 154.5q0 27 3.5 57.5t11.5 69.5l128 615h237l-129 -615q-6 -27 -8.5 -50
t-2.5 -43q0 -38 10 -71t32 -57t57 -37.5t86 -13.5zM407 1206q6 54 24.5 99.5t47 78t66.5 50t84 17.5q23 0 47 -5.5t45 -14.5t40 -19.5l36 -20.5q23 -14 43.5 -23t38.5 -9q28 0 45.5 19t26.5 65h163q-6 -54 -24.5 -99.5t-47 -78t-66.5 -50t-84 -17.5q-23 0 -47 5.5t-45 14.5
t-40 19.5l-36 20.5q-23 14 -43.5 23t-38.5 9q-28 0 -45.5 -19t-26.5 -65h-163zM274 1014z" />
    <glyph glyph-name="Udieresis.c2sc" horiz-adv-x="1202" 
d="M535 179q65 0 113 17.5t82 51t56 81.5t34 109l130 628h237l-136 -659q-15 -73 -36.5 -129.5t-53.5 -102.5t-76 -83t-99.5 -63t-124 -40t-149.5 -14q-84 0 -157.5 21t-127.5 64.5t-85.5 109t-31.5 154.5q0 27 3.5 57.5t11.5 69.5l128 615h237l-129 -615q-6 -27 -8.5 -50
t-2.5 -43q0 -38 10 -71t32 -57t57 -37.5t86 -13.5zM481 1457h218l-47 -221h-218zM891 1457h218l-47 -221h-218zM247 1014z" />
    <glyph glyph-name="Umacron.c2sc" horiz-adv-x="1202" 
d="M535 179q65 0 113 17.5t82 51t56 81.5t34 109l130 628h237l-136 -659q-15 -73 -36.5 -129.5t-53.5 -102.5t-76 -83t-99.5 -63t-124 -40t-149.5 -14q-84 0 -157.5 21t-127.5 64.5t-85.5 109t-31.5 154.5q0 27 3.5 57.5t11.5 69.5l128 615h237l-129 -615q-6 -27 -8.5 -50
t-2.5 -43q0 -38 10 -71t32 -57t57 -37.5t86 -13.5zM494 1383h560l-35 -167h-560zM232 1014z" />
    <glyph glyph-name="Ubreve.c2sc" horiz-adv-x="1202" 
d="M535 179q65 0 113 17.5t82 51t56 81.5t34 109l130 628h237l-136 -659q-15 -73 -36.5 -129.5t-53.5 -102.5t-76 -83t-99.5 -63t-124 -40t-149.5 -14q-84 0 -157.5 21t-127.5 64.5t-85.5 109t-31.5 154.5q0 27 3.5 57.5t11.5 69.5l128 615h237l-129 -615q-6 -27 -8.5 -50
t-2.5 -43q0 -38 10 -71t32 -57t57 -37.5t86 -13.5zM750 1301q59 0 103.5 42t70.5 129h213q-18 -73 -53.5 -135t-88 -107t-120.5 -70t-150 -25q-80 0 -138.5 25t-90.5 69.5t-40.5 92.5t-7.5 75q0 36 7 75h193q-3 -26 -3 -51q0 -54 25.5 -87t79.5 -33zM236 1014z" />
    <glyph glyph-name="Uring.c2sc" horiz-adv-x="1202" 
d="M535 179q65 0 113 17.5t82 51t56 81.5t34 109l130 628h237l-136 -659q-15 -73 -36.5 -129.5t-53.5 -102.5t-76 -83t-99.5 -63t-124 -40t-149.5 -14q-84 0 -157.5 21t-127.5 64.5t-85.5 109t-31.5 154.5q0 27 3.5 57.5t11.5 69.5l128 615h237l-129 -615q-6 -27 -8.5 -50
t-2.5 -43q0 -38 10 -71t32 -57t57 -37.5t86 -13.5zM784 1545q107 0 164.5 -48.5t57.5 -129.5q0 -40 -17.5 -81.5t-52 -75t-86 -54.5t-120.5 -21q-107 0 -164.5 48.5t-57.5 129.5q0 41 17.5 82t52 74.5t86 54.5t120.5 21zM776 1432q-29 0 -51.5 -9t-38.5 -25t-24 -36t-8 -43
q0 -32 20.5 -51.5t63.5 -19.5q29 0 51.5 9t38.5 25t24 36.5t8 42.5q0 32 -20.5 51.5t-63.5 19.5zM236 1014z" />
    <glyph glyph-name="Uhungarumlaut.c2sc" horiz-adv-x="1202" 
d="M535 179q65 0 113 17.5t82 51t56 81.5t34 109l130 628h237l-136 -659q-15 -73 -36.5 -129.5t-53.5 -102.5t-76 -83t-99.5 -63t-124 -40t-149.5 -14q-84 0 -157.5 21t-127.5 64.5t-85.5 109t-31.5 154.5q0 27 3.5 57.5t11.5 69.5l128 615h237l-129 -615q-6 -27 -8.5 -50
t-2.5 -43q0 -38 10 -71t32 -57t57 -37.5t86 -13.5zM916 1518l-238 -349h-178l192 349h224zM1244 1518l-260 -349h-184l214 349h230zM345 1014z" />
    <glyph glyph-name="Uogonek.c2sc" horiz-adv-x="1202" 
d="M552 -18q-8 -1 -21.5 -2t-32.5 -1q-79 0 -149.5 20.5t-123.5 63t-84 107.5t-31 154q0 27 3.5 57.5t11.5 69.5l128 615h237l-129 -615q-6 -27 -8.5 -50t-2.5 -43q0 -38 10 -71t32 -57t57 -37.5t86 -13.5q65 0 113 17.5t82 51t56 81.5t34 109l130 628h237l-136 -659
q-15 -74 -39 -132t-56.5 -104.5t-74 -84.5t-91.5 -73l-94.5 -67.5t-80.5 -67t-56 -70.5t-21 -75q0 -29 17 -43.5t49 -14.5q23 0 52 6.5t51 16.5l-33 -162q-26 -11 -64 -18.5t-74 -7.5q-43 0 -79 11t-62.5 32.5t-41.5 53t-15 71.5t16 81.5t44.5 81t68 75t86.5 63.5z" />
    <glyph glyph-name="Wgrave.c2sc" horiz-adv-x="1554" 
d="M413 700q14 -119 23.5 -221.5t14.5 -169.5h6l22.5 63.5l31.5 85l39.5 102l45.5 112.5l163 394h235l14 -395q4 -115 6 -207t2 -154h6q13 33 32.5 78.5l43.5 98.5l51 110.5l55 112.5l181 356h259l-555 -1066h-252l-13 353q-2 49 -2.5 107.5t-0.5 114t1.5 102.5t2.5 72h-8
l-20.5 -62.5t-32.5 -92.5l-41.5 -113t-48.5 -124l-146 -357h-251l-147 1066h239zM921 1518l46 -349h-176l-92 349h222zM310 1014z" />
    <glyph glyph-name="Wacute.c2sc" horiz-adv-x="1554" 
d="M413 700q14 -119 23.5 -221.5t14.5 -169.5h6l22.5 63.5l31.5 85l39.5 102l45.5 112.5l163 394h235l14 -395q4 -115 6 -207t2 -154h6q13 33 32.5 78.5l43.5 98.5l51 110.5l55 112.5l181 356h259l-555 -1066h-252l-13 353q-2 49 -2.5 107.5t-0.5 114t1.5 102.5t2.5 72h-8
l-20.5 -62.5t-32.5 -92.5l-41.5 -113t-48.5 -124l-146 -357h-251l-147 1066h239zM1226 1518l-238 -349h-190l192 349h236zM471 1014z" />
    <glyph glyph-name="Wcircumflex.c2sc" horiz-adv-x="1554" 
d="M413 700q14 -119 23.5 -221.5t14.5 -169.5h6l22.5 63.5l31.5 85l39.5 102l45.5 112.5l163 394h235l14 -395q4 -115 6 -207t2 -154h6q13 33 32.5 78.5l43.5 98.5l51 110.5l55 112.5l181 356h259l-555 -1066h-252l-13 353q-2 49 -2.5 107.5t-0.5 114t1.5 102.5t2.5 72h-8
l-20.5 -62.5t-32.5 -92.5l-41.5 -113t-48.5 -124l-146 -357h-251l-147 1066h239zM876 1518h206l137 -349h-178l-82 212h-4l-170 -212h-192zM418 1014z" />
    <glyph glyph-name="Wdieresis.c2sc" horiz-adv-x="1554" 
d="M413 700q14 -119 23.5 -221.5t14.5 -169.5h6l22.5 63.5l31.5 85l39.5 102l45.5 112.5l163 394h235l14 -395q4 -115 6 -207t2 -154h6q13 33 32.5 78.5l43.5 98.5l51 110.5l55 112.5l181 356h259l-555 -1066h-252l-13 353q-2 49 -2.5 107.5t-0.5 114t1.5 102.5t2.5 72h-8
l-20.5 -62.5t-32.5 -92.5l-41.5 -113t-48.5 -124l-146 -357h-251l-147 1066h239zM638 1457h218l-47 -221h-218zM1048 1457h218l-47 -221h-218zM404 1014z" />
    <glyph glyph-name="Ygrave.c2sc" horiz-adv-x="1009" 
d="M322 0l86 418l-268 648h231l177 -442l295 440l256 2l-454 -652l-86 -414h-237zM673 1518l46 -349h-176l-92 349h222zM62 1014z" />
    <glyph glyph-name="Yacute.c2sc" horiz-adv-x="1009" 
d="M322 0l86 418l-268 648h231l177 -442l295 440l256 2l-454 -652l-86 -414h-237zM955 1518l-238 -349h-190l192 349h236zM200 1014z" />
    <glyph glyph-name="Ycircumflex.c2sc" horiz-adv-x="1009" 
d="M322 0l86 418l-268 648h231l177 -442l295 440l256 2l-454 -652l-86 -414h-237zM589 1518h206l137 -349h-178l-82 212h-4l-170 -212h-192zM131 1014z" />
    <glyph glyph-name="Ydieresis.c2sc" horiz-adv-x="1009" 
d="M322 0l86 418l-268 648h231l177 -442l295 440l256 2l-454 -652l-86 -414h-237zM366 1457h218l-47 -221h-218zM776 1457h218l-47 -221h-218zM132 1014z" />
    <glyph glyph-name="Zacute.c2sc" horiz-adv-x="1040" 
d="M20 128l659 737h-506l42 201h835l-27 -128l-659 -737h530l-41 -201h-863zM955 1518l-238 -349h-190l192 349h236zM200 1014z" />
    <glyph glyph-name="Zcaron.c2sc" horiz-adv-x="1040" 
d="M20 128l659 737h-506l42 201h835l-27 -128l-659 -737h530l-41 -201h-863zM742 1169h-206l-137 349h177l82 -212h4l170 212h193zM151 1014z" />
    <glyph glyph-name="Zdotaccent.c2sc" horiz-adv-x="1040" 
d="M20 128l659 737h-506l42 201h835l-27 -128l-659 -737h530l-41 -201h-863zM512 1236l52 257h248l-52 -257h-248zM140 1014z" />
    <glyph glyph-name="Eng.c2sc" horiz-adv-x="1287" 
d="M579 465q-100 217 -136 320h-6q-12 -147 -48 -317l-98 -468h-236l221 1066h270l204 -452q85 -192 130 -322h6q17 169 49 319l95 455h237l-237 -1142q-13 -63 -36 -123.5t-66 -108t-110.5 -76.5t-170.5 -29q-34 0 -66.5 4.5t-51.5 10.5l41 195q15 -5 31.5 -7.5t29.5 -2.5
q77 0 116.5 48t56.5 139z" />
    <glyph glyph-name="Eth.c2sc" horiz-adv-x="1237" 
d="M96 642h136l88 424h369q104 0 193.5 -23t155 -72.5t102.5 -128t37 -189.5q0 -136 -44.5 -255t-133.5 -207.5t-221.5 -139.5t-308.5 -51h-370l92 445h-136zM470 642h239l-41 -197h-239l-51 -244h121q115 0 198 37.5t137 101t80 147t26 174.5q0 102 -65.5 153t-210.5 51
h-147z" />
    <glyph glyph-name="Thorn.c2sc" horiz-adv-x="1068" 
d="M474 882h126q95 0 170 -17.5t126.5 -53t79 -89t27.5 -125.5q0 -88 -37 -161.5t-106.5 -127t-168.5 -83.5t-223 -30q-42 0 -78.5 3t-55.5 7l-42 -205h-237l221 1066h237zM376 405q15 -3 44 -6t67 -3q140 0 209.5 51t69.5 132q0 54 -43 78t-128 24h-162z" />
    <glyph glyph-name="a.superior" horiz-adv-x="903" 
d="M803 717q0 -20 10.5 -29t31.5 -9t53 6l-37 -173q-24 -5 -51 -7.5t-43 -2.5q-74 0 -111.5 28.5t-49.5 85.5h-4q-51 -64 -111.5 -92.5t-125.5 -28.5q-46 0 -86.5 17t-70 50t-46.5 82t-17 113q0 92 25 182t71.5 161t113 114.5t150.5 43.5q60 0 103.5 -25t75.5 -73h3l28 80
h193l-99 -477q-3 -14 -4.5 -26.5t-1.5 -19.5zM646 1027q-14 20 -39 37t-63 17q-42 0 -75.5 -28.5t-57.5 -73t-36.5 -98.5t-12.5 -104q0 -55 16 -80t51 -25t65.5 20.5t55.5 53.5t43 75.5t27 85.5z" />
    <glyph glyph-name="b.superior" horiz-adv-x="831" 
d="M373 803q-6 -27 -6 -51q0 -39 19.5 -59.5t61.5 -20.5q49 0 87 29.5t63.5 74.5t38 98t12.5 101q0 106 -87 106q-21 0 -46 -8.5t-49 -28.5t-43.5 -54.5t-30.5 -86.5zM471 1284q-15 -67 -27 -109h4q14 16 33 30.5t43 26.5t52 19t59 7q108 0 169.5 -67.5t61.5 -191.5
q0 -93 -26 -183t-80.5 -161.5t-138 -115.5t-198.5 -44q-61 0 -111 16t-86 47.5t-55.5 79t-19.5 109.5q0 45 10 94l146 698h218z" />
    <glyph glyph-name="c.superior" horiz-adv-x="663" 
d="M733 1047q-48 21 -86 27.5t-59 6.5q-66 0 -112 -30.5t-72.5 -76.5t-36.5 -93.5t-10 -80.5q0 -63 30 -95.5t94 -32.5q52 0 101.5 13.5t103.5 38.5l-38 -188q-36 -16 -91.5 -28.5t-118.5 -12.5q-78 0 -134.5 24t-92.5 64t-53.5 93t-17.5 111q0 83 27.5 167t82 151.5
t134.5 110t185 42.5q54 0 106.5 -12t92.5 -31z" />
    <glyph glyph-name="d.superior" horiz-adv-x="895" 
d="M798 717q0 -20 10.5 -29t31.5 -9q20 0 53 6l-37 -173q-22 -5 -50.5 -7.5t-43.5 -2.5q-74 0 -111.5 28.5t-49.5 85.5h-4q-51 -64 -111.5 -92.5t-125.5 -28.5q-46 0 -86.5 17t-70 50t-46.5 82t-17 113q0 92 25 182t71.5 161t113 114.5t150.5 43.5q56 0 99 -25t69 -66h4
q8 51 18 99l57 273h218l-161 -776q-3 -14 -4.5 -26.5t-1.5 -19.5zM641 1027q-14 20 -40 37t-62 17q-41 0 -75.5 -28.5t-58 -73.5t-36 -98.5t-12.5 -103.5q0 -55 16 -80t51 -25t65.5 20.5t55.5 53.5t43 75.5t27 85.5z" />
    <glyph glyph-name="e.superior" horiz-adv-x="810" 
d="M525 658q19 0 48 2.5t62.5 8.5t68.5 16t67 25l-35 -174q-47 -19 -113 -30t-140 -11q-87 0 -151 22t-105.5 61t-61.5 93t-20 119q0 92 30 176.5t87 149.5t139.5 103.5t187.5 38.5q61 0 109.5 -14t82 -40.5t51.5 -63t18 -81.5q0 -63 -33.5 -114t-97.5 -87t-156.5 -54.5
t-207.5 -18.5q0 -38 12.5 -63.5t35.5 -39.5t54.5 -19t67.5 -5zM638 1051q0 23 -17 34.5t-43 11.5t-55 -9.5t-56 -28.5t-49.5 -48.5t-35.5 -69.5q73 2 122 12t79 25.5t42.5 34.5t12.5 38z" />
    <glyph glyph-name="f.superior" horiz-adv-x="545" 
d="M339 458q-31 -147 -122.5 -217t-233.5 -70q-45 0 -85.5 8t-67.5 19l36 174q23 -11 50.5 -16.5t49.5 -5.5q42 0 70.5 12t47.5 34t31 53.5t20 71.5l113 545h-117l36 174h118l9 43q13 62 39 112t65.5 86t94 56t123.5 20q51 0 96.5 -9t77.5 -20l-34 -169q-29 8 -59 14.5
t-64 6.5q-53 0 -82 -23.5t-40 -77.5l-8 -39h187l-36 -174h-187z" />
    <glyph glyph-name="g.superior" horiz-adv-x="834" 
d="M356 495q-46 0 -86.5 17t-70 50t-46.5 82t-17 113q0 92 25 182t71.5 161t113 114.5t150.5 43.5q60 0 103.5 -25t75.5 -73h3l28 80h193l-154 -745q-18 -88 -53.5 -149.5t-89.5 -100t-126.5 -56.5t-164.5 -18q-33 0 -68 3.5t-68.5 9.5t-64 14.5t-55.5 18.5l36 174
q45 -20 103.5 -31.5t112.5 -11.5q57 0 99.5 12.5t73 35t49 54t27.5 69.5q6 26 11.5 44t9.5 27h-7q-49 -52 -102 -73.5t-112 -21.5zM637 1027q-14 20 -39 37t-63 17q-42 0 -75.5 -28.5t-57.5 -73t-36.5 -98.5t-12.5 -104q0 -55 16 -80t51 -25t65.5 20.5t55.5 53.5t43 75.5
t27 85.5z" />
    <glyph glyph-name="h.superior" horiz-adv-x="904" 
d="M460 1143q18 22 42.5 43t54.5 37t65.5 25.5t75.5 9.5q55 0 97 -16.5t70.5 -45.5t43.5 -69t15 -87q0 -23 -2.5 -44t-7.5 -43l-91 -440h-218l83 398q8 37 10.5 55t2.5 28q0 23 -6 39.5t-17 26.5t-25.5 14.5t-31.5 4.5q-51 0 -98.5 -32.5t-78.5 -83.5q-6 -10 -11.5 -20.5
t-10.5 -25.5t-11 -35.5t-12 -50.5l-66 -318h-218l212 1026h218l-56 -269q-14 -68 -33 -127h4z" />
    <glyph glyph-name="i.superior" horiz-adv-x="424" 
d="M291 1363l40 194h218l-40 -194h-218zM115 513l151 727h218l-151 -727h-218z" />
    <glyph glyph-name="j.superior" horiz-adv-x="437" 
d="M278 1240h218l-169 -812q-26 -127 -107 -192t-219 -65q-81 0 -151 29l37 174q53 -24 102 -24q32 0 54 9.5t37.5 28.5t26 48.5t18.5 69.5zM304 1363l40 194h218l-40 -194h-218z" />
    <glyph glyph-name="k.superior" horiz-adv-x="835" 
d="M333 513h-218l213 1026h218l-99 -473q-13 -62 -27 -116h4l272 290h254l-329 -344v-4q10 -12 16.5 -28t12 -35l11 -39t12.5 -38q14 -35 38.5 -54.5t66.5 -19.5q15 0 29.5 2.5t26.5 7.5l-36 -175q-14 -4 -37 -7.5t-55 -3.5q-44 0 -79 12.5t-60 33.5t-42.5 48.5t-29.5 57.5
q-13 30 -22.5 62t-18.5 58.5t-20 48.5t-26 34h-4z" />
    <glyph glyph-name="l.superior" horiz-adv-x="486" 
d="M313 1539h218l-160 -770q-3 -16 -3 -28q0 -29 17 -42t47 -13q29 0 65 9l-40 -181q-21 -5 -53.5 -8.5t-61.5 -3.5q-96 0 -149 47t-53 131q0 32 7 63z" />
    <glyph glyph-name="m.superior" horiz-adv-x="1312" 
d="M689 1258q41 0 71 -11t51 -30t33 -45t18 -56h4q22 28 50 54t61.5 45.5t71.5 31t81 11.5q51 0 88.5 -15.5t63 -43t38 -66t12.5 -83.5q0 -26 -3.5 -55.5t-8.5 -51.5l-89 -430h-218l84 400q5 23 8.5 43.5t3.5 40.5q0 42 -18.5 62t-52.5 20q-27 0 -55 -14t-53 -42.5
t-46 -72.5t-33 -103l-69 -334h-218l86 409q6 29 8 46.5t2 28.5q0 42 -18.5 62t-52.5 20q-27 0 -55 -14t-53 -42.5t-46 -72.5t-33 -103l-69 -334h-218l151 727h191v-97h4q17 24 41 44.5t53 36.5t63 25t71 9z" />
    <glyph glyph-name="uni207F" unicode="&#x207f;" horiz-adv-x="904" 
d="M333 513h-218l151 727h191v-97h4q18 22 42 43t54 37t65.5 25.5t75.5 9.5q55 0 97 -16.5t70.5 -45.5t43.5 -69t15 -87q0 -23 -2.5 -44.5t-7.5 -42.5l-91 -440h-218l83 398q8 37 10.5 54.5t2.5 28.5q0 25 -6.5 41.5t-17.5 26t-25.5 13.5t-30.5 4q-52 0 -99 -32.5t-78 -83.5
q-6 -10 -11.5 -20.5t-10.5 -25.5t-11 -35.5t-12 -50.5z" />
    <glyph glyph-name="o.superior" horiz-adv-x="841" 
d="M659 969q0 112 -103 112q-48 0 -86.5 -29.5t-63 -74t-37 -96.5t-12.5 -97q0 -112 103 -112q49 0 87 29.5t63 74t37 96.5t12 97zM876 984q0 -93 -28 -181t-83 -156.5t-137 -110t-191 -41.5q-73 0 -128.5 20t-93 56t-56.5 86.5t-19 111.5q0 93 28 181t83 156.5t137 110
t191 41.5q73 0 128.5 -20t93 -56t56.5 -86.5t19 -111.5z" />
    <glyph glyph-name="p.superior" horiz-adv-x="854" 
d="M471 672q46 0 84 28.5t64 72t39.5 93t13.5 90.5q0 61 -21 93t-66 32q-21 0 -47 -10.5t-51 -35.5t-46.5 -66.5t-33.5 -102.5l-34 -165q14 -12 41.5 -20.5t56.5 -8.5zM486 495q-40 0 -78.5 12.5t-64.5 33.5h-3l-73 -352h-217l218 1051h192v-92h4q43 55 98.5 82.5
t109.5 27.5q48 0 88 -17.5t68.5 -52t44.5 -85.5t16 -119q0 -87 -29 -174.5t-81.5 -157.5t-127 -113.5t-165.5 -43.5z" />
    <glyph glyph-name="q.superior" horiz-adv-x="838" 
d="M559 582q-42 -45 -92.5 -66t-106.5 -21q-46 0 -86.5 17t-70 50t-46.5 82t-17 113q0 92 25 182t71.5 161t114 114.5t149.5 43.5q59 0 103 -25t76 -73h3l28 80h193l-218 -1051h-209l66 312q10 47 23 81h-6zM641 1027q-17 24 -43.5 39t-58.5 15q-40 0 -74 -27.5t-58.5 -73
t-37 -99.5t-12.5 -104q0 -55 16 -80t51 -25t65.5 20.5t55.5 53.5t43 75.5t27 85.5z" />
    <glyph glyph-name="r.superior" horiz-adv-x="611" 
d="M678 1258q32 0 63 -8l-40 -201q-42 10 -79 10q-57 0 -102 -22.5t-76 -73.5q-6 -10 -11.5 -20.5t-10.5 -25.5t-11 -35.5t-12 -50.5l-66 -318h-218l151 727h191v-97h4q19 24 41 45t48.5 36.5t58 24.5t69.5 9z" />
    <glyph glyph-name="s.superior" horiz-adv-x="653" 
d="M469 734q0 18 -14.5 30.5t-38 22t-52.5 18.5t-60 22q-26 11 -50.5 26.5t-43 37.5t-30 52.5t-11.5 72.5q0 62 22 107.5t60.5 75.5t91.5 44.5t115 14.5q57 0 130 -13.5t135 -39.5l-34 -165q-70 26 -129.5 36.5t-98.5 10.5q-41 0 -64.5 -13t-23.5 -40q0 -22 15 -36.5t39 -25
t54 -20t61 -22.5q26 -11 49 -25.5t41.5 -36t29 -51t10.5 -69.5q0 -125 -89.5 -189t-254.5 -64q-42 0 -80.5 4.5t-70.5 11t-56 14t-36 13.5l35 170q50 -20 102 -31t103 -11q29 0 55 4t46 12.5t31.5 21.5t11.5 30z" />
    <glyph glyph-name="t.superior" horiz-adv-x="599" 
d="M652 1066h-188l-58 -280q-5 -24 -6.5 -35t-1.5 -19q0 -31 18 -46t59 -15q29 0 64.5 7.5t61.5 16.5l-37 -177q-32 -10 -77 -16.5t-93 -6.5q-60 0 -102.5 13.5t-69.5 37.5t-39 57t-12 72q0 16 2 33.5t7 41.5l65 316h-125l37 174h125l42 203h218l-42 -203h189z" />
    <glyph glyph-name="u.superior" horiz-adv-x="875" 
d="M456 495q-148 0 -224.5 68t-76.5 188q0 21 2.5 43t7.5 45l83 401h218l-82 -396q-6 -28 -8 -44t-2 -30q0 -45 26 -71.5t77 -26.5q74 0 112 44t55 126l83 398h218l-94 -451q-14 -66 -41 -120t-73.5 -93t-116 -60t-164.5 -21z" />
    <glyph glyph-name="v.superior" horiz-adv-x="795" 
d="M402 991q30 -149 42 -244h5q46 105 121 240l142 253h233l-432 -727h-206l-167 727h210z" />
    <glyph glyph-name="w.superior" horiz-adv-x="1162" 
d="M486 513h-206l-140 727h204l41 -268q21 -136 28 -221h5q37 121 73 213l113 276h203l20 -249q11 -140 14 -241h4q51 124 111 246l126 244h230l-413 -727h-202l-18 255q-8 131 -8 231h-5q-36 -119 -77 -225z" />
    <glyph glyph-name="x.superior" horiz-adv-x="816" 
d="M399 1240l117 -209h4l185 209h246l-335 -363l207 -364h-221l-126 224h-4l-204 -224h-238l347 378l-197 349h219z" />
    <glyph glyph-name="y.superior" horiz-adv-x="801" 
d="M417 948q26 -128 37 -203h6q49 111 93 193l163 302h235l-425 -751q-43 -75 -87 -134.5t-96.5 -100t-117.5 -62t-149 -21.5q-22 0 -50 3t-51 10l38 174q30 -8 60 -8q41 0 73.5 9.5t60 30.5t52.5 54t50 79l-166 717h214z" />
    <glyph glyph-name="z.superior" horiz-adv-x="685" 
d="M480 1066h-311l37 174h574l-29 -138l-390 -415h340l-36 -174h-610l27 129z" />
    <glyph glyph-name="ampersand" unicode="&#x26;" horiz-adv-x="1460" 
d="M1090 1082q0 -78 -28 -138.5t-74 -108t-106 -84.5t-125 -70l102.5 -119l120.5 -141q51 64 87.5 138t55.5 155h229q-20 -122 -80 -239t-153 -216l71.5 -82.5l64 -73.5l53.5 -60l40 -43h-299l-41 46.5l-59 67.5q-97 -65 -209.5 -102t-233.5 -37q-102 0 -176 28.5t-122.5 75
t-72 107t-23.5 123.5q0 83 24.5 147t65.5 114t95.5 89t114.5 71q-50 61 -81.5 127.5t-31.5 140.5q0 86 32.5 153.5t90.5 114.5t137 72t172 25q81 0 147 -19t113 -55t73 -88t26 -119zM355 324q0 -78 47 -116.5t127 -38.5q73 0 146 25.5t141 72.5l-69.5 80.5l-70 80.5l-67 77
l-60.5 69q-42 -24 -77.5 -49.5t-61.5 -56t-40.5 -66t-14.5 -78.5zM541 1004q0 -53 23.5 -94.5t57.5 -79.5q48 23 89.5 46.5t72 50.5t48.5 59t18 72q0 59 -38 85t-95 26q-85 0 -130.5 -43.5t-45.5 -121.5z" />
    <glyph glyph-name="ampersand.c2sc" horiz-adv-x="1198" 
d="M897 864q0 -63 -22.5 -112.5t-60 -89t-85.5 -70.5t-100 -58l69.5 -80l78.5 -92q29 42 52 93t38 114h223q-22 -109 -68 -199.5t-111 -162.5l62 -72l53 -61.5l40.5 -46.5l23.5 -27h-275l-25.5 29l-38.5 44q-80 -48 -168 -73t-180 -25q-79 0 -140.5 22t-103.5 59.5t-64 87.5
t-22 107q0 65 19.5 115t53 89.5t77 69.5t91.5 55q-33 43 -59 97.5t-27 118.5q0 69 27 123.5t75.5 93t115 58.5t144.5 20q69 0 125.5 -16.5t97 -46t62.5 -71.5t22 -93zM309 271q0 -48 30.5 -78.5t93.5 -30.5q38 0 88 13t103 44l-97 113l-89 103q-56 -33 -92.5 -72t-36.5 -92z
M465 796q0 -36 13.5 -67t33.5 -57q32 16 59.5 32.5t47.5 36t31.5 42t11.5 49.5q0 32 -20.5 52.5t-61.5 20.5q-51 0 -83 -28.5t-32 -80.5z" />
    <glyph glyph-name="grave" unicode="`" 
d="M611 1473l46 -349h-176l-92 349h222zM0 969z" />
    <glyph glyph-name="glyph431" 
d="M550 1656l87 -247h-182l-139 247h234zM0 1338z" />
    <glyph glyph-name="gravecomb" unicode="&#x300;" horiz-adv-x="0" 
d="M-320 1473l46 -349h-176l-92 349h222zM-931 969z" />
    <glyph glyph-name="glyph433" horiz-adv-x="0" 
d="M-383 1656l87 -247h-182l-139 247h234zM-933 1338z" />
    <glyph glyph-name="acute" unicode="&#xb4;" 
d="M755 1473l-238 -349h-190l192 349h236zM0 969z" />
    <glyph glyph-name="glyph435" 
d="M712 1656l-241 -247h-194l189 247h246zM0 1338z" />
    <glyph glyph-name="acutecomb" unicode="&#x301;" 
d="M-48 1473l-238 -349h-190l192 349h236zM-803 969z" />
    <glyph glyph-name="glyph437" horiz-adv-x="0" 
d="M-57 1656l-241 -247h-194l189 247h246zM-769 1338z" />
    <glyph glyph-name="circumflex" unicode="&#x2c6;" 
d="M458 1473h206l137 -349h-178l-82 212h-4l-170 -212h-192zM0 969z" />
    <glyph glyph-name="glyph439" 
d="M447 1656h206l165 -247h-200l-84 126h-4l-137 -126h-213zM0 1338z" />
    <glyph glyph-name="uni0302" unicode="&#x302;" horiz-adv-x="0" 
d="M-404 1473h206l137 -349h-178l-82 212h-4l-170 -212h-192zM-862 969z" />
    <glyph glyph-name="glyph441" horiz-adv-x="0" 
d="M-450 1656h206l165 -247h-200l-84 126h-4l-137 -126h-213zM-897 1338z" />
    <glyph glyph-name="caron" unicode="&#x2c7;" 
d="M591 1124h-206l-137 349h177l82 -212h4l170 212h193zM0 969z" />
    <glyph glyph-name="glyph443" 
d="M602 1410h-206l-165 247h198l84 -126h4l137 126h215zM0 1338z" />
    <glyph glyph-name="uni030C" unicode="&#x30c;" horiz-adv-x="0" 
d="M-282 1124h-206l-137 349h177l82 -212h4l170 212h193zM-873 969z" />
    <glyph glyph-name="glyph445" horiz-adv-x="0" 
d="M-293 1410h-206l-165 247h198l84 -126h4l137 126h215zM-895 1338z" />
    <glyph glyph-name="uni0315" unicode="&#x315;" horiz-adv-x="190" 
d="M198 1224q0 54 -67 54l35 169q16 1 20 1h12q52 0 90 -11.5t62 -32.5t35 -49.5t11 -62.5q0 -58 -29.5 -113.5t-80.5 -112.5h-184q19 21 36 42t30.5 41t21.5 39.5t8 35.5zM0 969z" />
    <glyph glyph-name="tilde" unicode="&#x2dc;" 
d="M133 1161q6 54 24.5 99.5t47 78t66.5 50t84 17.5q23 0 47 -5.5t45 -14.5t40 -19.5l36 -20.5q23 -14 43.5 -23t38.5 -9q28 0 45.5 19t26.5 65h163q-6 -54 -24.5 -99.5t-47 -78t-66.5 -50t-84 -17.5q-23 0 -47 5.5t-45 14.5t-40 19.5l-36 20.5q-23 14 -43.5 23t-38.5 9
q-28 0 -45.5 -19t-26.5 -65h-163zM0 969z" />
    <glyph glyph-name="glyph448" 
d="M885 1648q-6 -55 -24.5 -100t-47.5 -77.5t-68 -50t-86 -17.5q-41 0 -78 15t-69 34q-29 17 -54.5 30t-48.5 13q-28 0 -43.5 -19t-24.5 -65h-167q6 55 24.5 100t47.5 77.5t68 50t86 17.5q40 0 78.5 -15.5t70.5 -34.5q29 -17 54 -29.5t47 -12.5q28 0 43.5 19t24.5 65h167z
M0 1338z" />
    <glyph glyph-name="tildecomb" unicode="&#x303;" horiz-adv-x="0" 
d="M-686 1161q6 54 24.5 99.5t47 78t66.5 50t84 17.5q23 0 47 -5.5t45 -14.5t40 -19.5l36 -20.5q23 -14 43.5 -23t38.5 -9q28 0 45.5 19t26.5 65h163q-6 -54 -24.5 -99.5t-47 -78t-66.5 -50t-84 -17.5q-23 0 -47 5.5t-45 14.5t-40 19.5l-36 20.5q-23 14 -43.5 23t-38.5 9
q-28 0 -45.5 -19t-26.5 -65h-163zM-819 969z" />
    <glyph glyph-name="glyph450" horiz-adv-x="0" 
d="M-8 1648q-6 -55 -24.5 -100t-47.5 -77.5t-68 -50t-86 -17.5q-41 0 -78 15t-69 34q-29 17 -54.5 30t-48.5 13q-28 0 -43.5 -19t-24.5 -65h-167q6 55 24.5 100t47.5 77.5t68 50t86 17.5q40 0 78.5 -15.5t70.5 -34.5q29 -17 54 -29.5t47 -12.5q28 0 43.5 19t24.5 65h167z
M-893 1338z" />
    <glyph glyph-name="dieresis" unicode="&#xa8;" 
d="M234 1412h218l-47 -221h-218zM644 1412h218l-47 -221h-218zM0 969z" />
    <glyph glyph-name="glyph452" 
d="M230 1673h224l-47 -225h-224zM642 1673h224l-47 -225h-224zM0 1338z" />
    <glyph glyph-name="uni0308" unicode="&#x308;" horiz-adv-x="0" 
d="M-626 1412h218l-47 -221h-218zM-216 1412h218l-47 -221h-218zM-860 969z" />
    <glyph glyph-name="glyph454" horiz-adv-x="0" 
d="M-665 1673h224l-47 -225h-224zM-253 1673h224l-47 -225h-224zM-895 1338z" />
    <glyph glyph-name="macron" unicode="&#xaf;" 
d="M262 1338h560l-35 -167h-560zM0 969z" />
    <glyph glyph-name="macron" unicode="&#x2c9;" 
d="M262 1338h560l-35 -167h-560zM0 969z" />
    <glyph glyph-name="glyph456" 
d="M262 1617h560l-35 -169h-560zM0 1338z" />
    <glyph glyph-name="uni0304" unicode="&#x304;" horiz-adv-x="0" 
d="M-602 1338h560l-35 -167h-560zM-864 969z" />
    <glyph glyph-name="glyph458" horiz-adv-x="0" 
d="M-643 1617h560l-35 -169h-560zM-905 1338z" />
    <glyph glyph-name="breve" unicode="&#x2d8;" 
d="M514 1256q59 0 103.5 42t70.5 129h213q-18 -73 -53.5 -135t-88 -107t-120.5 -70t-150 -25q-80 0 -138.5 25t-90.5 69.5t-40.5 92.5t-7.5 75q0 36 7 75h193q-3 -26 -3 -51q0 -54 25.5 -87t79.5 -33zM0 969z" />
    <glyph glyph-name="glyph460" 
d="M520 1568q49 0 90 26.5t64 85.5h216q-21 -65 -56.5 -116.5t-85 -87.5t-112 -55t-137.5 -19t-130.5 19t-91 55t-48.5 79.5t-13 83.5q0 20 2 41h196v-9q0 -53 28.5 -78t77.5 -25zM0 1338z" />
    <glyph glyph-name="uni0306" unicode="&#x306;" horiz-adv-x="0" 
d="M-333 1256q59 0 103.5 42t70.5 129h213q-18 -73 -53.5 -135t-88 -107t-120.5 -70t-150 -25q-80 0 -138.5 25t-90.5 69.5t-40.5 92.5t-7.5 75q0 36 7 75h193q-3 -26 -3 -51q0 -54 25.5 -87t79.5 -33zM-847 969z" />
    <glyph glyph-name="glyph462" horiz-adv-x="0" 
d="M-382 1568q49 0 90 26.5t64 85.5h216q-21 -65 -56.5 -116.5t-85 -87.5t-112 -55t-137.5 -19t-130.5 19t-91 55t-48.5 79.5t-13 83.5q0 20 2 41h196v-9q0 -53 28.5 -78t77.5 -25zM-902 1338z" />
    <glyph glyph-name="ring" unicode="&#x2da;" 
d="M548 1500q107 0 164.5 -48.5t57.5 -129.5q0 -40 -17.5 -81.5t-52 -75t-86 -54.5t-120.5 -21q-107 0 -164.5 48.5t-57.5 129.5q0 41 17.5 82t52 74.5t86 54.5t120.5 21zM540 1387q-29 0 -51.5 -9t-38.5 -25t-24 -36t-8 -43q0 -32 20.5 -51.5t63.5 -19.5q29 0 51.5 9
t38.5 25t24 36.5t8 42.5q0 32 -20.5 51.5t-63.5 19.5zM0 969z" />
    <glyph glyph-name="glyph464" 
d="M548 1759q107 0 164.5 -46t57.5 -124q0 -39 -17.5 -78.5t-52 -71.5t-86 -52t-120.5 -20q-107 0 -164.5 46t-57.5 124q0 39 17.5 78.5t52 71.5t86 52t120.5 20zM540 1648q-58 0 -90 -31t-32 -74q0 -30 20.5 -47.5t63.5 -17.5q58 0 90 31t32 74q0 30 -20.5 47.5t-63.5 17.5
zM0 1338z" />
    <glyph glyph-name="uni030A" unicode="&#x30a;" horiz-adv-x="0" 
d="M-327 1500q107 0 164.5 -48.5t57.5 -129.5q0 -40 -17.5 -81.5t-52 -75t-86 -54.5t-120.5 -21q-107 0 -164.5 48.5t-57.5 129.5q0 41 17.5 82t52 74.5t86 54.5t120.5 21zM-335 1387q-29 0 -51.5 -9t-38.5 -25t-24 -36t-8 -43q0 -32 20.5 -51.5t63.5 -19.5q29 0 51.5 9
t38.5 25t24 36.5t8 42.5q0 32 -20.5 51.5t-63.5 19.5zM-875 969z" />
    <glyph glyph-name="glyph466" horiz-adv-x="0" 
d="M-345 1759q107 0 164.5 -46t57.5 -124q0 -39 -17.5 -78.5t-52 -71.5t-86 -52t-120.5 -20q-107 0 -164.5 46t-57.5 124q0 39 17.5 78.5t52 71.5t86 52t120.5 20zM-353 1648q-58 0 -90 -31t-32 -74q0 -30 20.5 -47.5t63.5 -17.5q58 0 90 31t32 74q0 30 -20.5 47.5
t-63.5 17.5zM-893 1338z" />
    <glyph glyph-name="hungarumlaut" unicode="&#x2dd;" 
d="M571 1473l-238 -349h-178l192 349h224zM899 1473l-260 -349h-184l214 349h230zM0 969z" />
    <glyph glyph-name="glyph468" 
d="M576 1656l-241 -247h-182l189 247h234zM903 1656l-258 -247h-186l206 247h238zM0 1338z" />
    <glyph glyph-name="uni030B" unicode="&#x30b;" horiz-adv-x="0" 
d="M-257 1473l-238 -349h-178l192 349h224zM71 1473l-260 -349h-184l214 349h230zM-828 969z" />
    <glyph glyph-name="glyph470" horiz-adv-x="0" 
d="M-281 1656l-241 -247h-182l189 247h234zM46 1656l-258 -247h-186l206 247h238zM-857 1338z" />
    <glyph glyph-name="dotaccent" unicode="&#x2d9;" 
d="M372 1191l52 257h248l-52 -257h-248zM0 969z" />
    <glyph glyph-name="glyph472" 
d="M372 1448l52 257h248l-52 -257h-248zM0 1338z" />
    <glyph glyph-name="uni0307" unicode="&#x307;" horiz-adv-x="0" 
d="M-507 1191l52 257h248l-52 -257h-248zM-879 969z" />
    <glyph glyph-name="glyph474" horiz-adv-x="0" 
d="M-524 1448l52 257h248l-52 -257h-248zM-896 1338z" />
    <glyph glyph-name="cedilla" unicode="&#xb8;" 
d="M204 9h148l-48 -127q48 -5 81 -18t53.5 -33.5t30 -46.5t9.5 -56q0 -47 -23.5 -87t-66.5 -69t-103.5 -45.5t-134.5 -16.5q-39 0 -79.5 6t-61.5 15l29 142q44 -15 108 -15q75 0 109.5 22.5t34.5 49.5q0 55 -170 55z" />
    <glyph glyph-name="uni0327" unicode="&#x327;" horiz-adv-x="0" 
d="M-592 9h148l-48 -127q48 -5 81 -18t53.5 -33.5t30 -46.5t9.5 -56q0 -47 -23.5 -87t-66.5 -69t-103.5 -45.5t-134.5 -16.5q-39 0 -79.5 6t-61.5 15l29 142q44 -15 108 -15q75 0 109.5 22.5t34.5 49.5q0 55 -170 55z" />
    <glyph glyph-name="ogonek" unicode="&#x2db;" 
d="M507 29q-55 -29 -106.5 -66t-92 -76t-65 -79t-24.5 -75q0 -30 17 -44t49 -14q23 0 52 6.5t51 16.5l-33 -162q-26 -11 -64 -18.5t-74 -7.5q-43 0 -79.5 11t-62.5 32.5t-41 53t-15 71.5q0 46 20.5 96.5t55.5 98t83 88.5t103 68h226z" />
    <glyph glyph-name="uni0328" unicode="&#x328;" horiz-adv-x="0" 
d="M-289 29q-55 -29 -106.5 -66t-92 -76t-65 -79t-24.5 -75q0 -30 17 -44t49 -14q23 0 52 6.5t51 16.5l-33 -162q-26 -11 -64 -18.5t-74 -7.5q-43 0 -79.5 11t-62.5 32.5t-41 53t-15 71.5q0 46 20.5 96.5t55.5 98t83 88.5t103 68h226z" />
    <glyph glyph-name="uni0326" unicode="&#x326;" 
d="M221 -332q0 54 -67 54l35 169q17 1 32 1q53 0 90.5 -11.5t61.5 -32.5t35 -49.5t11 -62.5q0 -60 -29.5 -114.5t-80.5 -111.5h-184q19 21 36 42t30.5 41t21.5 39t8 36z" />
    <glyph glyph-name="uni0312" unicode="&#x312;" horiz-adv-x="0" 
d="M-347 1315q0 -54 67 -54l-35 -169q-18 -1 -32 -1q-53 0 -90.5 11.5t-61.5 32.5t-35 49.5t-11 62.5q0 57 29.5 113t80.5 113h184q-19 -21 -36 -42t-30.5 -41t-21.5 -39t-8 -36zM0 969z" />
    <glyph glyph-name="comma" unicode="," horiz-adv-x="658" 
d="M257 267h277l-283 -678h-247z" />
    <glyph glyph-name="semicolon" unicode=";" horiz-adv-x="643" 
d="M358 900h269l-56 -267h-269zM257 267h277l-283 -678h-247z" />
    <glyph glyph-name="colon" unicode=":" horiz-adv-x="620" 
d="M203 267h269l-55 -267h-269zM335 900h269l-56 -267h-269z" />
    <glyph glyph-name="period" unicode="." horiz-adv-x="615" 
d="M203 267h269l-55 -267h-269z" />
    <glyph glyph-name="ellipsis" unicode="&#x2026;" horiz-adv-x="1950" 
d="M144 267h269l-55 -267h-269zM794 267h269l-55 -267h-269zM1444 267h269l-55 -267h-269z" />
    <glyph glyph-name="hyphen" unicode="-" horiz-adv-x="681" 
d="M145 608h441l-45 -215h-441z" />
    <glyph glyph-name="hyphen" unicode="&#x2010;" horiz-adv-x="681" 
d="M145 608h441l-45 -215h-441z" />
    <glyph glyph-name="hyphen" unicode="&#xad;" horiz-adv-x="681" 
d="M145 608h441l-45 -215h-441z" />
    <glyph glyph-name="hyphen.case" horiz-adv-x="681" 
d="M183 789h441l-45 -215h-441z" />
    <glyph glyph-name="exclam" unicode="!" horiz-adv-x="599" 
d="M615 1338l-203 -858h-217l155 858h265zM125 267h269l-55 -267h-269z" />
    <glyph glyph-name="exclamdown" unicode="&#xa1;" horiz-adv-x="599" 
d="M-16 -387l207 876h217l-159 -876h-265zM478 702h-269l55 267h269z" />
    <glyph glyph-name="exclamdown.case" horiz-adv-x="599" 
d="M70 0l203 858h217l-155 -858h-265zM560 1071h-269l55 267h269z" />
    <glyph glyph-name="question" unicode="?" horiz-adv-x="920" 
d="M970 1075q0 -65 -20 -115t-52.5 -90t-74 -72t-85.5 -61l-79.5 -51.5t-72.5 -53.5t-56.5 -60.5t-32.5 -73.5l-4 -18h-221q4 68 29 121t62.5 95.5t83.5 76.5t91 64l73 50t61.5 50t42.5 55t16 63q0 30 -12.5 51.5t-34.5 35t-53 20t-68 6.5q-77 0 -165.5 -22.5t-170.5 -60.5
l41 202q70 37 156.5 56.5t183.5 19.5q81 0 147.5 -19t114.5 -56t74 -90.5t26 -122.5zM213 267h269l-55 -267h-269z" />
    <glyph glyph-name="questiondown" unicode="&#xbf;" horiz-adv-x="920" 
d="M-7 -125q0 71 24 126t62.5 98.5t87 79l96.5 68.5l70 48.5t61.5 51.5t47.5 57.5t28 66.5l4 18h221q-4 -69 -30 -123t-64 -98.5t-84.5 -80.5l-92.5 -69l-72.5 -53t-61 -53t-42.5 -56.5t-16 -64.5q0 -58 46.5 -83.5t121.5 -25.5q77 0 165.5 22.5t170.5 60.5l-41 -202
q-70 -37 -156.5 -56.5t-183.5 -19.5q-81 0 -147.5 19t-114.5 56t-74 90.5t-26 122.5zM754 702h-269l55 267h269z" />
    <glyph glyph-name="questiondown.case" horiz-adv-x="920" 
d="M55 263q0 65 20 115t52.5 90t74 72t85.5 61l79.5 51.5t72.5 53.5t56.5 60.5t32.5 73.5l4 18h221q-4 -68 -29 -121t-62.5 -95.5t-83.5 -76.5t-91 -64l-73 -50t-61.5 -50t-42.5 -55t-16 -63q0 -30 12.5 -51.5t34.5 -35t53 -20t68 -6.5q77 0 165.5 22.5t170.5 60.5l-41 -202
q-70 -37 -156.5 -56.5t-183.5 -19.5q-81 0 -147.5 19t-114.5 56t-74 90.5t-26 122.5zM812 1071h-269l55 267h269z" />
    <glyph glyph-name="quoteleft" unicode="&#x2018;" horiz-adv-x="497" 
d="M230 1338h207l79 -551h-248z" />
    <glyph glyph-name="quoteright" unicode="&#x2019;" horiz-adv-x="497" 
d="M389 1338h260l-309 -551h-219z" />
    <glyph glyph-name="quoteleft.c2sc" horiz-adv-x="497" 
d="M167 1067h207l79 -551h-248z" />
    <glyph glyph-name="quoteright.c2sc" horiz-adv-x="497" 
d="M334 1067h260l-309 -551h-219z" />
    <glyph glyph-name="quotedblleft" unicode="&#x201c;" horiz-adv-x="926" 
d="M230 1338h207l79 -551h-248zM628 1338h215l102 -551h-256z" />
    <glyph glyph-name="quotedblright" unicode="&#x201d;" horiz-adv-x="938" 
d="M389 1338h260l-309 -551h-219zM822 1338h268l-332 -551h-227z" />
    <glyph glyph-name="quotedblleft.c2sc" horiz-adv-x="932" 
d="M173 1067h207l79 -551h-248zM571 1067h215l102 -551h-256z" />
    <glyph glyph-name="quotedblright.c2sc" horiz-adv-x="932" 
d="M334 1067h260l-309 -551h-219zM767 1067h268l-332 -551h-227z" />
    <glyph glyph-name="quotesinglbase" unicode="&#x201a;" horiz-adv-x="497" 
d="M121 248h260l-309 -551h-219z" />
    <glyph glyph-name="quotedblbase" unicode="&#x201e;" horiz-adv-x="938" 
d="M121 248h260l-309 -551h-219zM554 248h268l-332 -551h-227z" />
    <glyph glyph-name="guilsinglleft" unicode="&#x2039;" horiz-adv-x="600" 
d="M72 474l313 386h222l-299 -386l134 -386h-193z" />
    <glyph glyph-name="guilsinglright" unicode="&#x203a;" horiz-adv-x="600" 
d="M541 474l-313 -386h-222l299 386l-134 386h193z" />
    <glyph glyph-name="guilsinglleft.case" horiz-adv-x="645" 
d="M140 680l313 386h222l-299 -386l134 -386h-193z" />
    <glyph glyph-name="guilsinglright.case" horiz-adv-x="645" 
d="M615 680l-313 -386h-222l299 386l-134 386h193z" />
    <glyph glyph-name="guillemotleft" unicode="&#xab;" horiz-adv-x="1024" 
d="M72 474l329 386h222l-315 -386l150 -386h-193zM496 474l313 386h222l-299 -386l134 -386h-193z" />
    <glyph glyph-name="guillemotright" unicode="&#xbb;" horiz-adv-x="1024" 
d="M965 474l-329 -386h-222l315 386l-150 386h193zM541 474l-313 -386h-222l299 386l-134 386h193z" />
    <glyph glyph-name="guillemotleft.case" horiz-adv-x="1069" 
d="M140 680l329 386h222l-315 -386l150 -386h-193zM564 680l313 386h222l-299 -386l134 -386h-193z" />
    <glyph glyph-name="guillemotright.case" horiz-adv-x="1069" 
d="M1039 680l-329 -386h-222l315 386l-150 386h193zM615 680l-313 -386h-222l299 386l-134 386h193z" />
    <glyph glyph-name="slash" unicode="/" horiz-adv-x="603" 
d="M-115 -249l710 1587h218l-711 -1587h-217z" />
    <glyph glyph-name="bar" unicode="|" horiz-adv-x="485" 
d="M345 -465h-205v1913h205v-1913z" />
    <glyph glyph-name="endash" unicode="&#x2013;" horiz-adv-x="1000" 
d="M19 588h1000l-39 -185h-999z" />
    <glyph glyph-name="endash.case" horiz-adv-x="1000" 
d="M19 777h1000l-39 -185h-999z" />
    <glyph glyph-name="emdash" unicode="&#x2014;" horiz-adv-x="1700" 
d="M19 588h1700l-39 -185h-1699z" />
    <glyph glyph-name="emdash.case" horiz-adv-x="1700" 
d="M19 777h1700l-39 -185h-1699z" />
    <glyph glyph-name="afii00208" unicode="&#x2015;" horiz-adv-x="1700" 
d="M19 588h1700l-39 -185h-1699z" />
    <glyph glyph-name="afii00208.case" horiz-adv-x="1700" 
d="M19 777h1700l-39 -185h-1699z" />
    <glyph glyph-name="bullet" unicode="&#x2022;" horiz-adv-x="908" 
d="M181 667q0 67 24 124.5t66 99.5t99.5 66t124.5 24t124.5 -24t99.5 -66t66 -99.5t24 -124.5t-24 -124.5t-66 -99.5t-99.5 -66t-124.5 -24t-124.5 24t-99.5 66t-66 99.5t-24 124.5z" />
    <glyph glyph-name="periodcentered" unicode="&#xb7;" horiz-adv-x="599" 
d="M269 625h269l-55 -267h-269z" />
    <glyph glyph-name="periodcentered" unicode="&#x2219;" horiz-adv-x="599" 
d="M269 625h269l-55 -267h-269z" />
    <glyph glyph-name="periodcentered.case" horiz-adv-x="599" 
d="M287 855h269l-55 -267h-269z" />
    <glyph glyph-name="parenleft" unicode="(" horiz-adv-x="626" 
d="M346 -336q-38 33 -79 89t-74.5 133t-55.5 176t-22 219q0 182 43 345t116 302t169 252t202 194l111 -124q-97 -86 -177 -192t-137 -231t-88.5 -268t-31.5 -304q0 -148 36.5 -265t105.5 -202z" />
    <glyph glyph-name="parenright" unicode=")" horiz-adv-x="626" 
d="M321 1374q38 -33 79 -89t75 -133t55.5 -176t21.5 -219q0 -182 -43 -345t-116 -302t-169 -252t-202 -194l-111 124q97 86 177 192t137 231t88.5 268.5t31.5 303.5q0 148 -36.5 265t-105.5 202z" />
    <glyph glyph-name="parenleft.case" horiz-adv-x="626" 
d="M361 -185q-38 33 -79 89t-74.5 133t-55.5 176t-22 219q0 182 43 345t116 302t169 252t202 194l111 -124q-97 -86 -177 -192t-137 -231t-88.5 -268t-31.5 -304q0 -148 36.5 -265t105.5 -202z" />
    <glyph glyph-name="parenright.case" horiz-adv-x="626" 
d="M325 1525q38 -33 79 -89t75 -133t55.5 -176t21.5 -219q0 -182 -43 -345t-116 -302t-169 -252t-202 -194l-111 124q97 86 177 192t137 231t88.5 268.5t31.5 303.5q0 148 -36.5 265t-105.5 202z" />
    <glyph glyph-name="bracketleft" unicode="[" horiz-adv-x="646" 
d="M311 1338h440l-37 -173h-235l-269 -1292h235l-37 -173h-439z" />
    <glyph glyph-name="bracketright" unicode="]" horiz-adv-x="646" 
d="M334 -300h-440l37 173h235l269 1292h-235l37 173h439z" />
    <glyph glyph-name="bracketleft.case" horiz-adv-x="646" 
d="M356 1488h440l-37 -173h-235l-269 -1292h235l-37 -173h-439z" />
    <glyph glyph-name="bracketright.case" horiz-adv-x="646" 
d="M365 -150h-440l37 173h235l269 1292h-235l37 173h439z" />
    <glyph glyph-name="braceleft" unicode="{" horiz-adv-x="625" 
d="M317 516q12 -3 30.5 -14t36 -31t30 -48.5t12.5 -67.5q0 -37 -9.5 -71t-24.5 -65t-33.5 -59.5l-36.5 -55.5q-30 -44 -52.5 -83t-22.5 -78q0 -54 46 -74.5t133 -20.5h28l-36 -173h-58q-163 0 -246 59t-83 165q0 37 10 71.5t26 66.5t36 62.5l40 59.5q34 50 60.5 97.5
t26.5 99.5q0 46 -35.5 64t-116.5 18l33 162q109 -4 156 36.5t47 128.5q0 32 -7 60t-16 57q-11 35 -21 72t-10 82q0 74 31.5 134.5t89.5 103.5t138.5 66t177.5 23h61l-36 -173h-28q-106 0 -162 -38t-56 -125q0 -25 5.5 -50t13.5 -52q8 -28 14 -59t6 -68q0 -50 -14.5 -94.5
t-40.5 -81t-62 -62.5t-80 -40z" />
    <glyph glyph-name="braceright" unicode="}" horiz-adv-x="625" 
d="M339 522q-12 3 -30.5 14t-36 31t-30 48.5t-12.5 67.5q0 37 9.5 71t24.5 65t33.5 59.5l36.5 55.5q30 44 52.5 83t22.5 78q0 54 -46 74.5t-133 20.5h-28l36 173h58q163 0 246 -59t83 -165q0 -37 -10 -71.5t-26 -66.5t-36 -62.5l-40 -59.5q-34 -50 -60.5 -97.5t-26.5 -99.5
q0 -46 35.5 -64t116.5 -18l-33 -162q-109 4 -156 -36.5t-47 -128.5q0 -32 7 -60t16 -57q11 -35 21 -72t10 -82q0 -74 -31.5 -134.5t-89.5 -103.5t-138.5 -66t-177.5 -23h-61l36 173h28q106 0 162 38t56 125q0 25 -5.5 50t-13.5 52q-8 28 -14 59t-6 68q0 50 14.5 94.5
t40.5 81t62 62.5t80 40z" />
    <glyph glyph-name="braceleft.case" horiz-adv-x="625" 
d="M359 666q12 -3 30.5 -14t36 -31t30 -48.5t12.5 -67.5q0 -37 -9.5 -71t-24.5 -65t-33.5 -59.5l-36.5 -55.5q-30 -44 -52.5 -83t-22.5 -78q0 -54 46 -74.5t133 -20.5h28l-36 -173h-58q-163 0 -246 59t-83 165q0 37 10 71.5t26 66.5t36 62.5l40 59.5q34 50 60.5 97.5
t26.5 99.5q0 46 -35.5 64t-116.5 18l33 162q109 -4 156 36.5t47 128.5q0 32 -7 60t-16 57q-11 35 -21 72t-10 82q0 74 31.5 134.5t89.5 103.5t138.5 66t177.5 23h61l-36 -173h-28q-106 0 -162 -38t-56 -125q0 -25 5.5 -50t13.5 -52q8 -28 14 -59t6 -68q0 -50 -14.5 -94.5
t-40.5 -81t-62 -62.5t-80 -40z" />
    <glyph glyph-name="braceright.case" horiz-adv-x="625" 
d="M339 672q-12 3 -30.5 14t-36 31t-30 48.5t-12.5 67.5q0 37 9.5 71t24.5 65t33.5 59.5l36.5 55.5q30 44 52.5 83t22.5 78q0 54 -46 74.5t-133 20.5h-28l36 173h58q163 0 246 -59t83 -165q0 -37 -10 -71.5t-26 -66.5t-36 -62.5l-40 -59.5q-34 -50 -60.5 -97.5t-26.5 -99.5
q0 -46 35.5 -64t116.5 -18l-33 -162q-109 4 -156 -36.5t-47 -128.5q0 -32 7 -60t16 -57q11 -35 21 -72t10 -82q0 -74 -31.5 -134.5t-89.5 -103.5t-138.5 -66t-177.5 -23h-61l36 173h28q106 0 162 38t56 125q0 25 -5.5 50t-13.5 52q-8 28 -14 59t-6 68q0 50 14.5 94.5
t40.5 81t62 62.5t80 40z" />
    <glyph glyph-name="asterisk" unicode="*" horiz-adv-x="1081" 
d="M696 952l173 71l178 29l27 -188l-178 -27l-188 19l-2 -4l121 -144l85 -174l-170 -84l-84 176l-37 184l-7 1l-98 -160l-139 -136l-131 137l139 134l163 94v5l-183 45l-158 87l89 167l158 -88l138 -126l5 4l-14 187l33 187l186 -33l-33 -187l-76 -171z" />
    <glyph glyph-name="dagger" unicode="&#x2020;" horiz-adv-x="971" 
d="M719 1148l-84 -182l3 -4l176 45h167l-37 -177h-167l-157 45l-5 -4l8 -182l-161 -560h-101l73 560l84 182l-3 4l-175 -45h-167l37 177h167l156 -45l5 4l-8 182l40 190h189z" />
    <glyph glyph-name="daggerdbl" unicode="&#x2021;" horiz-adv-x="971" 
d="M615 649l-84 -182l3 -4l176 45h167l-37 -177h-167l-157 45l-5 -4l8 -182l-39 -190h-189l39 190l84 182l-3 4l-175 -45h-167l37 177h167l156 -45l5 4l-8 182l9 40l84 182l-3 4l-176 -45h-167l37 177h167l157 -45l5 4l-8 182l39 190h189l-39 -190l-84 -182l3 -4l175 45h167
l-37 -177h-167l-156 45l-5 -4l8 -182z" />
    <glyph glyph-name="section" unicode="&#xa7;" horiz-adv-x="920" 
d="M311 807q0 -67 13.5 -129.5t34.5 -121.5t47.5 -114.5l52.5 -109.5l40.5 -87t34.5 -86t24 -86.5t9 -87.5q0 -29 -4 -58.5t-14 -59.5h14q17 27 29.5 61t20.5 70t12 73.5t4 71.5q0 61 -11 118t-29 110.5t-41 105l-47 100.5l-47 98t-41 96t-29 96.5t-11 97.5q0 29 4 58.5
t14 59.5h-14q-17 -27 -29.5 -61t-20.5 -70t-12 -73t-4 -72zM278 -413q-79 0 -149 15.5t-124 40.5l40 193q57 -23 114.5 -36t110.5 -13q81 0 120.5 43t39.5 113q0 58 -28.5 121.5t-67.5 136.5l-60 114t-56.5 128.5t-41.5 145t-16 163.5q0 125 34 236.5t98.5 194.5
t157.5 131.5t212 48.5q79 0 149 -15.5t124 -40.5l-40 -193q-57 23 -114.5 36t-110.5 13q-80 0 -120 -42.5t-40 -112.5q0 -31 9 -63.5t24 -67.5t34.5 -72l40.5 -77l57 -110.5t52 -124t38 -139t15 -156.5q0 -125 -34 -236.5t-98.5 -194.5t-157.5 -131.5t-212 -48.5z" />
    <glyph glyph-name="paragraph" unicode="&#xb6;" horiz-adv-x="1186" 
d="M90 -196q35 -17 73.5 -27t70.5 -10q79 0 127 58.5t76 192.5l59 280q-82 21 -141 61t-97 93t-56 118t-18 137q0 132 52 247.5t157 200.5t265 134t383 49h198l-279 -1331q-27 -128 -82.5 -209.5t-131.5 -128.5t-169 -64.5t-195 -17.5q-63 0 -116.5 6t-95.5 14.5t-71.5 18
t-43.5 16.5zM1015 1151q-91 0 -155 -12l-230 -1098q-13 -65 -30 -112.5t-36 -82.5t-40.5 -58.5t-45.5 -38.5v-4q69 7 120 30t87 59.5t58.5 86.5t35.5 112z" />
    <glyph glyph-name="Alpha" unicode="&#x391;" horiz-adv-x="1326" 
d="M872 341h-475l-185 -341h-272l746 1338h228l272 -1338h-250zM509 546h325l-27 144q-33 173 -53 321h-6q-71 -158 -154 -309z" />
    <glyph glyph-name="Beta" unicode="&#x392;" horiz-adv-x="1246" 
d="M644 787q60 0 100 5.5t69 17.5q62 25 95 72t33 113q0 38 -20 70t-68 50q-24 9 -60 14t-84 5h-170l-72 -347h177zM425 582l-79 -377h127q169 0 256 34q86 33 124 89.5t38 120.5q0 42 -22 72.5t-72 46.5q-23 8 -54.5 11t-79.5 3h-238zM1186 1014q0 -119 -61.5 -198.5
t-175.5 -127.5v-4q45 -12 80 -35.5t59 -55t36 -70.5t12 -81q0 -134 -81.5 -237.5t-243.5 -157.5q-72 -23 -163.5 -35t-207.5 -12h-380l277 1338h373q80 0 142.5 -9t111.5 -26q108 -38 165 -114t57 -175z" />
    <glyph glyph-name="Gamma" unicode="&#x393;" horiz-adv-x="1136" 
d="M88 0l277 1338h911l-42 -205h-667l-235 -1133h-244z" />
    <glyph glyph-name="Delta" unicode="&#x394;" horiz-adv-x="1360" 
d="M696 1338h240l264 -1179l-32 -159h-1173l33 159zM843 633q-47 229 -70 387h-6q-50 -121 -181 -356l-254 -459h600z" />
    <glyph glyph-name="Epsilon" unicode="&#x395;" horiz-adv-x="1116" 
d="M346 205h631l-42 -205h-875l277 1338h839l-43 -205h-594l-72 -346h510l-42 -205h-510z" />
    <glyph glyph-name="Zeta" unicode="&#x396;" horiz-adv-x="1228" 
d="M31 135l874 998h-665l42 205h996l-28 -136l-874 -997h697l-42 -205h-1031z" />
    <glyph glyph-name="Eta" unicode="&#x397;" horiz-adv-x="1366" 
d="M467 787h571l114 551h244l-277 -1338h-244l121 582h-571l-121 -582h-244l277 1338h244z" />
    <glyph glyph-name="Theta" unicode="&#x398;" horiz-adv-x="1444" 
d="M533 787h512l-42 -205h-513zM860 1156q-78 0 -145 -28t-121.5 -76.5t-96 -113.5t-70 -139t-43 -153.5t-14.5 -155.5q0 -152 78 -230t221 -78q79 0 145.5 28t121 76.5t96 113.5t70 139t43 153.5t14.5 155.5q0 152 -78 230t-221 78zM886 1363q117 0 212.5 -32.5t163.5 -97
t105 -160t37 -220.5q0 -78 -16.5 -173t-53.5 -192.5t-96 -190t-143.5 -164t-196.5 -115t-255 -43.5q-117 0 -212.5 32.5t-163.5 97t-105 160t-37 220.5q0 78 16.5 173t53.5 192.5t96 190t143.5 164t196.5 115t255 43.5z" />
    <glyph glyph-name="Iota" unicode="&#x399;" horiz-adv-x="551" 
d="M60 0l277 1338h244l-277 -1338h-244z" />
    <glyph glyph-name="Kappa" unicode="&#x39a;" horiz-adv-x="1218" 
d="M60 0l277 1338h244l-123 -595h4l554 595h302l-639 -673l425 -665h-281l-387 618h-4l-128 -618h-244z" />
    <glyph glyph-name="Lambda" unicode="&#x39b;" horiz-adv-x="1296" 
d="M212 0h-272l732 1338h231l253 -1338h-250l-116 668q-35 201 -50 334h-6q-53 -122 -166 -333z" />
    <glyph glyph-name="Mu" unicode="&#x39c;" horiz-adv-x="1633" 
d="M795 361q71 153 306 571l231 406h331l-277 -1338h-244l143 638q36 160 91 380h-8q-99 -212 -384 -714l-176 -304h-163l-107 723q-22 145 -39 295h-8q-13 -148 -52 -351l-135 -667h-244l277 1338h315l60 -374q37 -234 77 -603h6z" />
    </font>
</defs>
</svg>
